%TF.GenerationSoftware,Altium Limited,Altium Designer,22.11.1 (43)*%
G04 Layer_Color=32896*
%FSLAX45Y45*%
%MOMM*%
%TF.SameCoordinates,9689AE11-03B8-4921-899C-892E986EC91F*%
%TF.FilePolarity,Positive*%
%TF.FileFunction,Legend,Bot*%
%TF.Part,Single*%
G01*
G75*
%TA.AperFunction,NonConductor*%
%ADD48C,0.20000*%
G36*
X1544444Y1300000D02*
X596296D01*
Y2300000D01*
X1544444D01*
Y1300000D01*
D02*
G37*
G36*
X1554514Y2901211D02*
X1554930Y2901142D01*
X1555554Y2900795D01*
X1555831Y2900587D01*
X1556039Y2900379D01*
X1556178Y2900310D01*
X1556247Y2900241D01*
X1566510Y2889909D01*
X1566787Y2889631D01*
X1566926Y2889354D01*
X1567203Y2888730D01*
X1567273Y2888314D01*
Y2888175D01*
Y2888106D01*
X1567134Y2887204D01*
X1566857Y2886580D01*
X1566441Y2886095D01*
X1565955Y2885817D01*
X1565470Y2885609D01*
X1565054Y2885540D01*
X1564776Y2885471D01*
X1564638D01*
X1564291Y2885540D01*
X1563944Y2885609D01*
X1563320Y2885887D01*
X1562974Y2886095D01*
X1562835Y2886233D01*
X1556733Y2892266D01*
Y2851285D01*
X1556594Y2850453D01*
X1556317Y2849829D01*
X1555901Y2849344D01*
X1555415Y2849066D01*
X1554930Y2848858D01*
X1554514Y2848789D01*
X1554236Y2848719D01*
X1554098D01*
X1553196Y2848858D01*
X1552572Y2849136D01*
X1552087Y2849552D01*
X1551809Y2850037D01*
X1551601Y2850453D01*
X1551532Y2850869D01*
X1551463Y2851146D01*
Y2851285D01*
Y2898646D01*
X1551601Y2899547D01*
X1551879Y2900171D01*
X1552295Y2900657D01*
X1552780Y2900934D01*
X1553266Y2901142D01*
X1553682Y2901211D01*
X1553959Y2901281D01*
X1554098D01*
X1554514Y2901211D01*
D02*
G37*
G36*
X1696804Y2901142D02*
X1697428Y2900865D01*
X1697913Y2900449D01*
X1698190Y2899963D01*
X1698398Y2899478D01*
X1698468Y2899062D01*
X1698537Y2898784D01*
Y2898646D01*
Y2851285D01*
X1698398Y2850453D01*
X1698121Y2849829D01*
X1697705Y2849344D01*
X1697220Y2849066D01*
X1696804Y2848858D01*
X1696388Y2848789D01*
X1696110Y2848719D01*
X1682796D01*
X1681618Y2848789D01*
X1680439Y2848927D01*
X1679329Y2849136D01*
X1678289Y2849413D01*
X1676417Y2850176D01*
X1675516Y2850592D01*
X1674753Y2851008D01*
X1674059Y2851424D01*
X1673435Y2851840D01*
X1672881Y2852256D01*
X1672465Y2852603D01*
X1672118Y2852880D01*
X1671840Y2853088D01*
X1671702Y2853227D01*
X1671632Y2853296D01*
X1670800Y2854197D01*
X1670107Y2855099D01*
X1669483Y2856070D01*
X1668928Y2856971D01*
X1668512Y2857942D01*
X1668096Y2858843D01*
X1667541Y2860646D01*
X1667403Y2861409D01*
X1667264Y2862172D01*
X1667125Y2862796D01*
X1667056Y2863351D01*
X1666987Y2863836D01*
Y2864183D01*
Y2864391D01*
Y2864460D01*
X1667056Y2866055D01*
X1667333Y2867580D01*
X1667680Y2869037D01*
X1668165Y2870354D01*
X1668720Y2871533D01*
X1669344Y2872642D01*
X1670038Y2873683D01*
X1670731Y2874515D01*
X1671494Y2875347D01*
X1672118Y2876040D01*
X1672811Y2876595D01*
X1673366Y2877080D01*
X1673851Y2877427D01*
X1674198Y2877704D01*
X1674475Y2877843D01*
X1674545Y2877912D01*
X1673643Y2878675D01*
X1672950Y2879438D01*
X1672256Y2880270D01*
X1671702Y2881172D01*
X1671216Y2882004D01*
X1670800Y2882836D01*
X1670523Y2883668D01*
X1670246Y2884500D01*
X1670038Y2885193D01*
X1669899Y2885887D01*
X1669760Y2886511D01*
X1669691Y2887066D01*
X1669622Y2887482D01*
Y2887828D01*
Y2888036D01*
Y2888106D01*
X1669691Y2889146D01*
X1669760Y2890117D01*
X1670246Y2891920D01*
X1670800Y2893514D01*
X1671494Y2894901D01*
X1671910Y2895456D01*
X1672256Y2895941D01*
X1672534Y2896427D01*
X1672811Y2896773D01*
X1673089Y2897051D01*
X1673297Y2897328D01*
X1673366Y2897398D01*
X1673435Y2897467D01*
X1674198Y2898160D01*
X1674961Y2898715D01*
X1675724Y2899270D01*
X1676486Y2899686D01*
X1678081Y2900379D01*
X1679537Y2900795D01*
X1680855Y2901073D01*
X1681410Y2901142D01*
X1681895Y2901211D01*
X1682242Y2901281D01*
X1695971D01*
X1696804Y2901142D01*
D02*
G37*
G36*
X1638834Y2901211D02*
X1639388Y2900934D01*
X1639804Y2900587D01*
X1640151Y2900241D01*
X1640429Y2899825D01*
X1640637Y2899478D01*
X1640706Y2899200D01*
X1640775Y2899131D01*
X1656447Y2852117D01*
X1656585Y2851562D01*
Y2851354D01*
Y2851285D01*
X1656447Y2850453D01*
X1656169Y2849829D01*
X1655753Y2849344D01*
X1655268Y2849066D01*
X1654782Y2848858D01*
X1654366Y2848789D01*
X1654089Y2848719D01*
X1653950D01*
X1653257Y2848789D01*
X1652771Y2848997D01*
X1652286Y2849274D01*
X1651939Y2849621D01*
X1651731Y2849898D01*
X1651593Y2850176D01*
X1651454Y2850384D01*
Y2850453D01*
X1647640Y2861825D01*
X1628710D01*
X1624896Y2850453D01*
X1624619Y2849898D01*
X1624272Y2849482D01*
X1623856Y2849136D01*
X1623440Y2848927D01*
X1623024Y2848789D01*
X1622677Y2848719D01*
X1622400D01*
X1621498Y2848858D01*
X1620874Y2849136D01*
X1620389Y2849552D01*
X1620111Y2850037D01*
X1619903Y2850453D01*
X1619834Y2850869D01*
X1619765Y2851146D01*
Y2851285D01*
Y2851632D01*
X1619834Y2851909D01*
X1619903Y2852048D01*
Y2852117D01*
X1635575Y2899200D01*
X1635852Y2899894D01*
X1636268Y2900379D01*
X1636684Y2900795D01*
X1637100Y2901003D01*
X1637516Y2901142D01*
X1637863Y2901281D01*
X1638140D01*
X1638834Y2901211D01*
D02*
G37*
G36*
X1607560Y2901142D02*
X1608184Y2900865D01*
X1608670Y2900449D01*
X1608947Y2899963D01*
X1609155Y2899478D01*
X1609225Y2899062D01*
X1609294Y2898784D01*
Y2898646D01*
X1609155Y2897744D01*
X1608878Y2897120D01*
X1608462Y2896635D01*
X1607976Y2896357D01*
X1607491Y2896149D01*
X1607075Y2896080D01*
X1606798Y2896011D01*
X1596119D01*
Y2851285D01*
X1595980Y2850453D01*
X1595703Y2849829D01*
X1595287Y2849344D01*
X1594801Y2849066D01*
X1594316Y2848858D01*
X1593900Y2848789D01*
X1593623Y2848719D01*
X1593484D01*
X1592583Y2848858D01*
X1591958Y2849136D01*
X1591473Y2849552D01*
X1591196Y2850037D01*
X1590988Y2850453D01*
X1590918Y2850869D01*
X1590849Y2851146D01*
Y2851285D01*
Y2896011D01*
X1580378D01*
X1579477Y2896149D01*
X1578853Y2896427D01*
X1578367Y2896843D01*
X1578090Y2897328D01*
X1577882Y2897814D01*
X1577813Y2898230D01*
X1577743Y2898507D01*
Y2898646D01*
X1577882Y2899547D01*
X1578159Y2900171D01*
X1578575Y2900657D01*
X1579061Y2900934D01*
X1579546Y2901142D01*
X1579962Y2901211D01*
X1580240Y2901281D01*
X1606659D01*
X1607560Y2901142D01*
D02*
G37*
G36*
X1749547Y331412D02*
X1750171Y331134D01*
X1750657Y330718D01*
X1750934Y330233D01*
X1751142Y329748D01*
X1751211Y329332D01*
X1751281Y329054D01*
Y328916D01*
X1751211Y328499D01*
X1751142Y328083D01*
X1750795Y327459D01*
X1750587Y327182D01*
X1750379Y326974D01*
X1750310Y326835D01*
X1750241Y326766D01*
X1739909Y316503D01*
X1739631Y316226D01*
X1739354Y316087D01*
X1738730Y315810D01*
X1738314Y315741D01*
X1738175D01*
X1738106D01*
X1737204Y315879D01*
X1736580Y316157D01*
X1736095Y316573D01*
X1735817Y317058D01*
X1735609Y317543D01*
X1735540Y317959D01*
X1735471Y318237D01*
Y318376D01*
X1735540Y318722D01*
X1735609Y319069D01*
X1735887Y319693D01*
X1736095Y320040D01*
X1736234Y320178D01*
X1742266Y326281D01*
X1701285D01*
X1700453Y326419D01*
X1699829Y326697D01*
X1699344Y327113D01*
X1699066Y327598D01*
X1698858Y328083D01*
X1698789Y328499D01*
X1698719Y328777D01*
Y328916D01*
X1698858Y329817D01*
X1699136Y330441D01*
X1699552Y330926D01*
X1700037Y331204D01*
X1700453Y331412D01*
X1700869Y331481D01*
X1701146Y331551D01*
X1701285D01*
X1748646D01*
X1749547Y331412D01*
D02*
G37*
G36*
Y305131D02*
X1750171Y304854D01*
X1750657Y304438D01*
X1750934Y303952D01*
X1751142Y303467D01*
X1751211Y303051D01*
X1751281Y302774D01*
Y302635D01*
X1751211Y302150D01*
X1751073Y301664D01*
X1750726Y300971D01*
X1750449Y300763D01*
X1750310Y300555D01*
X1750171Y300485D01*
X1750102Y300416D01*
X1729715Y286894D01*
X1750102Y273303D01*
X1750518Y272957D01*
X1750795Y272610D01*
X1751003Y272263D01*
X1751142Y271916D01*
X1751211Y271570D01*
X1751281Y271292D01*
Y271084D01*
X1751142Y270183D01*
X1750865Y269559D01*
X1750449Y269073D01*
X1749963Y268796D01*
X1749478Y268588D01*
X1749062Y268519D01*
X1748784Y268449D01*
X1748646D01*
X1748091Y268519D01*
X1747606Y268727D01*
X1747259Y268865D01*
X1747120Y268935D01*
X1725000Y283705D01*
X1702811Y268935D01*
X1702256Y268657D01*
X1701771Y268519D01*
X1701424Y268449D01*
X1701354D01*
X1701285D01*
X1700453Y268588D01*
X1699829Y268865D01*
X1699344Y269281D01*
X1699066Y269767D01*
X1698858Y270252D01*
X1698789Y270668D01*
X1698719Y270946D01*
Y271084D01*
X1698789Y271570D01*
X1698928Y272055D01*
X1699274Y272749D01*
X1699482Y272957D01*
X1699690Y273165D01*
X1699760Y273303D01*
X1699829D01*
X1720216Y286894D01*
X1699829Y300416D01*
X1699482Y300763D01*
X1699205Y301109D01*
X1698997Y301456D01*
X1698858Y301803D01*
X1698789Y302150D01*
X1698719Y302427D01*
Y302635D01*
X1698858Y303536D01*
X1699136Y304160D01*
X1699552Y304646D01*
X1700037Y304923D01*
X1700453Y305131D01*
X1700869Y305201D01*
X1701146Y305270D01*
X1701285D01*
X1701909Y305201D01*
X1702395Y305062D01*
X1702672Y304923D01*
X1702811Y304854D01*
X1725000Y290084D01*
X1747120Y304854D01*
X1747675Y305131D01*
X1748160Y305201D01*
X1748507Y305270D01*
X1748576D01*
X1748646D01*
X1749547Y305131D01*
D02*
G37*
%LPC*%
G36*
X976543Y2265432D02*
X944444D01*
Y2262963D01*
X934568D01*
Y2260494D01*
X927160D01*
Y2258025D01*
X919753D01*
Y2255556D01*
X914815D01*
Y2253086D01*
X907407D01*
Y2250617D01*
X904938D01*
Y2248148D01*
X902469D01*
Y2245679D01*
X895062D01*
Y2243210D01*
X892593D01*
Y2240741D01*
X890123D01*
Y2238272D01*
X887654D01*
Y2235802D01*
X882716D01*
Y2233333D01*
X880247D01*
Y2228395D01*
X875309D01*
Y2223457D01*
X872840D01*
Y2220988D01*
X870370D01*
Y2216049D01*
X867901D01*
Y2213580D01*
X865432D01*
Y2211111D01*
X862963D01*
Y2203704D01*
X860494D01*
Y2201235D01*
X858025D01*
Y2193827D01*
X855556D01*
Y2188889D01*
X853086D01*
Y2183951D01*
X850617D01*
Y2171605D01*
X848148D01*
Y2161728D01*
X845679D01*
Y2144445D01*
X848148D01*
Y2137037D01*
X850617D01*
Y2124691D01*
X853086D01*
Y2122222D01*
X855556D01*
Y2117284D01*
X858025D01*
Y2112346D01*
X860494D01*
Y2109876D01*
X862963D01*
Y2104938D01*
X865432D01*
Y2102469D01*
X867901D01*
Y2100000D01*
X872840D01*
Y2097531D01*
X875309D01*
Y2095062D01*
X877778D01*
Y2092592D01*
X904938D01*
Y2095062D01*
X907407D01*
Y2097531D01*
X909877D01*
Y2100000D01*
X912346D01*
Y2102469D01*
X914815D01*
Y2104938D01*
X917284D01*
Y2109876D01*
X919753D01*
Y2114815D01*
X922222D01*
Y2127160D01*
X924691D01*
Y2134568D01*
X927160D01*
Y2161728D01*
X929630D01*
Y2169136D01*
X932099D01*
Y2174074D01*
X934568D01*
Y2181482D01*
X937037D01*
Y2183951D01*
X939506D01*
Y2186420D01*
X941975D01*
Y2188889D01*
X944444D01*
Y2191358D01*
X946914D01*
Y2193827D01*
X956790D01*
Y2188889D01*
X959259D01*
Y2186420D01*
X961728D01*
Y2181482D01*
X964197D01*
Y2171605D01*
X966667D01*
Y2169136D01*
X969136D01*
Y2164198D01*
X971605D01*
Y2159259D01*
X974074D01*
Y2156790D01*
X976543D01*
Y2154321D01*
X981481D01*
Y2151852D01*
X1006173D01*
Y2154321D01*
X1011111D01*
Y2156790D01*
X1016049D01*
Y2159259D01*
X1023457D01*
Y2161728D01*
X1025926D01*
Y2164198D01*
X1028395D01*
Y2166667D01*
X1030864D01*
Y2169136D01*
X1033333D01*
Y2174074D01*
X1035802D01*
Y2181482D01*
X1038271D01*
Y2183951D01*
X1040741D01*
Y2203704D01*
X1038271D01*
Y2211111D01*
X1035802D01*
Y2220988D01*
X1033333D01*
Y2223457D01*
X1030864D01*
Y2225926D01*
X1028395D01*
Y2233333D01*
X1025926D01*
Y2235802D01*
X1023457D01*
Y2238272D01*
X1020988D01*
Y2240741D01*
X1018518D01*
Y2243210D01*
X1016049D01*
Y2245679D01*
X1013580D01*
Y2248148D01*
X1011111D01*
Y2250617D01*
X1008642D01*
Y2253086D01*
X1003704D01*
Y2255556D01*
X998765D01*
Y2258025D01*
X993827D01*
Y2260494D01*
X988889D01*
Y2262963D01*
X976543D01*
Y2265432D01*
D02*
G37*
G36*
X1418518Y2146914D02*
X1406173D01*
Y2144445D01*
X1391358D01*
Y2141975D01*
X1383950D01*
Y2139506D01*
X1376543D01*
Y2137037D01*
X1374074D01*
Y2134568D01*
X1369136D01*
Y2132099D01*
X1366667D01*
Y2129629D01*
X1361728D01*
Y2127160D01*
X1359259D01*
Y2124691D01*
X1356790D01*
Y2122222D01*
X1354321D01*
Y2119753D01*
X1351852D01*
Y2117284D01*
X1349383D01*
Y2112346D01*
X1346913D01*
Y2109876D01*
X1344444D01*
Y2102469D01*
X1341975D01*
Y2090123D01*
X1344444D01*
Y2082716D01*
X1346913D01*
Y2080247D01*
X1349383D01*
Y2075309D01*
X1401234D01*
Y2070370D01*
X1403704D01*
Y2062963D01*
X1406173D01*
Y2060494D01*
X1408642D01*
Y2053086D01*
X1411111D01*
Y2048148D01*
X1413580D01*
Y2038272D01*
X1411111D01*
Y2035802D01*
X1408642D01*
Y2033333D01*
X1406173D01*
Y2030864D01*
X1403704D01*
Y2025926D01*
X1401234D01*
Y2023457D01*
X1398765D01*
Y2020988D01*
X1396296D01*
Y2016049D01*
X1393827D01*
Y2011111D01*
X1396296D01*
Y2006173D01*
X1398765D01*
Y2001235D01*
X1401234D01*
Y1998765D01*
X1403704D01*
Y1996296D01*
X1406173D01*
Y1993827D01*
X1408642D01*
Y1991358D01*
X1418518D01*
Y1988889D01*
X1428395D01*
Y1991358D01*
X1438272D01*
Y1993827D01*
X1440741D01*
Y1996296D01*
X1443210D01*
Y1998765D01*
X1448148D01*
Y2001235D01*
X1450617D01*
Y2003704D01*
X1453087D01*
Y2006173D01*
X1455556D01*
Y2011111D01*
X1458025D01*
Y2013580D01*
X1460494D01*
Y2018518D01*
X1462963D01*
Y2020988D01*
X1465432D01*
Y2025926D01*
X1467901D01*
Y2033333D01*
X1470370D01*
Y2035802D01*
X1472840D01*
Y2045679D01*
X1475309D01*
Y2053086D01*
X1477778D01*
Y2097531D01*
X1475309D01*
Y2104938D01*
X1472840D01*
Y2109876D01*
X1470370D01*
Y2114815D01*
X1467901D01*
Y2119753D01*
X1465432D01*
Y2122222D01*
X1462963D01*
Y2124691D01*
X1460494D01*
Y2127160D01*
X1458025D01*
Y2129629D01*
X1455556D01*
Y2132099D01*
X1453087D01*
Y2134568D01*
X1448148D01*
Y2137037D01*
X1445679D01*
Y2139506D01*
X1440741D01*
Y2141975D01*
X1433333D01*
Y2144445D01*
X1418518D01*
Y2146914D01*
D02*
G37*
G36*
X1085185Y2122222D02*
X1065432D01*
Y2119753D01*
X1050617D01*
Y2117284D01*
X1035802D01*
Y2114815D01*
X1023457D01*
Y2112346D01*
X1018518D01*
Y2109876D01*
X1008642D01*
Y2107407D01*
X1006173D01*
Y2104938D01*
X998765D01*
Y2102469D01*
X996296D01*
Y2100000D01*
X993827D01*
Y2097531D01*
X988889D01*
Y2095062D01*
X986420D01*
Y2092592D01*
X981481D01*
Y2087654D01*
X976543D01*
Y2085185D01*
X974074D01*
Y2082716D01*
X971605D01*
Y2080247D01*
X969136D01*
Y2075309D01*
X966667D01*
Y2072839D01*
X964197D01*
Y2070370D01*
X961728D01*
Y2065432D01*
X959259D01*
Y2062963D01*
X956790D01*
Y2058025D01*
X954321D01*
Y2055555D01*
X951852D01*
Y2050617D01*
X949383D01*
Y2045679D01*
X946914D01*
Y2038272D01*
X944444D01*
Y2035802D01*
X941975D01*
Y2030864D01*
X939506D01*
Y2018518D01*
X937037D01*
Y2013580D01*
X934568D01*
Y1988889D01*
X932099D01*
Y1986420D01*
X934568D01*
Y1956790D01*
X937037D01*
Y1954321D01*
X939506D01*
Y1949383D01*
X941975D01*
Y1946914D01*
X944444D01*
Y1944444D01*
X946914D01*
Y1941975D01*
X949383D01*
Y1939506D01*
X956790D01*
Y1937037D01*
X961728D01*
Y1934568D01*
X969136D01*
Y1932099D01*
X993827D01*
Y1934568D01*
X1003704D01*
Y1937037D01*
X1008642D01*
Y1939506D01*
X1020988D01*
Y1941975D01*
X1025926D01*
Y1944444D01*
X1033333D01*
Y1946914D01*
X1040741D01*
Y1949383D01*
X1045679D01*
Y1951852D01*
X1053086D01*
Y1954321D01*
X1058025D01*
Y1956790D01*
X1067901D01*
Y1959259D01*
X1072839D01*
Y1961728D01*
X1087654D01*
Y1964197D01*
X1095062D01*
Y1966667D01*
X1109877D01*
Y1969136D01*
X1112346D01*
Y1966667D01*
X1114815D01*
Y1969136D01*
X1117284D01*
Y1966667D01*
X1129630D01*
Y1964197D01*
X1137037D01*
Y1961728D01*
X1146914D01*
Y1959259D01*
X1151852D01*
Y1956790D01*
X1156790D01*
Y1954321D01*
X1159259D01*
Y1951852D01*
X1164198D01*
Y1949383D01*
X1166667D01*
Y1946914D01*
X1169136D01*
Y1944444D01*
X1174074D01*
Y1941975D01*
X1176543D01*
Y1939506D01*
X1179012D01*
Y1937037D01*
X1181482D01*
Y1934568D01*
X1183951D01*
Y1932099D01*
X1186420D01*
Y1929630D01*
X1188889D01*
Y1922222D01*
X1191358D01*
Y1919753D01*
X1193827D01*
Y1907407D01*
X1196296D01*
Y1902469D01*
X1198765D01*
Y1897531D01*
X1201235D01*
Y1892593D01*
X1203704D01*
Y1887654D01*
X1206173D01*
Y1885185D01*
X1208642D01*
Y1880247D01*
X1211111D01*
Y1877778D01*
X1213580D01*
Y1875309D01*
X1216049D01*
Y1872840D01*
X1220988D01*
Y1870370D01*
X1223457D01*
Y1867901D01*
X1258025D01*
Y1870370D01*
X1260494D01*
Y1872840D01*
X1265432D01*
Y1875309D01*
X1267901D01*
Y1877778D01*
X1270370D01*
Y1880247D01*
X1272839D01*
Y1882716D01*
X1275309D01*
Y1885185D01*
X1277778D01*
Y1887654D01*
X1280247D01*
Y1890123D01*
X1282716D01*
Y1895062D01*
X1285185D01*
Y1897531D01*
X1287654D01*
Y1902469D01*
X1290123D01*
Y1912346D01*
X1292593D01*
Y1914815D01*
X1295062D01*
Y1937037D01*
X1297531D01*
Y1954321D01*
X1295062D01*
Y1979012D01*
X1292593D01*
Y1983951D01*
X1290123D01*
Y1993827D01*
X1287654D01*
Y1998765D01*
X1285185D01*
Y2003704D01*
X1282716D01*
Y2011111D01*
X1280247D01*
Y2013580D01*
X1277778D01*
Y2020988D01*
X1275309D01*
Y2023457D01*
X1272839D01*
Y2028395D01*
X1270370D01*
Y2033333D01*
X1267901D01*
Y2035802D01*
X1265432D01*
Y2038272D01*
X1262963D01*
Y2040741D01*
X1260494D01*
Y2045679D01*
X1258025D01*
Y2048148D01*
X1255556D01*
Y2050617D01*
X1253086D01*
Y2053086D01*
X1250617D01*
Y2055555D01*
X1248148D01*
Y2058025D01*
X1243210D01*
Y2060494D01*
X1240741D01*
Y2062963D01*
X1238272D01*
Y2065432D01*
X1235802D01*
Y2067901D01*
X1233333D01*
Y2070370D01*
X1228395D01*
Y2072839D01*
X1223457D01*
Y2075309D01*
X1220988D01*
Y2077778D01*
X1216049D01*
Y2080247D01*
X1211111D01*
Y2082716D01*
X1208642D01*
Y2085185D01*
X1203704D01*
Y2087654D01*
X1198765D01*
Y2090123D01*
X1196296D01*
Y2092592D01*
X1186420D01*
Y2095062D01*
X1183951D01*
Y2097531D01*
X1179012D01*
Y2100000D01*
X1169136D01*
Y2102469D01*
X1166667D01*
Y2104938D01*
X1156790D01*
Y2107407D01*
X1149383D01*
Y2109876D01*
X1139506D01*
Y2112346D01*
X1132099D01*
Y2114815D01*
X1117284D01*
Y2117284D01*
X1100000D01*
Y2119753D01*
X1085185D01*
Y2122222D01*
D02*
G37*
G36*
X1112346Y1949383D02*
X1082716D01*
Y1946914D01*
X1072839D01*
Y1944444D01*
X1062963D01*
Y1941975D01*
X1058025D01*
Y1939506D01*
X1048148D01*
Y1937037D01*
X1045679D01*
Y1934568D01*
X1040741D01*
Y1929630D01*
X1038271D01*
Y1927160D01*
X1035802D01*
Y1892593D01*
X1038271D01*
Y1887654D01*
X1040741D01*
Y1882716D01*
X1043210D01*
Y1880247D01*
X1045679D01*
Y1877778D01*
X1048148D01*
Y1875309D01*
X1050617D01*
Y1872840D01*
X1053086D01*
Y1870370D01*
X1055555D01*
Y1867901D01*
X1060494D01*
Y1865432D01*
X1065432D01*
Y1862963D01*
X1070370D01*
Y1860494D01*
X1075308D01*
Y1858025D01*
X1082716D01*
Y1855556D01*
X1092592D01*
Y1853086D01*
X1100000D01*
Y1850617D01*
X1156790D01*
Y1853086D01*
X1159259D01*
Y1855556D01*
X1166667D01*
Y1858025D01*
X1171605D01*
Y1860494D01*
X1174074D01*
Y1862963D01*
X1176543D01*
Y1865432D01*
X1179012D01*
Y1870370D01*
X1181482D01*
Y1877778D01*
X1183951D01*
Y1885185D01*
X1181482D01*
Y1897531D01*
X1179012D01*
Y1902469D01*
X1176543D01*
Y1907407D01*
X1174074D01*
Y1909877D01*
X1171605D01*
Y1914815D01*
X1169136D01*
Y1917284D01*
X1166667D01*
Y1919753D01*
X1164198D01*
Y1922222D01*
X1161728D01*
Y1924691D01*
X1159259D01*
Y1927160D01*
X1156790D01*
Y1929630D01*
X1154321D01*
Y1932099D01*
X1149383D01*
Y1934568D01*
X1146914D01*
Y1937037D01*
X1141975D01*
Y1939506D01*
X1134568D01*
Y1941975D01*
X1132099D01*
Y1944444D01*
X1119753D01*
Y1946914D01*
X1112346D01*
Y1949383D01*
D02*
G37*
G36*
X1082716Y1813580D02*
X1067901D01*
Y1811111D01*
X1065432D01*
Y1808642D01*
X1060494D01*
Y1806173D01*
X1058025D01*
Y1801235D01*
X1060494D01*
Y1798765D01*
X1080247D01*
Y1796296D01*
X1100000D01*
Y1803704D01*
X1095062D01*
Y1806173D01*
X1092592D01*
Y1808642D01*
X1087654D01*
Y1811111D01*
X1082716D01*
Y1813580D01*
D02*
G37*
G36*
X786420Y1855556D02*
X779012D01*
Y1853086D01*
X774074D01*
Y1850617D01*
X766667D01*
Y1848148D01*
X764198D01*
Y1845679D01*
X759259D01*
Y1843210D01*
X754321D01*
Y1840741D01*
X749383D01*
Y1838272D01*
X744444D01*
Y1835803D01*
X739506D01*
Y1833333D01*
X734568D01*
Y1830864D01*
X732099D01*
Y1828395D01*
X727160D01*
Y1825926D01*
X724691D01*
Y1823457D01*
X722222D01*
Y1820988D01*
X717284D01*
Y1818519D01*
X714815D01*
Y1816049D01*
X712346D01*
Y1813580D01*
X709876D01*
Y1808642D01*
X707407D01*
Y1806173D01*
X704938D01*
Y1803704D01*
X702469D01*
Y1796296D01*
X700000D01*
Y1793827D01*
X697531D01*
Y1786420D01*
X695062D01*
Y1781481D01*
X692592D01*
Y1776543D01*
X690123D01*
Y1766667D01*
X687654D01*
Y1759259D01*
X685185D01*
Y1746913D01*
X682716D01*
Y1739506D01*
X680247D01*
Y1704938D01*
X677778D01*
Y1653086D01*
X680247D01*
Y1628395D01*
X682716D01*
Y1623457D01*
X685185D01*
Y1616049D01*
X687654D01*
Y1613580D01*
X690123D01*
Y1611111D01*
X692592D01*
Y1608642D01*
X695062D01*
Y1606173D01*
X697531D01*
Y1601235D01*
X702469D01*
Y1596296D01*
X704938D01*
Y1593827D01*
X709876D01*
Y1596296D01*
X712346D01*
Y1598765D01*
X714815D01*
Y1601235D01*
X722222D01*
Y1598765D01*
X729629D01*
Y1601235D01*
X746913D01*
Y1598765D01*
X749383D01*
Y1596296D01*
X756790D01*
Y1601235D01*
X754321D01*
Y1606173D01*
X756790D01*
Y1608642D01*
X761728D01*
Y1611111D01*
X769136D01*
Y1613580D01*
X779012D01*
Y1611111D01*
X781482D01*
Y1606173D01*
X783951D01*
Y1601235D01*
X786420D01*
Y1598765D01*
X788889D01*
Y1596296D01*
X791358D01*
Y1591358D01*
X793827D01*
Y1588889D01*
X796296D01*
Y1583951D01*
X798765D01*
Y1581481D01*
X801235D01*
Y1576543D01*
X803704D01*
Y1574074D01*
X806173D01*
Y1571605D01*
X808642D01*
Y1569136D01*
X811111D01*
Y1564198D01*
X813580D01*
Y1561728D01*
X816049D01*
Y1556790D01*
X818519D01*
Y1554321D01*
X820988D01*
Y1551852D01*
X823457D01*
Y1546914D01*
X825926D01*
Y1544444D01*
X828395D01*
Y1541975D01*
X830864D01*
Y1537037D01*
X833333D01*
Y1534568D01*
X835802D01*
Y1532099D01*
X838272D01*
Y1527161D01*
X840741D01*
Y1524691D01*
X843210D01*
Y1522222D01*
X845679D01*
Y1517284D01*
X848148D01*
Y1514815D01*
X850617D01*
Y1509877D01*
X853086D01*
Y1507407D01*
X855556D01*
Y1504938D01*
X858025D01*
Y1500000D01*
X860494D01*
Y1497531D01*
X862963D01*
Y1490124D01*
X865432D01*
Y1487654D01*
X867901D01*
Y1482716D01*
X870370D01*
Y1475309D01*
X872840D01*
Y1470370D01*
X875309D01*
Y1443210D01*
X877778D01*
Y1433333D01*
X880247D01*
Y1416049D01*
X882716D01*
Y1406173D01*
X885185D01*
Y1401234D01*
X887654D01*
Y1391358D01*
X890123D01*
Y1386420D01*
X892593D01*
Y1379012D01*
X895062D01*
Y1376543D01*
X897531D01*
Y1369136D01*
X900000D01*
Y1366667D01*
X902469D01*
Y1364197D01*
X904938D01*
Y1359259D01*
X907407D01*
Y1356790D01*
X909877D01*
Y1354321D01*
X912346D01*
Y1351852D01*
X917284D01*
Y1349383D01*
X919753D01*
Y1346913D01*
X924691D01*
Y1344444D01*
X927160D01*
Y1341975D01*
X932099D01*
Y1339506D01*
X934568D01*
Y1337037D01*
X937037D01*
Y1334568D01*
X939506D01*
Y1332099D01*
X941975D01*
Y1329630D01*
X946914D01*
Y1332099D01*
X949383D01*
Y1334568D01*
X959259D01*
Y1337037D01*
X983951D01*
Y1334568D01*
X991358D01*
Y1339506D01*
X993827D01*
Y1346913D01*
X998765D01*
Y1349383D01*
X1003704D01*
Y1351852D01*
X1008642D01*
Y1354321D01*
X1016049D01*
Y1356790D01*
X1018518D01*
Y1359259D01*
X1025926D01*
Y1361728D01*
X1030864D01*
Y1364197D01*
X1038271D01*
Y1361728D01*
X1040741D01*
Y1359259D01*
X1043210D01*
Y1356790D01*
X1045679D01*
Y1354321D01*
X1048148D01*
Y1351852D01*
X1050617D01*
Y1349383D01*
X1053086D01*
Y1346913D01*
X1055555D01*
Y1341975D01*
X1058025D01*
Y1337037D01*
X1097531D01*
Y1334568D01*
X1104938D01*
Y1332099D01*
X1107407D01*
Y1329630D01*
X1109877D01*
Y1332099D01*
X1112346D01*
Y1337037D01*
X1114815D01*
Y1339506D01*
X1117284D01*
Y1341975D01*
X1119753D01*
Y1344444D01*
X1124691D01*
Y1346913D01*
X1129630D01*
Y1349383D01*
X1132099D01*
Y1351852D01*
X1137037D01*
Y1354321D01*
X1141975D01*
Y1356790D01*
X1144444D01*
Y1359259D01*
X1146914D01*
Y1361728D01*
X1149383D01*
Y1364197D01*
X1151852D01*
Y1366667D01*
X1154321D01*
Y1369136D01*
X1156790D01*
Y1371605D01*
X1159259D01*
Y1376543D01*
X1161728D01*
Y1379012D01*
X1164198D01*
Y1388889D01*
X1166667D01*
Y1393827D01*
X1169136D01*
Y1401234D01*
X1171605D01*
Y1467901D01*
X1169136D01*
Y1470370D01*
X1137037D01*
Y1467901D01*
X1117284D01*
Y1465432D01*
X1020988D01*
Y1467901D01*
X1006173D01*
Y1470370D01*
X974074D01*
Y1472840D01*
X959259D01*
Y1475309D01*
X951852D01*
Y1477778D01*
X924691D01*
Y1480247D01*
X917284D01*
Y1482716D01*
X904938D01*
Y1485185D01*
X897531D01*
Y1487654D01*
X895062D01*
Y1490124D01*
X890123D01*
Y1492593D01*
X887654D01*
Y1495062D01*
X885185D01*
Y1497531D01*
X882716D01*
Y1500000D01*
X880247D01*
Y1502469D01*
X877778D01*
Y1504938D01*
X875309D01*
Y1509877D01*
X872840D01*
Y1512346D01*
X870370D01*
Y1514815D01*
X867901D01*
Y1519753D01*
X865432D01*
Y1522222D01*
X862963D01*
Y1529630D01*
X860494D01*
Y1532099D01*
X858025D01*
Y1537037D01*
X855556D01*
Y1544444D01*
X853086D01*
Y1549383D01*
X850617D01*
Y1559259D01*
X848148D01*
Y1564198D01*
X845679D01*
Y1593827D01*
X848148D01*
Y1598765D01*
X850617D01*
Y1606173D01*
X853086D01*
Y1608642D01*
X855556D01*
Y1613580D01*
X858025D01*
Y1616049D01*
X860494D01*
Y1618518D01*
X862963D01*
Y1620988D01*
X865432D01*
Y1623457D01*
X867901D01*
Y1625926D01*
X872840D01*
Y1628395D01*
X875309D01*
Y1630864D01*
X880247D01*
Y1633333D01*
X885185D01*
Y1635802D01*
X887654D01*
Y1638272D01*
X897531D01*
Y1640741D01*
X902469D01*
Y1643210D01*
X912346D01*
Y1645679D01*
X919753D01*
Y1648148D01*
X934568D01*
Y1650617D01*
X944444D01*
Y1653086D01*
X961728D01*
Y1655555D01*
X1097531D01*
Y1653086D01*
X1117284D01*
Y1650617D01*
X1139506D01*
Y1648148D01*
X1161728D01*
Y1645679D01*
X1176543D01*
Y1643210D01*
X1198765D01*
Y1640741D01*
X1206173D01*
Y1638272D01*
X1228395D01*
Y1635802D01*
X1238272D01*
Y1633333D01*
X1245679D01*
Y1630864D01*
X1265432D01*
Y1628395D01*
X1270370D01*
Y1625926D01*
X1287654D01*
Y1623457D01*
X1295062D01*
Y1620988D01*
X1302469D01*
Y1618518D01*
X1314815D01*
Y1616049D01*
X1322222D01*
Y1613580D01*
X1332099D01*
Y1611111D01*
X1337037D01*
Y1608642D01*
X1346913D01*
Y1606173D01*
X1349383D01*
Y1603704D01*
X1354321D01*
Y1601235D01*
X1359259D01*
Y1596296D01*
X1361728D01*
Y1591358D01*
X1364197D01*
Y1588889D01*
X1366667D01*
Y1581481D01*
X1369136D01*
Y1579012D01*
X1371605D01*
Y1576543D01*
X1374074D01*
Y1571605D01*
X1376543D01*
Y1569136D01*
X1379012D01*
Y1566667D01*
X1381481D01*
Y1564198D01*
X1383950D01*
Y1561728D01*
X1386420D01*
Y1559259D01*
X1388889D01*
Y1556790D01*
X1391358D01*
Y1549383D01*
X1393827D01*
Y1546914D01*
X1396296D01*
Y1539506D01*
X1401234D01*
Y1544444D01*
X1403704D01*
Y1549383D01*
X1406173D01*
Y1551852D01*
X1411111D01*
Y1554321D01*
X1418518D01*
Y1551852D01*
X1420988D01*
Y1549383D01*
X1425926D01*
Y1564198D01*
X1428395D01*
Y1566667D01*
X1435803D01*
Y1564198D01*
X1438272D01*
Y1561728D01*
X1443210D01*
Y1576543D01*
X1445679D01*
Y1586420D01*
X1448148D01*
Y1596296D01*
X1450617D01*
Y1603704D01*
X1453087D01*
Y1606173D01*
X1455556D01*
Y1618518D01*
X1458025D01*
Y1623457D01*
X1460494D01*
Y1638272D01*
X1462963D01*
Y1672839D01*
X1460494D01*
Y1690123D01*
X1458025D01*
Y1692592D01*
X1455556D01*
Y1707407D01*
X1453087D01*
Y1709876D01*
X1450617D01*
Y1717284D01*
X1448148D01*
Y1724691D01*
X1445679D01*
Y1727160D01*
X1443210D01*
Y1732099D01*
X1440741D01*
Y1737037D01*
X1438272D01*
Y1741975D01*
X1435803D01*
Y1744444D01*
X1433333D01*
Y1746913D01*
X1430864D01*
Y1751852D01*
X1428395D01*
Y1754321D01*
X1425926D01*
Y1756790D01*
X1423457D01*
Y1759259D01*
X1420988D01*
Y1761728D01*
X1418518D01*
Y1764197D01*
X1416049D01*
Y1766667D01*
X1413580D01*
Y1769136D01*
X1411111D01*
Y1771605D01*
X1406173D01*
Y1774074D01*
X1403704D01*
Y1776543D01*
X1401234D01*
Y1779012D01*
X1396296D01*
Y1781481D01*
X1391358D01*
Y1783950D01*
X1386420D01*
Y1786420D01*
X1381481D01*
Y1788889D01*
X1376543D01*
Y1791358D01*
X1369136D01*
Y1788889D01*
X1366667D01*
Y1786420D01*
X1364197D01*
Y1783950D01*
X1361728D01*
Y1781481D01*
X1359259D01*
Y1776543D01*
X1356790D01*
Y1774074D01*
X1354321D01*
Y1771605D01*
X1351852D01*
Y1769136D01*
X1349383D01*
Y1766667D01*
X1346913D01*
Y1764197D01*
X1341975D01*
Y1761728D01*
X1334568D01*
Y1759259D01*
X1332099D01*
Y1756790D01*
X1319753D01*
Y1754321D01*
X1312346D01*
Y1751852D01*
X1307407D01*
Y1749383D01*
X1290123D01*
Y1746913D01*
X1282716D01*
Y1744444D01*
X1265432D01*
Y1741975D01*
X1240741D01*
Y1739506D01*
X1144444D01*
Y1741975D01*
X1117284D01*
Y1744444D01*
X1095062D01*
Y1746913D01*
X1087654D01*
Y1749383D01*
X1065432D01*
Y1751852D01*
X1058025D01*
Y1754321D01*
X1045679D01*
Y1756790D01*
X1033333D01*
Y1759259D01*
X1028395D01*
Y1761728D01*
X1011111D01*
Y1764197D01*
X1006173D01*
Y1766667D01*
X996296D01*
Y1769136D01*
X988889D01*
Y1771605D01*
X981481D01*
Y1774074D01*
X971605D01*
Y1776543D01*
X966667D01*
Y1779012D01*
X954321D01*
Y1781481D01*
X951852D01*
Y1783950D01*
X944444D01*
Y1786420D01*
X937037D01*
Y1788889D01*
X932099D01*
Y1791358D01*
X922222D01*
Y1793827D01*
X917284D01*
Y1796296D01*
X909877D01*
Y1798765D01*
X904938D01*
Y1801235D01*
X897531D01*
Y1803704D01*
X892593D01*
Y1806173D01*
X887654D01*
Y1808642D01*
X880247D01*
Y1811111D01*
X877778D01*
Y1813580D01*
X867901D01*
Y1816049D01*
X862963D01*
Y1818519D01*
X860494D01*
Y1820988D01*
X853086D01*
Y1823457D01*
X848148D01*
Y1825926D01*
X840741D01*
Y1828395D01*
X835802D01*
Y1830864D01*
X830864D01*
Y1833333D01*
X825926D01*
Y1835803D01*
X820988D01*
Y1838272D01*
X816049D01*
Y1840741D01*
X811111D01*
Y1843210D01*
X803704D01*
Y1845679D01*
X798765D01*
Y1848148D01*
X796296D01*
Y1850617D01*
X788889D01*
Y1853086D01*
X786420D01*
Y1855556D01*
D02*
G37*
%LPD*%
G36*
X1045679Y2035802D02*
X1050617D01*
Y2033333D01*
X1058025D01*
Y2028395D01*
X1060494D01*
Y2025926D01*
X1062963D01*
Y2023457D01*
X1065432D01*
Y2020988D01*
Y2018518D01*
Y1988889D01*
X1062963D01*
Y1981481D01*
X1060494D01*
Y1979012D01*
X1058025D01*
Y1971605D01*
X1055555D01*
Y1969136D01*
X1053086D01*
Y1966667D01*
X1050617D01*
Y1964197D01*
X1048148D01*
Y1961728D01*
X1045679D01*
Y1959259D01*
X1043210D01*
Y1956790D01*
X1035802D01*
Y1954321D01*
X1018518D01*
Y1956790D01*
X1011111D01*
Y1959259D01*
X1008642D01*
Y1961728D01*
X1006173D01*
Y1964197D01*
X1003704D01*
Y1966667D01*
X1001234D01*
Y1969136D01*
X998765D01*
Y1976543D01*
X996296D01*
Y1979012D01*
X993827D01*
Y2008642D01*
X996296D01*
Y2013580D01*
X998765D01*
Y2020988D01*
X1001234D01*
Y2023457D01*
X1003704D01*
Y2025926D01*
X1006173D01*
Y2028395D01*
X1011111D01*
Y2033333D01*
X1018518D01*
Y2035802D01*
X1023457D01*
Y2038272D01*
X1045679D01*
Y2035802D01*
D02*
G37*
G36*
X1233333Y1993827D02*
X1238272D01*
Y1991358D01*
X1243210D01*
Y1988889D01*
X1248148D01*
Y1986420D01*
X1250617D01*
Y1983951D01*
X1253086D01*
Y1979012D01*
X1255556D01*
Y1959259D01*
X1253086D01*
Y1946914D01*
X1250617D01*
Y1944444D01*
X1248148D01*
Y1937037D01*
X1245679D01*
Y1934568D01*
X1243210D01*
Y1932099D01*
X1240741D01*
Y1929630D01*
X1238272D01*
Y1927160D01*
X1235802D01*
Y1924691D01*
X1230864D01*
Y1922222D01*
X1225926D01*
Y1919753D01*
X1218519D01*
Y1917284D01*
X1213580D01*
Y1919753D01*
X1206173D01*
Y1922222D01*
X1201235D01*
Y1924691D01*
X1198765D01*
Y1927160D01*
X1196296D01*
Y1932099D01*
X1193827D01*
Y1944444D01*
X1191358D01*
Y1964197D01*
X1193827D01*
Y1983951D01*
X1196296D01*
Y1988889D01*
X1201235D01*
Y1991358D01*
X1208642D01*
Y1993827D01*
X1216049D01*
Y1996296D01*
X1233333D01*
Y1993827D01*
D02*
G37*
%LPC*%
G36*
X1030864Y2008642D02*
X1023457D01*
Y2006173D01*
X1018518D01*
Y2003704D01*
X1013580D01*
Y1998765D01*
X1011111D01*
Y1983951D01*
X1013580D01*
Y1981481D01*
X1018518D01*
Y1979012D01*
X1033333D01*
Y1981481D01*
X1035802D01*
Y1983951D01*
X1038271D01*
Y1986420D01*
X1040741D01*
Y2001235D01*
X1038271D01*
Y2003704D01*
X1033333D01*
Y2006173D01*
X1030864D01*
Y2008642D01*
D02*
G37*
G36*
X1220988Y1974074D02*
X1213580D01*
Y1971605D01*
X1211111D01*
Y1969136D01*
X1206173D01*
Y1966667D01*
X1203704D01*
Y1964197D01*
X1201235D01*
Y1954321D01*
X1203704D01*
Y1951852D01*
X1206173D01*
Y1949383D01*
X1208642D01*
Y1946914D01*
X1211111D01*
Y1944444D01*
X1223457D01*
Y1946914D01*
X1228395D01*
Y1949383D01*
X1230864D01*
Y1954321D01*
X1233333D01*
Y1961728D01*
X1230864D01*
Y1966667D01*
X1228395D01*
Y1969136D01*
X1223457D01*
Y1971605D01*
X1220988D01*
Y1974074D01*
D02*
G37*
G36*
X1693267Y2896011D02*
X1682796D01*
X1681618Y2895941D01*
X1680578Y2895664D01*
X1679607Y2895248D01*
X1678775Y2894832D01*
X1678151Y2894416D01*
X1677665Y2894000D01*
X1677318Y2893722D01*
X1677249Y2893653D01*
X1676486Y2892752D01*
X1675862Y2891850D01*
X1675446Y2890879D01*
X1675169Y2890047D01*
X1675030Y2889285D01*
X1674891Y2888660D01*
Y2888244D01*
Y2888175D01*
Y2888106D01*
X1674961Y2886927D01*
X1675238Y2885887D01*
X1675654Y2884916D01*
X1676070Y2884084D01*
X1676486Y2883460D01*
X1676902Y2882974D01*
X1677180Y2882697D01*
X1677249Y2882558D01*
X1678151Y2881796D01*
X1679052Y2881241D01*
X1680023Y2880825D01*
X1680855Y2880547D01*
X1681618Y2880409D01*
X1682242Y2880339D01*
X1682658Y2880270D01*
X1693267D01*
Y2896011D01*
D02*
G37*
G36*
Y2875000D02*
X1681964D01*
X1681202Y2874861D01*
X1679745Y2874515D01*
X1678497Y2874029D01*
X1677388Y2873475D01*
X1676486Y2872920D01*
X1675862Y2872434D01*
X1675446Y2872088D01*
X1675308Y2872018D01*
Y2871949D01*
X1674753Y2871394D01*
X1674267Y2870770D01*
X1673574Y2869522D01*
X1673019Y2868274D01*
X1672603Y2867095D01*
X1672395Y2866055D01*
X1672326Y2865570D01*
Y2865223D01*
X1672256Y2864876D01*
Y2864668D01*
Y2864529D01*
Y2864460D01*
Y2863628D01*
X1672395Y2862865D01*
X1672742Y2861409D01*
X1673227Y2860161D01*
X1673782Y2859051D01*
X1674337Y2858150D01*
X1674822Y2857526D01*
X1675169Y2857110D01*
X1675238Y2857041D01*
X1675308Y2856971D01*
X1675862Y2856416D01*
X1676486Y2856000D01*
X1677735Y2855238D01*
X1678983Y2854752D01*
X1680161Y2854336D01*
X1681202Y2854128D01*
X1681687Y2854059D01*
X1682034D01*
X1682380Y2853989D01*
X1693267D01*
Y2875000D01*
D02*
G37*
G36*
X1638140Y2890255D02*
X1630443Y2867095D01*
X1645907D01*
X1638140Y2890255D01*
D02*
G37*
%LPD*%
D48*
X1317000Y270000D02*
X1425000D01*
Y635500D01*
X725000Y270000D02*
X833000D01*
X725000D02*
Y635500D01*
Y3130000D02*
X833000D01*
X725000Y2764500D02*
Y3130000D01*
X1317000D02*
X1425000D01*
Y2764500D02*
Y3130000D01*
X1875000Y916500D02*
Y2483500D01*
X275000Y916500D02*
Y2483500D01*
X1425000Y635500D02*
X1443112Y641910D01*
X1477435Y654210D01*
X1503654Y664990D01*
X1528807Y675760D01*
X1568713Y694170D01*
X1603181Y712018D01*
X1634381Y729952D01*
X1664166Y747609D01*
X1718622Y783165D01*
X1755887Y810293D01*
X1802740Y848418D01*
X1857036Y897782D01*
X1875000Y916160D01*
X706888Y2758090D02*
X725000Y2764500D01*
X672565Y2745790D02*
X706888Y2758090D01*
X646346Y2735010D02*
X672565Y2745790D01*
X621193Y2724240D02*
X646346Y2735010D01*
X581287Y2705830D02*
X621193Y2724240D01*
X546819Y2687982D02*
X581287Y2705830D01*
X515619Y2670048D02*
X546819Y2687982D01*
X485834Y2652391D02*
X515619Y2670048D01*
X431378Y2616835D02*
X485834Y2652391D01*
X394113Y2589707D02*
X431378Y2616835D01*
X347260Y2551582D02*
X394113Y2589707D01*
X292964Y2502218D02*
X347260Y2551582D01*
X275000Y2483840D02*
X292964Y2502218D01*
X1425000Y2764500D02*
X1443112Y2758090D01*
X1477435Y2745790D01*
X1503654Y2735010D01*
X1528807Y2724240D01*
X1568713Y2705830D01*
X1603181Y2687982D01*
X1634381Y2670048D01*
X1664166Y2652391D01*
X1718622Y2616835D01*
X1755887Y2589707D01*
X1802740Y2551582D01*
X1857036Y2502218D01*
X1875000Y2483840D01*
X706888Y641910D02*
X725000Y635500D01*
X672565Y654210D02*
X706888Y641910D01*
X646346Y664990D02*
X672565Y654210D01*
X621193Y675760D02*
X646346Y664990D01*
X581287Y694170D02*
X621193Y675760D01*
X546819Y712018D02*
X581287Y694170D01*
X515619Y729952D02*
X546819Y712018D01*
X485834Y747609D02*
X515619Y729952D01*
X431378Y783165D02*
X485834Y747609D01*
X394113Y810293D02*
X431378Y783165D01*
X347260Y848418D02*
X394113Y810293D01*
X292964Y897782D02*
X347260Y848418D01*
X275000Y916160D02*
X292964Y897782D01*
X1798000Y554000D02*
X2052000D01*
X1798000Y46000D02*
Y554000D01*
Y46000D02*
X2052000D01*
Y554000D01*
X1925000Y427000D02*
Y554000D01*
Y427000D02*
X2052000Y427000D01*
%TF.MD5,4d9ae0686ab1066915cac3fb2f5ffda0*%
M02*
