%TF.GenerationSoftware,Altium Limited,Altium Designer,22.11.1 (43)*%
G04 Layer_Color=0*
%FSLAX45Y45*%
%MOMM*%
%TF.SameCoordinates,77F1110F-2A09-4361-93A5-D97A60E4CA06*%
%TF.FilePolarity,Positive*%
%TF.FileFunction,Plated,1,6,PTH,Drill*%
%TF.Part,Single*%
G01*
G75*
%TA.AperFunction,ViaDrill,NotFilled*%
%ADD46C,0.35000*%
D46*
X1861500Y490500D02*
D03*
X925000Y3125000D02*
D03*
Y3275000D02*
D03*
X1075000Y275000D02*
D03*
Y125000D02*
D03*
X925000Y275000D02*
D03*
X1000000Y200000D02*
D03*
X925000Y125000D02*
D03*
X1000000Y3200000D02*
D03*
X1075000Y3125000D02*
D03*
Y3275000D02*
D03*
X925000Y2100000D02*
D03*
X1750000Y275000D02*
D03*
X1675000Y500000D02*
D03*
X2070000Y950000D02*
D03*
X1500000Y1300000D02*
D03*
Y1500000D02*
D03*
X1025000Y2625000D02*
D03*
X650000D02*
D03*
X800000Y3050000D02*
D03*
X1465000Y2925000D02*
D03*
Y3025000D02*
D03*
Y3125000D02*
D03*
Y3225000D02*
D03*
Y3425000D02*
D03*
X1025000Y2925000D02*
D03*
X900000Y2450000D02*
D03*
X825000Y2225000D02*
D03*
X687690Y2206090D02*
D03*
X1150000Y2625000D02*
D03*
X1050455Y999545D02*
D03*
X1071426Y1216814D02*
D03*
X1325000Y1125000D02*
D03*
Y1000000D02*
D03*
X1500000Y1200000D02*
D03*
X2070000Y760000D02*
D03*
X1025000Y2100000D02*
D03*
X85000Y540500D02*
D03*
Y413500D02*
D03*
X1575000Y2815000D02*
D03*
X1435393Y2007548D02*
D03*
X1368100Y1933578D02*
D03*
X375000Y1775000D02*
D03*
X525000Y1500000D02*
D03*
X524243Y1398917D02*
D03*
X417626Y1017626D02*
D03*
X1239294Y2109293D02*
D03*
X1348604Y1417785D02*
D03*
X1365400Y1319206D02*
D03*
X1332700Y1224703D02*
D03*
X765000Y413500D02*
D03*
Y286500D02*
D03*
Y159500D02*
D03*
X85000D02*
D03*
Y286500D02*
D03*
X895653Y1214053D02*
D03*
X1002700Y1289455D02*
D03*
X1140000Y1289600D02*
D03*
X807300Y1290000D02*
D03*
X691688Y1287700D02*
D03*
X570000Y1310000D02*
D03*
X625000Y1400000D02*
D03*
X1465000Y3325000D02*
D03*
X1675000Y2815000D02*
D03*
X1775000D02*
D03*
X1025000Y2225000D02*
D03*
X1988500Y363500D02*
D03*
X550000Y475000D02*
D03*
X300000D02*
D03*
Y225000D02*
D03*
X550000D02*
D03*
X425000D02*
D03*
Y475000D02*
D03*
X300000Y350000D02*
D03*
X550000D02*
D03*
X425000D02*
D03*
X1988500Y109500D02*
D03*
X1861500D02*
D03*
Y236500D02*
D03*
X1988500D02*
D03*
X1861500Y363500D02*
D03*
X1988500Y490500D02*
D03*
X1925000Y750000D02*
D03*
X1500000Y475000D02*
D03*
X150000Y2125000D02*
D03*
X375000Y2025000D02*
D03*
X130000Y1150000D02*
D03*
Y800000D02*
D03*
X480000D02*
D03*
X650000Y925000D02*
D03*
X300000D02*
D03*
Y1275000D02*
D03*
X75000Y1400000D02*
D03*
Y1525000D02*
D03*
X1350000Y200000D02*
D03*
X525000Y2925000D02*
D03*
X660000Y2110000D02*
D03*
X778557Y2127342D02*
D03*
X692500Y3332500D02*
D03*
X217500Y2992500D02*
D03*
X1100000Y3427144D02*
D03*
X1025000Y2525000D02*
D03*
X1150000Y2225000D02*
D03*
Y2525000D02*
D03*
X700000D02*
D03*
X1400000Y2625000D02*
D03*
X1275000Y2625000D02*
D03*
X400000D02*
D03*
X525000D02*
D03*
X1075000Y1550000D02*
D03*
X925000D02*
D03*
X775000D02*
D03*
Y1700000D02*
D03*
Y1850000D02*
D03*
X925000D02*
D03*
X1075000D02*
D03*
Y1700000D02*
D03*
X925000D02*
D03*
X670000Y800000D02*
D03*
X320000D02*
D03*
Y1150000D02*
D03*
X1350000Y700000D02*
D03*
Y800000D02*
D03*
X1275000Y2225000D02*
D03*
X600000Y1200000D02*
D03*
X825000Y600000D02*
D03*
X692500Y3067500D02*
D03*
X357500Y3332500D02*
D03*
Y3067500D02*
D03*
X375000Y1900000D02*
D03*
X75000Y1775000D02*
D03*
X600000Y1050000D02*
D03*
X1675000Y125000D02*
D03*
X825000Y900000D02*
D03*
X850000Y475000D02*
D03*
X1200000D02*
D03*
X1750000Y600000D02*
D03*
X1625000D02*
D03*
X1407500Y2250000D02*
D03*
X1675000Y2525000D02*
D03*
X575000D02*
D03*
X75000Y1650000D02*
D03*
X175000Y2525000D02*
D03*
X1475000Y1825000D02*
D03*
X1869395Y1628950D02*
D03*
X1962979Y1664193D02*
D03*
X2035361Y1733192D02*
D03*
X2075000Y1825000D02*
D03*
X2075000Y2725000D02*
D03*
X2075000Y2815000D02*
D03*
X1875000D02*
D03*
Y2725000D02*
D03*
X2075000Y2325000D02*
D03*
Y2425000D02*
D03*
Y2625000D02*
D03*
Y2525000D02*
D03*
X1875000D02*
D03*
Y2625000D02*
D03*
Y2425000D02*
D03*
Y2325000D02*
D03*
X2075000Y1925000D02*
D03*
Y2025000D02*
D03*
Y2225000D02*
D03*
Y2125000D02*
D03*
X1875000D02*
D03*
Y2225000D02*
D03*
Y2025000D02*
D03*
Y1925000D02*
D03*
X1575000Y1825000D02*
D03*
X1775000D02*
D03*
X1675000D02*
D03*
Y1625000D02*
D03*
X1775000D02*
D03*
X1575000D02*
D03*
X1475000D02*
D03*
X1625000Y975000D02*
D03*
X1700000Y1050000D02*
D03*
X1625000Y1125000D02*
D03*
X1775000D02*
D03*
Y975000D02*
D03*
%TF.MD5,3dd084942d4d3efb57272b8f263df953*%
M02*
