%TF.GenerationSoftware,Altium Limited,Altium Designer,22.11.1 (43)*%
G04 Layer_Color=8421504*
%FSLAX45Y45*%
%MOMM*%
%TF.SameCoordinates,77F1110F-2A09-4361-93A5-D97A60E4CA06*%
%TF.FilePolarity,Positive*%
%TF.FileFunction,Paste,Top*%
%TF.Part,Single*%
G01*
G75*
%TA.AperFunction,NonConductor*%
%ADD10R,0.80000X1.20000*%
%ADD11R,1.20000X1.20000*%
%ADD12R,1.20000X1.20000*%
%ADD13R,1.20000X1.20000*%
%ADD14R,0.79999X1.00001*%
%ADD15R,0.79998X1.00001*%
%TA.AperFunction,SMDPad,CuDef*%
%ADD16R,0.80000X0.80000*%
G04:AMPARAMS|DCode=17|XSize=0.8mm|YSize=0.8mm|CornerRadius=0.08mm|HoleSize=0mm|Usage=FLASHONLY|Rotation=0.000|XOffset=0mm|YOffset=0mm|HoleType=Round|Shape=RoundedRectangle|*
%AMROUNDEDRECTD17*
21,1,0.80000,0.64000,0,0,0.0*
21,1,0.64000,0.80000,0,0,0.0*
1,1,0.16000,0.32000,-0.32000*
1,1,0.16000,-0.32000,-0.32000*
1,1,0.16000,-0.32000,0.32000*
1,1,0.16000,0.32000,0.32000*
%
%ADD17ROUNDEDRECTD17*%
G04:AMPARAMS|DCode=18|XSize=0.8mm|YSize=0.8mm|CornerRadius=0.1mm|HoleSize=0mm|Usage=FLASHONLY|Rotation=0.000|XOffset=0mm|YOffset=0mm|HoleType=Round|Shape=RoundedRectangle|*
%AMROUNDEDRECTD18*
21,1,0.80000,0.60000,0,0,0.0*
21,1,0.60000,0.80000,0,0,0.0*
1,1,0.20000,0.30000,-0.30000*
1,1,0.20000,-0.30000,-0.30000*
1,1,0.20000,-0.30000,0.30000*
1,1,0.20000,0.30000,0.30000*
%
%ADD18ROUNDEDRECTD18*%
G04:AMPARAMS|DCode=19|XSize=0.8mm|YSize=0.8mm|CornerRadius=0.08mm|HoleSize=0mm|Usage=FLASHONLY|Rotation=270.000|XOffset=0mm|YOffset=0mm|HoleType=Round|Shape=RoundedRectangle|*
%AMROUNDEDRECTD19*
21,1,0.80000,0.64000,0,0,270.0*
21,1,0.64000,0.80000,0,0,270.0*
1,1,0.16000,-0.32000,-0.32000*
1,1,0.16000,-0.32000,0.32000*
1,1,0.16000,0.32000,0.32000*
1,1,0.16000,0.32000,-0.32000*
%
%ADD19ROUNDEDRECTD19*%
G04:AMPARAMS|DCode=20|XSize=0.8mm|YSize=0.8mm|CornerRadius=0.1mm|HoleSize=0mm|Usage=FLASHONLY|Rotation=270.000|XOffset=0mm|YOffset=0mm|HoleType=Round|Shape=RoundedRectangle|*
%AMROUNDEDRECTD20*
21,1,0.80000,0.60000,0,0,270.0*
21,1,0.60000,0.80000,0,0,270.0*
1,1,0.20000,-0.30000,-0.30000*
1,1,0.20000,-0.30000,0.30000*
1,1,0.20000,0.30000,0.30000*
1,1,0.20000,0.30000,-0.30000*
%
%ADD20ROUNDEDRECTD20*%
G04:AMPARAMS|DCode=21|XSize=0.6mm|YSize=0.9mm|CornerRadius=0.06mm|HoleSize=0mm|Usage=FLASHONLY|Rotation=90.000|XOffset=0mm|YOffset=0mm|HoleType=Round|Shape=RoundedRectangle|*
%AMROUNDEDRECTD21*
21,1,0.60000,0.78000,0,0,90.0*
21,1,0.48000,0.90000,0,0,90.0*
1,1,0.12000,0.39000,0.24000*
1,1,0.12000,0.39000,-0.24000*
1,1,0.12000,-0.39000,-0.24000*
1,1,0.12000,-0.39000,0.24000*
%
%ADD21ROUNDEDRECTD21*%
G04:AMPARAMS|DCode=22|XSize=0.6mm|YSize=0.9mm|CornerRadius=0.075mm|HoleSize=0mm|Usage=FLASHONLY|Rotation=90.000|XOffset=0mm|YOffset=0mm|HoleType=Round|Shape=RoundedRectangle|*
%AMROUNDEDRECTD22*
21,1,0.60000,0.75000,0,0,90.0*
21,1,0.45000,0.90000,0,0,90.0*
1,1,0.15000,0.37500,0.22500*
1,1,0.15000,0.37500,-0.22500*
1,1,0.15000,-0.37500,-0.22500*
1,1,0.15000,-0.37500,0.22500*
%
%ADD22ROUNDEDRECTD22*%
%ADD23R,0.65000X1.05000*%
G04:AMPARAMS|DCode=24|XSize=0.6mm|YSize=0.9mm|CornerRadius=0.075mm|HoleSize=0mm|Usage=FLASHONLY|Rotation=180.000|XOffset=0mm|YOffset=0mm|HoleType=Round|Shape=RoundedRectangle|*
%AMROUNDEDRECTD24*
21,1,0.60000,0.75000,0,0,180.0*
21,1,0.45000,0.90000,0,0,180.0*
1,1,0.15000,-0.22500,0.37500*
1,1,0.15000,0.22500,0.37500*
1,1,0.15000,0.22500,-0.37500*
1,1,0.15000,-0.22500,-0.37500*
%
%ADD24ROUNDEDRECTD24*%
G04:AMPARAMS|DCode=25|XSize=0.6mm|YSize=0.9mm|CornerRadius=0.06mm|HoleSize=0mm|Usage=FLASHONLY|Rotation=180.000|XOffset=0mm|YOffset=0mm|HoleType=Round|Shape=RoundedRectangle|*
%AMROUNDEDRECTD25*
21,1,0.60000,0.78000,0,0,180.0*
21,1,0.48000,0.90000,0,0,180.0*
1,1,0.12000,-0.24000,0.39000*
1,1,0.12000,0.24000,0.39000*
1,1,0.12000,0.24000,-0.39000*
1,1,0.12000,-0.24000,-0.39000*
%
%ADD25ROUNDEDRECTD25*%
%ADD26R,0.35000X0.50000*%
%ADD27R,0.40000X0.55000*%
%ADD28R,0.50000X0.70000*%
%ADD29R,1.60000X0.80000*%
%ADD30R,0.75000X0.70000*%
%ADD31R,2.00000X0.85000*%
%ADD32R,1.10000X0.65000*%
G04:AMPARAMS|DCode=33|XSize=0.8mm|YSize=0.8mm|CornerRadius=0.08mm|HoleSize=0mm|Usage=FLASHONLY|Rotation=135.000|XOffset=0mm|YOffset=0mm|HoleType=Round|Shape=RoundedRectangle|*
%AMROUNDEDRECTD33*
21,1,0.80000,0.64000,0,0,135.0*
21,1,0.64000,0.80000,0,0,135.0*
1,1,0.16000,0.00000,0.45255*
1,1,0.16000,0.45255,0.00000*
1,1,0.16000,0.00000,-0.45255*
1,1,0.16000,-0.45255,0.00000*
%
%ADD33ROUNDEDRECTD33*%
G04:AMPARAMS|DCode=34|XSize=0.8mm|YSize=0.8mm|CornerRadius=0.1mm|HoleSize=0mm|Usage=FLASHONLY|Rotation=135.000|XOffset=0mm|YOffset=0mm|HoleType=Round|Shape=RoundedRectangle|*
%AMROUNDEDRECTD34*
21,1,0.80000,0.60000,0,0,135.0*
21,1,0.60000,0.80000,0,0,135.0*
1,1,0.20000,0.00000,0.42427*
1,1,0.20000,0.42427,0.00000*
1,1,0.20000,0.00000,-0.42427*
1,1,0.20000,-0.42427,0.00000*
%
%ADD34ROUNDEDRECTD34*%
%ADD35R,0.85000X0.30000*%
%ADD36R,0.80000X0.90000*%
%ADD37R,0.70000X1.40000*%
%ADD38O,0.20000X0.70000*%
%ADD39O,0.70000X0.20000*%
%ADD40O,1.00000X0.40000*%
D10*
X1350007Y749979D02*
D03*
D11*
X1065000Y1840000D02*
D03*
X785000D02*
D03*
X1065000Y1560000D02*
D03*
X785000D02*
D03*
X925000Y1700000D02*
D03*
D12*
X924995Y1839997D02*
D03*
X925005Y1560002D02*
D03*
D13*
X1065001Y1699998D02*
D03*
X784998Y1700002D02*
D03*
D14*
X535001Y349999D02*
D03*
X314999Y350000D02*
D03*
X535001Y480000D02*
D03*
X314999Y480000D02*
D03*
X535001Y220000D02*
D03*
X314999Y220000D02*
D03*
D15*
X425000Y350000D02*
D03*
Y480000D02*
D03*
Y220000D02*
D03*
D16*
X1880000Y1500000D02*
D03*
Y1300000D02*
D03*
D17*
X1725000Y1500000D02*
D03*
X1575000Y1300000D02*
D03*
X925000Y475000D02*
D03*
X1275000D02*
D03*
X1775000Y1725000D02*
D03*
X150000Y1775000D02*
D03*
X1825000Y2625000D02*
D03*
D18*
X1575000Y1500000D02*
D03*
X1725000Y1300000D02*
D03*
X1075000Y475000D02*
D03*
X1425000Y475000D02*
D03*
X1625000Y1725000D02*
D03*
X300000Y1775000D02*
D03*
X1975000Y2625000D02*
D03*
D19*
X825000Y2300000D02*
D03*
X1750000Y350000D02*
D03*
X1025000Y2300000D02*
D03*
X1150000D02*
D03*
X700000D02*
D03*
X400000Y2850000D02*
D03*
X525000D02*
D03*
X650000D02*
D03*
X775000Y2700000D02*
D03*
X900000D02*
D03*
X1025000D02*
D03*
X175000Y2300000D02*
D03*
X1275000Y2450000D02*
D03*
X1675000Y2300000D02*
D03*
X575000D02*
D03*
X1975000Y2175000D02*
D03*
X1475000Y1875000D02*
D03*
X825000Y675000D02*
D03*
X800000Y1200000D02*
D03*
X1500000Y975000D02*
D03*
X1600000Y125000D02*
D03*
X1750000Y675000D02*
D03*
X1625000D02*
D03*
X675000Y1200000D02*
D03*
X1975000Y2925000D02*
D03*
Y2475000D02*
D03*
D20*
X825000Y2450000D02*
D03*
X1750000Y500000D02*
D03*
X1025000Y2450000D02*
D03*
X1150000D02*
D03*
X700000D02*
D03*
X400000Y2700000D02*
D03*
X525000D02*
D03*
X650000D02*
D03*
X775000Y2850000D02*
D03*
X900000D02*
D03*
X1025000D02*
D03*
X175000Y2450000D02*
D03*
X1275000Y2300000D02*
D03*
X1675000Y2450000D02*
D03*
X575000D02*
D03*
X1975000Y2025000D02*
D03*
X1475000Y1725000D02*
D03*
X825000Y825000D02*
D03*
X800000Y1050000D02*
D03*
X1500000Y1125000D02*
D03*
X1600000Y275000D02*
D03*
X1750000Y825000D02*
D03*
X1625000Y825000D02*
D03*
X675000Y1050000D02*
D03*
X1975000Y2775000D02*
D03*
Y2325000D02*
D03*
D21*
X1150000Y2850000D02*
D03*
X1275000Y2850000D02*
D03*
X1400000Y2850000D02*
D03*
D22*
X1150000Y2700000D02*
D03*
X1275000D02*
D03*
X1400000Y2700000D02*
D03*
D23*
X692500Y2992500D02*
D03*
X907500Y3407500D02*
D03*
Y2992500D02*
D03*
X692500Y3407500D02*
D03*
X142500Y2992500D02*
D03*
X357500Y3407500D02*
D03*
Y2992500D02*
D03*
X142500Y3407500D02*
D03*
D24*
X1275000Y1125000D02*
D03*
X300000Y1650000D02*
D03*
X1275000Y1000000D02*
D03*
X300000Y1900000D02*
D03*
Y1525000D02*
D03*
X150000Y2025000D02*
D03*
X300000Y1400000D02*
D03*
D25*
X1125000Y1125000D02*
D03*
X150000Y1650000D02*
D03*
X1125000Y1000000D02*
D03*
X150000Y1900000D02*
D03*
Y1525000D02*
D03*
X300000Y2025000D02*
D03*
X150000Y1400000D02*
D03*
D26*
X1877500Y852500D02*
D03*
X1942500D02*
D03*
X2007500D02*
D03*
X2072500D02*
D03*
Y647500D02*
D03*
X2007500D02*
D03*
X1942500D02*
D03*
X1877500D02*
D03*
D27*
X1347500Y3284644D02*
D03*
Y3419644D02*
D03*
X1202500Y3284644D02*
D03*
Y3419644D02*
D03*
D28*
X1275000Y3277144D02*
D03*
Y3427144D02*
D03*
D29*
X1975000Y3055000D02*
D03*
Y3395000D02*
D03*
D30*
X1407500Y2425000D02*
D03*
X1542500Y2325000D02*
D03*
X1407500D02*
D03*
X1542500Y2425000D02*
D03*
D31*
X1025000Y667500D02*
D03*
X1025000Y832500D02*
D03*
D32*
X1240000Y105000D02*
D03*
X1240000Y295000D02*
D03*
X1460000Y105000D02*
D03*
Y295000D02*
D03*
X1240000Y200000D02*
D03*
D33*
X1825000Y1875000D02*
D03*
D34*
X1931066Y1768934D02*
D03*
D35*
X1472500Y850000D02*
D03*
X1472500Y800000D02*
D03*
Y750000D02*
D03*
Y700000D02*
D03*
X1472500Y650000D02*
D03*
X1227500Y650000D02*
D03*
Y700000D02*
D03*
Y750000D02*
D03*
Y800000D02*
D03*
X1227500Y850000D02*
D03*
D36*
X575000Y925000D02*
D03*
X480000Y725000D02*
D03*
X670000D02*
D03*
X225000Y925000D02*
D03*
X130000Y725000D02*
D03*
X320000D02*
D03*
X225000Y1275000D02*
D03*
X130000Y1075000D02*
D03*
X320000D02*
D03*
D37*
X300000Y2375000D02*
D03*
X450000D02*
D03*
D38*
X945000Y1995000D02*
D03*
X905000D02*
D03*
X985000D02*
D03*
X1025000D02*
D03*
X1105000D02*
D03*
X1145000D02*
D03*
X865000D02*
D03*
X825000D02*
D03*
X785000D02*
D03*
X745000D02*
D03*
X705000D02*
D03*
X1065000D02*
D03*
X905000Y1405000D02*
D03*
X945000D02*
D03*
X865000D02*
D03*
X825000D02*
D03*
X745000D02*
D03*
X705000D02*
D03*
X985000D02*
D03*
X1025000D02*
D03*
X1065000D02*
D03*
X1105000D02*
D03*
X1145000D02*
D03*
X785000D02*
D03*
D39*
X1220000Y1680000D02*
D03*
Y1720000D02*
D03*
Y1640000D02*
D03*
Y1600000D02*
D03*
Y1520000D02*
D03*
Y1480000D02*
D03*
Y1760000D02*
D03*
Y1800000D02*
D03*
Y1840000D02*
D03*
Y1880000D02*
D03*
Y1920000D02*
D03*
Y1560000D02*
D03*
X630000Y1720000D02*
D03*
Y1680000D02*
D03*
Y1760000D02*
D03*
Y1800000D02*
D03*
Y1880000D02*
D03*
Y1920000D02*
D03*
Y1640000D02*
D03*
Y1600000D02*
D03*
Y1560000D02*
D03*
Y1520000D02*
D03*
Y1480000D02*
D03*
Y1840000D02*
D03*
D40*
X135000Y159500D02*
D03*
Y286500D02*
D03*
Y413500D02*
D03*
Y540500D02*
D03*
X715000D02*
D03*
Y413500D02*
D03*
Y286500D02*
D03*
Y159500D02*
D03*
%TF.MD5,f635a106792b82384bb535009d0fb5b5*%
M02*
