%TF.GenerationSoftware,Altium Limited,Altium Designer,22.11.1 (43)*%
G04 Layer_Physical_Order=1*
G04 Layer_Color=255*
%FSLAX45Y45*%
%MOMM*%
%TF.SameCoordinates,68354FB4-E10A-4FE8-B7D5-3B9F33A940C7*%
%TF.FilePolarity,Positive*%
%TF.FileFunction,Copper,L1,Top,Signal*%
%TF.Part,Single*%
G01*
G75*
%TA.AperFunction,Conductor*%
%ADD10C,0.20000*%
%ADD11C,0.80000*%
%ADD12C,0.00100*%
%TA.AperFunction,SMDPad,CuDef*%
%ADD13R,0.80000X0.80000*%
G04:AMPARAMS|DCode=14|XSize=0.8mm|YSize=0.8mm|CornerRadius=0.08mm|HoleSize=0mm|Usage=FLASHONLY|Rotation=0.000|XOffset=0mm|YOffset=0mm|HoleType=Round|Shape=RoundedRectangle|*
%AMROUNDEDRECTD14*
21,1,0.80000,0.64000,0,0,0.0*
21,1,0.64000,0.80000,0,0,0.0*
1,1,0.16000,0.32000,-0.32000*
1,1,0.16000,-0.32000,-0.32000*
1,1,0.16000,-0.32000,0.32000*
1,1,0.16000,0.32000,0.32000*
%
%ADD14ROUNDEDRECTD14*%
G04:AMPARAMS|DCode=15|XSize=0.8mm|YSize=0.8mm|CornerRadius=0.1mm|HoleSize=0mm|Usage=FLASHONLY|Rotation=0.000|XOffset=0mm|YOffset=0mm|HoleType=Round|Shape=RoundedRectangle|*
%AMROUNDEDRECTD15*
21,1,0.80000,0.60000,0,0,0.0*
21,1,0.60000,0.80000,0,0,0.0*
1,1,0.20000,0.30000,-0.30000*
1,1,0.20000,-0.30000,-0.30000*
1,1,0.20000,-0.30000,0.30000*
1,1,0.20000,0.30000,0.30000*
%
%ADD15ROUNDEDRECTD15*%
G04:AMPARAMS|DCode=16|XSize=0.8mm|YSize=0.8mm|CornerRadius=0.08mm|HoleSize=0mm|Usage=FLASHONLY|Rotation=270.000|XOffset=0mm|YOffset=0mm|HoleType=Round|Shape=RoundedRectangle|*
%AMROUNDEDRECTD16*
21,1,0.80000,0.64000,0,0,270.0*
21,1,0.64000,0.80000,0,0,270.0*
1,1,0.16000,-0.32000,-0.32000*
1,1,0.16000,-0.32000,0.32000*
1,1,0.16000,0.32000,0.32000*
1,1,0.16000,0.32000,-0.32000*
%
%ADD16ROUNDEDRECTD16*%
G04:AMPARAMS|DCode=17|XSize=0.8mm|YSize=0.8mm|CornerRadius=0.1mm|HoleSize=0mm|Usage=FLASHONLY|Rotation=270.000|XOffset=0mm|YOffset=0mm|HoleType=Round|Shape=RoundedRectangle|*
%AMROUNDEDRECTD17*
21,1,0.80000,0.60000,0,0,270.0*
21,1,0.60000,0.80000,0,0,270.0*
1,1,0.20000,-0.30000,-0.30000*
1,1,0.20000,-0.30000,0.30000*
1,1,0.20000,0.30000,0.30000*
1,1,0.20000,0.30000,-0.30000*
%
%ADD17ROUNDEDRECTD17*%
G04:AMPARAMS|DCode=18|XSize=0.6mm|YSize=0.9mm|CornerRadius=0.06mm|HoleSize=0mm|Usage=FLASHONLY|Rotation=90.000|XOffset=0mm|YOffset=0mm|HoleType=Round|Shape=RoundedRectangle|*
%AMROUNDEDRECTD18*
21,1,0.60000,0.78000,0,0,90.0*
21,1,0.48000,0.90000,0,0,90.0*
1,1,0.12000,0.39000,0.24000*
1,1,0.12000,0.39000,-0.24000*
1,1,0.12000,-0.39000,-0.24000*
1,1,0.12000,-0.39000,0.24000*
%
%ADD18ROUNDEDRECTD18*%
G04:AMPARAMS|DCode=19|XSize=0.6mm|YSize=0.9mm|CornerRadius=0.075mm|HoleSize=0mm|Usage=FLASHONLY|Rotation=90.000|XOffset=0mm|YOffset=0mm|HoleType=Round|Shape=RoundedRectangle|*
%AMROUNDEDRECTD19*
21,1,0.60000,0.75000,0,0,90.0*
21,1,0.45000,0.90000,0,0,90.0*
1,1,0.15000,0.37500,0.22500*
1,1,0.15000,0.37500,-0.22500*
1,1,0.15000,-0.37500,-0.22500*
1,1,0.15000,-0.37500,0.22500*
%
%ADD19ROUNDEDRECTD19*%
%ADD20R,0.65000X1.05000*%
G04:AMPARAMS|DCode=21|XSize=0.6mm|YSize=0.9mm|CornerRadius=0.075mm|HoleSize=0mm|Usage=FLASHONLY|Rotation=180.000|XOffset=0mm|YOffset=0mm|HoleType=Round|Shape=RoundedRectangle|*
%AMROUNDEDRECTD21*
21,1,0.60000,0.75000,0,0,180.0*
21,1,0.45000,0.90000,0,0,180.0*
1,1,0.15000,-0.22500,0.37500*
1,1,0.15000,0.22500,0.37500*
1,1,0.15000,0.22500,-0.37500*
1,1,0.15000,-0.22500,-0.37500*
%
%ADD21ROUNDEDRECTD21*%
G04:AMPARAMS|DCode=22|XSize=0.6mm|YSize=0.9mm|CornerRadius=0.06mm|HoleSize=0mm|Usage=FLASHONLY|Rotation=180.000|XOffset=0mm|YOffset=0mm|HoleType=Round|Shape=RoundedRectangle|*
%AMROUNDEDRECTD22*
21,1,0.60000,0.78000,0,0,180.0*
21,1,0.48000,0.90000,0,0,180.0*
1,1,0.12000,-0.24000,0.39000*
1,1,0.12000,0.24000,0.39000*
1,1,0.12000,0.24000,-0.39000*
1,1,0.12000,-0.24000,-0.39000*
%
%ADD22ROUNDEDRECTD22*%
%ADD23R,0.35000X0.50000*%
%ADD24R,0.40000X0.55000*%
%ADD25R,0.50000X0.70000*%
%ADD26R,1.60000X0.80000*%
%ADD27R,0.75000X0.70000*%
%ADD28R,2.00000X0.85000*%
%ADD29R,1.10000X0.65000*%
G04:AMPARAMS|DCode=30|XSize=0.8mm|YSize=0.8mm|CornerRadius=0.08mm|HoleSize=0mm|Usage=FLASHONLY|Rotation=135.000|XOffset=0mm|YOffset=0mm|HoleType=Round|Shape=RoundedRectangle|*
%AMROUNDEDRECTD30*
21,1,0.80000,0.64000,0,0,135.0*
21,1,0.64000,0.80000,0,0,135.0*
1,1,0.16000,0.00000,0.45255*
1,1,0.16000,0.45255,0.00000*
1,1,0.16000,0.00000,-0.45255*
1,1,0.16000,-0.45255,0.00000*
%
%ADD30ROUNDEDRECTD30*%
G04:AMPARAMS|DCode=31|XSize=0.8mm|YSize=0.8mm|CornerRadius=0.1mm|HoleSize=0mm|Usage=FLASHONLY|Rotation=135.000|XOffset=0mm|YOffset=0mm|HoleType=Round|Shape=RoundedRectangle|*
%AMROUNDEDRECTD31*
21,1,0.80000,0.60000,0,0,135.0*
21,1,0.60000,0.80000,0,0,135.0*
1,1,0.20000,0.00000,0.42427*
1,1,0.20000,0.42427,0.00000*
1,1,0.20000,0.00000,-0.42427*
1,1,0.20000,-0.42427,0.00000*
%
%ADD31ROUNDEDRECTD31*%
%AMCUSTOMSHAPE32*
4,1,5,-0.37500,1.02500,0.62500,1.02500,0.62500,-1.02500,-0.62500,-1.02500,-0.62500,0.77500,-0.37500,1.02500,0.0*%
%ADD32CUSTOMSHAPE32*%

%ADD33R,0.85000X0.30000*%
%ADD34R,0.80000X0.90000*%
%ADD35R,0.70000X1.40000*%
%ADD36O,0.20000X0.70000*%
%ADD37O,0.70000X0.20000*%
%ADD38O,1.00000X0.40000*%
%AMCUSTOMSHAPE39*
4,1,5,-1.70000,-2.00000,1.70000,-2.00000,1.70000,2.00000,-1.20000,2.00000,-1.70000,1.50000,-1.70000,-2.00000,0.0*%
%ADD39CUSTOMSHAPE39*%

%TA.AperFunction,Conductor*%
%ADD40C,0.30000*%
%ADD41C,0.40000*%
%ADD42C,0.70000*%
%ADD43C,0.60000*%
%TA.AperFunction,ViaPad*%
%ADD44C,0.70000*%
G36*
X900000Y325000D02*
X1100000D01*
X1125000Y300000D01*
Y100000D01*
X1100000Y75000D01*
X900000D01*
X875000Y100000D01*
Y300000D01*
X900000Y325000D01*
D02*
G37*
G36*
X1600000Y1175000D02*
X1800000D01*
X1825000Y1150000D01*
Y950000D01*
X1800000Y925000D01*
X1600000D01*
X1575000Y950000D01*
Y1150000D01*
X1600000Y1175000D01*
D02*
G37*
G36*
X1935000Y2829520D02*
X1934855Y2829491D01*
X1926255Y2823745D01*
X1920509Y2815145D01*
X1918491Y2805000D01*
Y2777955D01*
X1917903Y2775000D01*
Y2625000D01*
Y2475000D01*
X1918530Y2471848D01*
Y2443000D01*
X1920393Y2433636D01*
X1925697Y2425697D01*
X1933636Y2420393D01*
X1935000Y2420121D01*
Y2379520D01*
X1934855Y2379491D01*
X1926255Y2373745D01*
X1920509Y2365145D01*
X1918491Y2355000D01*
Y2327955D01*
X1917903Y2325000D01*
Y2175000D01*
X1918530Y2171849D01*
Y2143000D01*
X1920393Y2133636D01*
X1925697Y2125697D01*
X1933636Y2120393D01*
X1935000Y2120121D01*
Y2079520D01*
X1934855Y2079491D01*
X1926255Y2073745D01*
X1920509Y2065145D01*
X1918491Y2055000D01*
Y2027955D01*
X1917903Y2025000D01*
Y1875228D01*
X1917865Y1875038D01*
X1918243Y1873141D01*
X1915306Y1850831D01*
X1905962Y1828273D01*
X1891098Y1808902D01*
X1871727Y1794039D01*
X1849170Y1784695D01*
X1826859Y1781758D01*
X1824962Y1782135D01*
X1824771Y1782097D01*
X1775000D01*
X1771848Y1781470D01*
X1743000D01*
X1733636Y1779608D01*
X1725697Y1774303D01*
X1720393Y1766364D01*
X1720121Y1765000D01*
X1679520D01*
X1679491Y1765145D01*
X1673745Y1773745D01*
X1665144Y1779491D01*
X1655000Y1781509D01*
X1627955D01*
X1625000Y1782097D01*
X1482485Y1782097D01*
X1475000Y1782097D01*
X1470000Y1781577D01*
X1457327Y1781509D01*
X1445000D01*
X1444817Y1781473D01*
X1435000Y1789530D01*
Y1819010D01*
X1447700Y1820261D01*
X1448907Y1814192D01*
X1455029Y1805029D01*
X1464192Y1798907D01*
X1475000Y1796757D01*
X1485808Y1798907D01*
X1494971Y1805029D01*
X1501093Y1814192D01*
X1503243Y1825000D01*
Y1875000D01*
X1503274Y1875038D01*
X1824962D01*
Y2850000D01*
X1935000D01*
Y2829520D01*
D02*
G37*
G36*
X2125000Y2850000D02*
Y1875076D01*
X2124962Y1875038D01*
X2124962Y1850037D01*
X2124962Y1832013D01*
X2120257Y1796273D01*
X2110926Y1761452D01*
X2097131Y1728147D01*
X2079107Y1696928D01*
X2057161Y1668328D01*
X2031671Y1642838D01*
X2003071Y1620893D01*
X1971852Y1602868D01*
X1938547Y1589073D01*
X1903727Y1579743D01*
X1867986Y1575038D01*
X1849962Y1575038D01*
X1435000D01*
Y1662903D01*
X1470000D01*
Y1662805D01*
X1493801Y1667539D01*
X1494345Y1667903D01*
X1625000Y1667903D01*
X1627955Y1668491D01*
X1655000D01*
X1665144Y1670509D01*
X1673745Y1676255D01*
X1679491Y1684855D01*
X1679520Y1685000D01*
X1720121D01*
X1720393Y1683636D01*
X1725697Y1675697D01*
X1733636Y1670393D01*
X1743000Y1668530D01*
X1771848D01*
X1775000Y1667903D01*
X1824962D01*
X1826341Y1668178D01*
X1865345Y1672019D01*
X1904177Y1683798D01*
X1936510Y1701081D01*
X1941211Y1702016D01*
X1949811Y1707763D01*
X1967912Y1725863D01*
X1971331Y1728669D01*
X1974137Y1732088D01*
X1992237Y1750189D01*
X1997984Y1758789D01*
X1998919Y1763489D01*
X2016202Y1795824D01*
X2027981Y1834655D01*
X2031823Y1873662D01*
X2032097Y1875038D01*
Y2025000D01*
X2031509Y2027955D01*
Y2055000D01*
X2029491Y2065145D01*
X2023745Y2073745D01*
X2015145Y2079491D01*
X2015000Y2079520D01*
Y2120121D01*
X2016364Y2120393D01*
X2024303Y2125697D01*
X2029608Y2133636D01*
X2031470Y2143000D01*
Y2171849D01*
X2032097Y2175000D01*
Y2325000D01*
X2031509Y2327955D01*
Y2355000D01*
X2029491Y2365145D01*
X2023745Y2373745D01*
X2015145Y2379491D01*
X2015000Y2379520D01*
Y2420121D01*
X2016364Y2420393D01*
X2024303Y2425697D01*
X2029608Y2433636D01*
X2031470Y2443000D01*
Y2471848D01*
X2032097Y2475000D01*
Y2625000D01*
Y2775000D01*
X2031509Y2777955D01*
Y2805000D01*
X2029491Y2815145D01*
X2023745Y2823745D01*
X2015145Y2829491D01*
X2015000Y2829520D01*
Y2850000D01*
X2125000Y2850000D01*
D02*
G37*
G36*
X2125001Y1005001D02*
X1925000D01*
Y1205001D01*
X2125001D01*
Y1005001D01*
D02*
G37*
%LPC*%
G36*
X2077562Y1157562D02*
D01*
Y1152292D01*
X2077284Y1154095D01*
X2076729Y1155343D01*
X2075897Y1156314D01*
X2074927Y1156869D01*
X2074094Y1157285D01*
X2073262Y1157424D01*
X2072708Y1157562D01*
X1977709D01*
X1975906Y1157285D01*
X1974658Y1156730D01*
X1973687Y1155898D01*
X1973132Y1154927D01*
X1972716Y1153957D01*
X1972578Y1153124D01*
X1972439Y1152570D01*
Y1152292D01*
X1972578Y1151460D01*
X1972716Y1150628D01*
X1973410Y1149380D01*
X1973826Y1148825D01*
X1974242Y1148409D01*
X1974381Y1148132D01*
X1974519Y1147993D01*
X1995183Y1127468D01*
X1995738Y1126913D01*
X1996293Y1126636D01*
X1997541Y1126081D01*
X1998373Y1125942D01*
X1972439D01*
X2077562D01*
Y1157562D01*
D02*
G37*
G36*
Y1105001D02*
D01*
Y1099731D01*
X2077284Y1101534D01*
X2076729Y1102782D01*
X2075897Y1103753D01*
X2074927Y1104308D01*
X2073956Y1104724D01*
X2073124Y1104862D01*
X2072569Y1105001D01*
X2072292D01*
X2070489Y1104724D01*
X2069240Y1104169D01*
X2068270Y1103337D01*
X2067715Y1102366D01*
X2067299Y1101395D01*
X2067160Y1100563D01*
X2067022Y1100008D01*
Y1062980D01*
X1977709D01*
X1975906Y1062702D01*
X1974658Y1062148D01*
X1973687Y1061316D01*
X1973132Y1060345D01*
X1972716Y1059374D01*
X1972578Y1058542D01*
X1972439Y1057987D01*
Y1057710D01*
X1972716Y1055907D01*
X1973271Y1054659D01*
X1974103Y1053688D01*
X1975074Y1053133D01*
X1976045Y1052717D01*
X1976877Y1052579D01*
X1977432Y1052440D01*
X1972439D01*
X2077562D01*
Y1105001D01*
D02*
G37*
%LPD*%
G36*
Y1125942D02*
X1998789D01*
X2000592Y1126220D01*
X2001840Y1126774D01*
X2002811Y1127607D01*
X2003366Y1128577D01*
X2003782Y1129548D01*
X2003920Y1130380D01*
X2004059Y1130935D01*
Y1131212D01*
X2003920Y1131906D01*
X2003782Y1132599D01*
X2003227Y1133847D01*
X2002811Y1134541D01*
X2002533Y1134818D01*
X1990468Y1147022D01*
X2072430D01*
X2074094Y1147300D01*
X2075343Y1147854D01*
X2076313Y1148687D01*
X2076868Y1149657D01*
X2077284Y1150628D01*
X2077423Y1151460D01*
X2077562Y1152015D01*
Y1125942D01*
D02*
G37*
G36*
Y1052440D02*
X2072430D01*
X2074094Y1052717D01*
X2075343Y1053272D01*
X2076313Y1054104D01*
X2076868Y1055075D01*
X2077284Y1056046D01*
X2077423Y1056878D01*
X2077562Y1057432D01*
Y1052440D01*
D02*
G37*
G36*
G01X695000Y1490000D02*
G01Y1860000D01*
G03Y1900000I0J20000D01*
G01Y1910000D01*
G02X715000Y1930000I20000J0D01*
G01X1135000D01*
G02X1155000Y1910000I0J-20000D01*
G01Y1490000D01*
G02X1135000Y1470000I-20000J0D01*
G01X715000D01*
G02X695000Y1490000I0J20000D01*
D02*
G37*
D10*
X1420000Y1875000D02*
G03*
X1400000Y1855000I0J-20000D01*
G01*
X1373500Y1786000D02*
G03*
X1400000Y1812500I0J26500D01*
G01*
X1337500Y1786000D02*
G03*
X1296329Y1771585I0J-66000D01*
G01*
X1291424Y1767966D02*
G03*
X1292723Y1768865I-10726J16880D01*
G01*
X1287546Y1765571D02*
G03*
X1288919Y1766374I-9411J17647D01*
G01*
X1287539Y1765567D02*
G03*
X1287546Y1765571I-9404J17651D01*
G01*
X1283423Y1763440D02*
G03*
X1284650Y1764033I-8082J18294D01*
G01*
X1283419Y1763438D02*
G03*
X1283423Y1763440I-8078J18296D01*
G01*
X1278928Y1761533D02*
G03*
X1280222Y1762042I-6674J18853D01*
G01*
X1271156Y1760000D02*
G03*
X1277788Y1761132I0J20000D01*
G01*
X1296053Y1771371D02*
G03*
X1296329Y1771585I-12108J15918D01*
G01*
X1220000Y1760000D02*
X1271156D01*
X825000Y1800000D02*
X925000Y1700000D01*
X825000Y1800000D02*
Y1930000D01*
Y1995000D02*
Y2060000D01*
X865000Y2100000D01*
X925000D01*
X1420000Y1875000D02*
X1475000D01*
X2015000Y895000D02*
X2070000Y950000D01*
X2015000Y860000D02*
Y895000D01*
X2007500Y852500D02*
X2015000Y860000D01*
X1725000Y1431716D02*
Y1500000D01*
X1713284Y1420000D02*
X1725000Y1431716D01*
X1498400Y1420000D02*
X1713284D01*
X1483732Y1380000D02*
X1713284D01*
X1725000Y1368284D01*
Y1300000D02*
Y1368284D01*
X687690Y2192560D02*
X720857Y2159393D01*
Y2103442D02*
X745000Y2079299D01*
X687690Y2192560D02*
Y2206090D01*
X720857Y2103442D02*
Y2159393D01*
X1255000Y1640000D02*
X1277700Y1617300D01*
X1220000Y1640000D02*
X1255000D01*
X1277700Y1586032D02*
Y1617300D01*
Y1586032D02*
X1483732Y1380000D01*
X1310000Y1629312D02*
X1310400Y1628912D01*
X1283453Y1676547D02*
X1310000Y1650000D01*
Y1629312D02*
Y1650000D01*
X1310400Y1608000D02*
Y1628912D01*
Y1608000D02*
X1498400Y1420000D01*
X1274787Y1679924D02*
X1279584Y1678236D01*
X1274510Y1680000D02*
X1274787Y1679924D01*
X1279584Y1678236D02*
X1283453Y1676547D01*
X1220000Y1680000D02*
X1274510D01*
X275000Y2315000D02*
X300000Y2340000D01*
X175000Y2300000D02*
X190000Y2315000D01*
X275000D01*
X300000Y2340000D02*
Y2375000D01*
X450000Y2340858D02*
Y2375000D01*
Y2340000D02*
Y2340858D01*
X475000Y2315000D02*
X560000D01*
X575000Y2300000D01*
X450000Y2340000D02*
X475000Y2315000D01*
X1542300Y2255000D02*
Y2324800D01*
X1277700Y1906455D02*
Y1990400D01*
X1542300Y2255000D01*
X1220000Y1880000D02*
X1251245D01*
X1277700Y1906455D01*
X325000Y2315000D02*
X345584D01*
X357300Y2182700D02*
Y2303284D01*
X300000Y2340000D02*
X325000Y2315000D01*
X345584D02*
X357300Y2303284D01*
Y2182700D02*
X480000Y2060000D01*
X425000Y2315858D02*
X450000Y2340858D01*
X401716Y2315858D02*
X425000D01*
X390000Y2196245D02*
Y2304142D01*
Y2196245D02*
X512700Y2073545D01*
X390000Y2304142D02*
X401716Y2315858D01*
X512700Y1937300D02*
Y2073545D01*
X480000Y1923756D02*
Y2060000D01*
Y1923756D02*
X563756Y1840000D01*
X512700Y1937300D02*
X570000Y1880000D01*
X563756Y1840000D02*
X630000D01*
X570000Y1880000D02*
X630000D01*
X875899Y1112700D02*
X919552Y1156353D01*
X953353Y1190153D02*
Y1237953D01*
X945000Y1246306D02*
X953353Y1237953D01*
X945000Y1246306D02*
Y1405000D01*
X919552Y1156353D02*
X919553D01*
X953353Y1190153D01*
X1310399Y1454501D02*
X1347115Y1417785D01*
X1310399Y1454501D02*
Y1507089D01*
X1257488Y1560000D02*
X1310399Y1507089D01*
X1347115Y1417785D02*
X1348604D01*
X1220000Y1560000D02*
X1257488D01*
X1071426Y1216814D02*
Y1302329D01*
X1025000Y1348755D02*
X1071426Y1302329D01*
X1275000Y1125000D02*
Y1317300D01*
Y1125000D02*
X1325000D01*
X1275000Y1000000D02*
X1325000D01*
X1275000D02*
Y1015000D01*
X2071250Y851250D02*
X2072500Y852500D01*
X2071250Y761250D02*
Y851250D01*
X2070000Y760000D02*
X2071250Y761250D01*
X1025000Y1995000D02*
Y2100000D01*
X1310400Y1976856D02*
X1341093Y2007548D01*
X1435393D01*
X1358533Y1894800D02*
Y1924011D01*
X1263734Y1800000D02*
X1358533Y1894800D01*
Y1924011D02*
X1368100Y1933578D01*
X1310400Y1892911D02*
Y1976856D01*
X1220000Y1800000D02*
X1263734D01*
X745000Y1370000D02*
Y1405000D01*
X722300Y1347300D02*
X745000Y1370000D01*
X669687Y1347300D02*
X722300D01*
X538530Y1500000D02*
X558530Y1520000D01*
X630000D01*
X525000Y1500000D02*
X538530D01*
X605000Y1480000D02*
X630000D01*
X524243Y1399243D02*
X605000Y1480000D01*
X524243Y1398917D02*
Y1399243D01*
X417626Y1017626D02*
X512700Y1112700D01*
X875899D01*
X1234293Y2109293D02*
X1239294D01*
X1145000Y2020000D02*
X1234293Y2109293D01*
X1145000Y1995000D02*
Y2020000D01*
X1407500Y2425000D02*
X1426642Y2405858D01*
X1475000Y2235900D02*
Y2394142D01*
X1463284Y2405858D02*
X1475000Y2394142D01*
X1426642Y2405858D02*
X1463284D01*
X1220000Y1980900D02*
X1475000Y2235900D01*
X1220000Y1920000D02*
Y1980900D01*
X1257489Y1840000D02*
X1310400Y1892911D01*
X1220000Y1840000D02*
X1257489D01*
X1277699Y1407090D02*
Y1493544D01*
X1251243Y1520000D02*
X1277699Y1493544D01*
X1220000Y1520000D02*
X1251243D01*
X1365400Y1319206D02*
Y1319389D01*
X1277699Y1407090D02*
X1365400Y1319389D01*
X1220000Y1418545D02*
X1307700Y1330844D01*
X1332700Y1224703D02*
Y1236419D01*
X1307700Y1261419D02*
Y1330844D01*
X1220000Y1418545D02*
Y1480000D01*
X1307700Y1261419D02*
X1332700Y1236419D01*
X627500Y1402500D02*
X705000D01*
X1198756Y1347300D02*
X1222300Y1323755D01*
Y1064416D02*
Y1323755D01*
X1127700Y1347300D02*
X1198756D01*
X1222300Y1064416D02*
X1251716Y1035000D01*
X1255000D01*
X1275000Y1015000D01*
X1145000Y1405000D02*
X1187300D01*
X1275000Y1317300D01*
X1105000Y1370000D02*
X1127700Y1347300D01*
X1025000Y1348755D02*
Y1405000D01*
X905000Y1223400D02*
Y1405000D01*
X895653Y1214053D02*
X905000Y1223400D01*
X985000Y1320685D02*
X1002700Y1302985D01*
X985000Y1320685D02*
Y1405000D01*
X1002700Y1289455D02*
Y1302985D01*
X1065000Y1363756D02*
X1139156Y1289600D01*
X1065000Y1363756D02*
Y1405000D01*
X1139156Y1289600D02*
X1140000D01*
X800000Y1200000D02*
X865000Y1265000D01*
Y1405000D01*
X807300Y1290000D02*
Y1303530D01*
X825000Y1321230D02*
Y1405000D01*
X807300Y1303530D02*
X825000Y1321230D01*
X705218Y1287700D02*
X716684Y1299166D01*
X691688Y1287700D02*
X705218D01*
X733749Y1299166D02*
X785000Y1350417D01*
X716684Y1299166D02*
X733749D01*
X635000Y1312613D02*
X669687Y1347300D01*
X570000Y1310000D02*
X572613Y1312613D01*
X635000D01*
X785000Y1350417D02*
Y1405000D01*
X625000Y1400000D02*
X627500Y1402500D01*
X705000D02*
Y1405000D01*
X1105000Y1370000D02*
Y1405000D01*
X825000Y1930000D02*
Y1995000D01*
X450000Y1650000D02*
X460001Y1640000D01*
X300000Y1650000D02*
X450000D01*
X460001Y1640000D02*
X630000D01*
X400000Y1475000D02*
X485000Y1560000D01*
X375000Y1400000D02*
X400000Y1425000D01*
Y1475000D01*
X300000Y1400000D02*
X375000D01*
X450000Y1600000D02*
X630000D01*
X375000Y1525000D02*
X450000Y1600000D01*
X300000Y1525000D02*
X375000D01*
X485000Y1560000D02*
X630000D01*
X705000Y1995000D02*
Y2063076D01*
X660000Y2108076D02*
X705000Y2063076D01*
X660000Y2108076D02*
Y2110000D01*
X785000Y1995000D02*
Y2120899D01*
X778557Y2127342D02*
X785000Y2120899D01*
X745000Y1995000D02*
Y2079299D01*
X600000Y2200000D02*
X700000Y2300000D01*
X600000Y1970000D02*
Y2200000D01*
Y1970000D02*
X630000Y1940000D01*
Y1920000D02*
Y1940000D01*
X1400000Y1812500D02*
Y1855000D01*
X1337500Y1786000D02*
X1373500D01*
X1292723Y1768865D02*
X1296053Y1771371D01*
X1288919Y1766374D02*
X1291424Y1767966D01*
X1287539Y1765567D02*
X1287546Y1765571D01*
X1284650Y1764033D02*
X1287539Y1765567D01*
X1283419Y1763438D02*
X1283423Y1763440D01*
X1280222Y1762042D02*
X1283419Y1763438D01*
X1277788Y1761132D02*
X1278928Y1761532D01*
X1245000Y1720000D02*
X1337500Y1720000D01*
X1220000Y1720000D02*
X1245000D01*
D11*
X1470000Y1720000D02*
G03*
X1475000Y1725000I0J5000D01*
G01*
X1824962Y1725038D02*
G03*
X1974962Y1875038I0J150000D01*
G01*
X900000Y2850000D02*
X1025000D01*
X900000Y2700000D02*
X1025000D01*
X900000Y2850000D02*
X900000Y2850000D01*
X775000D02*
X900000D01*
X775000Y2700000D02*
X900000D01*
X775000Y2850000D02*
X775000Y2850000D01*
X525000Y2850000D02*
X650000D01*
X400000D02*
X525000D01*
X1687500Y825000D02*
Y1037500D01*
Y825000D02*
X1750000D01*
X1625000D02*
X1687500D01*
X1750000D02*
X1750000Y825000D01*
X1687500Y1037500D02*
X1700000Y1050000D01*
X1075000Y275000D02*
X1075000Y275000D01*
X1075000Y275000D02*
Y475000D01*
X1337500Y1720000D02*
X1470000D01*
X1475000Y1725000D02*
X1625000Y1725000D01*
X1975000Y2925000D02*
Y3055000D01*
Y2625000D02*
Y2775000D01*
Y2475000D02*
Y2625000D01*
Y2175000D02*
Y2325000D01*
Y1875038D02*
Y2025000D01*
X1974962Y1875038D02*
X1975000D01*
X1824962Y1725000D02*
Y1725038D01*
X1775000Y1725000D02*
X1824962D01*
D12*
X715000Y1930000D02*
G03*
X695000Y1910000I0J-20000D01*
G01*
Y1490000D02*
G03*
X715000Y1470000I20000J0D01*
G01*
X1135000D02*
G03*
X1155000Y1490000I0J20000D01*
G01*
Y1910000D02*
G03*
X1135000Y1930000I-20000J0D01*
G01*
X695000Y1860000D02*
G03*
X695000Y1900000I0J20000D01*
G01*
X1155000Y1490000D02*
Y1910000D01*
X925000Y1930000D02*
X1135000D01*
X825000D02*
X925000D01*
X715000D02*
X825000D01*
X695000Y1490000D02*
Y1860000D01*
X715000Y1470000D02*
X1135000D01*
X695000Y1900000D02*
Y1910000D01*
D13*
X1880000Y1500000D02*
D03*
Y1300000D02*
D03*
D14*
X1725000Y1500000D02*
D03*
X1575000Y1300000D02*
D03*
X925000Y475000D02*
D03*
X1275000D02*
D03*
X1775000Y1725000D02*
D03*
X150000Y1775000D02*
D03*
X1825000Y2625000D02*
D03*
D15*
X1575000Y1500000D02*
D03*
X1725000Y1300000D02*
D03*
X1075000Y475000D02*
D03*
X1425000Y475000D02*
D03*
X1625000Y1725000D02*
D03*
X300000Y1775000D02*
D03*
X1975000Y2625000D02*
D03*
D16*
X825000Y2300000D02*
D03*
X1750000Y350000D02*
D03*
X1025000Y2300000D02*
D03*
X1150000D02*
D03*
X700000D02*
D03*
X400000Y2850000D02*
D03*
X525000D02*
D03*
X650000D02*
D03*
X775000Y2700000D02*
D03*
X900000D02*
D03*
X1025000D02*
D03*
X175000Y2300000D02*
D03*
X1275000Y2450000D02*
D03*
X1675000Y2300000D02*
D03*
X575000D02*
D03*
X1975000Y2175000D02*
D03*
X1475000Y1875000D02*
D03*
X825000Y675000D02*
D03*
X800000Y1200000D02*
D03*
X1500000Y975000D02*
D03*
X1600000Y125000D02*
D03*
X1750000Y675000D02*
D03*
X1625000D02*
D03*
X675000Y1200000D02*
D03*
X1975000Y2925000D02*
D03*
Y2475000D02*
D03*
D17*
X825000Y2450000D02*
D03*
X1750000Y500000D02*
D03*
X1025000Y2450000D02*
D03*
X1150000D02*
D03*
X700000D02*
D03*
X400000Y2700000D02*
D03*
X525000D02*
D03*
X650000D02*
D03*
X775000Y2850000D02*
D03*
X900000D02*
D03*
X1025000D02*
D03*
X175000Y2450000D02*
D03*
X1275000Y2300000D02*
D03*
X1675000Y2450000D02*
D03*
X575000D02*
D03*
X1975000Y2025000D02*
D03*
X1475000Y1725000D02*
D03*
X825000Y825000D02*
D03*
X800000Y1050000D02*
D03*
X1500000Y1125000D02*
D03*
X1600000Y275000D02*
D03*
X1750000Y825000D02*
D03*
X1625000Y825000D02*
D03*
X675000Y1050000D02*
D03*
X1975000Y2775000D02*
D03*
Y2325000D02*
D03*
D18*
X1150000Y2850000D02*
D03*
X1275000Y2850000D02*
D03*
X1400000Y2850000D02*
D03*
D19*
X1150000Y2700000D02*
D03*
X1275000D02*
D03*
X1400000Y2700000D02*
D03*
D20*
X692500Y2992500D02*
D03*
X907500Y3407500D02*
D03*
Y2992500D02*
D03*
X692500Y3407500D02*
D03*
X142500Y2992500D02*
D03*
X357500Y3407500D02*
D03*
Y2992500D02*
D03*
X142500Y3407500D02*
D03*
D21*
X1275000Y1125000D02*
D03*
X300000Y1650000D02*
D03*
X1275000Y1000000D02*
D03*
X300000Y1900000D02*
D03*
Y1525000D02*
D03*
X150000Y2025000D02*
D03*
X300000Y1400000D02*
D03*
D22*
X1125000Y1125000D02*
D03*
X150000Y1650000D02*
D03*
X1125000Y1000000D02*
D03*
X150000Y1900000D02*
D03*
Y1525000D02*
D03*
X300000Y2025000D02*
D03*
X150000Y1400000D02*
D03*
D23*
X1877500Y852500D02*
D03*
X1942500D02*
D03*
X2007500D02*
D03*
X2072500D02*
D03*
Y647500D02*
D03*
X2007500D02*
D03*
X1942500D02*
D03*
X1877500D02*
D03*
D24*
X1347500Y3284644D02*
D03*
Y3419644D02*
D03*
X1202500Y3284644D02*
D03*
Y3419644D02*
D03*
D25*
X1275000Y3277144D02*
D03*
Y3427144D02*
D03*
D26*
X1975000Y3055000D02*
D03*
Y3395000D02*
D03*
D27*
X1407500Y2425000D02*
D03*
X1542500Y2325000D02*
D03*
X1407500D02*
D03*
X1542500Y2425000D02*
D03*
D28*
X1025000Y667500D02*
D03*
X1025000Y832500D02*
D03*
D29*
X1240000Y105000D02*
D03*
X1240000Y295000D02*
D03*
X1460000Y105000D02*
D03*
Y295000D02*
D03*
X1240000Y200000D02*
D03*
D30*
X1825000Y1875000D02*
D03*
D31*
X1931066Y1768934D02*
D03*
D32*
X1350000Y750000D02*
D03*
D33*
X1472500Y850000D02*
D03*
X1472500Y800000D02*
D03*
Y750000D02*
D03*
Y700000D02*
D03*
X1472500Y650000D02*
D03*
X1227500Y650000D02*
D03*
Y700000D02*
D03*
Y750000D02*
D03*
Y800000D02*
D03*
X1227500Y850000D02*
D03*
D34*
X575000Y925000D02*
D03*
X480000Y725000D02*
D03*
X670000D02*
D03*
X225000Y925000D02*
D03*
X130000Y725000D02*
D03*
X320000D02*
D03*
X225000Y1275000D02*
D03*
X130000Y1075000D02*
D03*
X320000D02*
D03*
D35*
X300000Y2375000D02*
D03*
X450000D02*
D03*
D36*
X945000Y1995000D02*
D03*
X905000D02*
D03*
X985000D02*
D03*
X1025000D02*
D03*
X1105000D02*
D03*
X1145000D02*
D03*
X865000D02*
D03*
X825000D02*
D03*
X785000D02*
D03*
X745000D02*
D03*
X705000D02*
D03*
X1065000D02*
D03*
X905000Y1405000D02*
D03*
X945000D02*
D03*
X865000D02*
D03*
X825000D02*
D03*
X745000D02*
D03*
X705000D02*
D03*
X985000D02*
D03*
X1025000D02*
D03*
X1065000D02*
D03*
X1105000D02*
D03*
X1145000D02*
D03*
X785000D02*
D03*
D37*
X1220000Y1680000D02*
D03*
Y1720000D02*
D03*
Y1640000D02*
D03*
Y1600000D02*
D03*
Y1520000D02*
D03*
Y1480000D02*
D03*
Y1760000D02*
D03*
Y1800000D02*
D03*
Y1840000D02*
D03*
Y1880000D02*
D03*
Y1920000D02*
D03*
Y1560000D02*
D03*
X630000Y1720000D02*
D03*
Y1680000D02*
D03*
Y1760000D02*
D03*
Y1800000D02*
D03*
Y1880000D02*
D03*
Y1920000D02*
D03*
Y1640000D02*
D03*
Y1600000D02*
D03*
Y1560000D02*
D03*
Y1520000D02*
D03*
Y1480000D02*
D03*
Y1840000D02*
D03*
D38*
X135000Y159500D02*
D03*
Y286500D02*
D03*
Y413500D02*
D03*
Y540500D02*
D03*
X715000D02*
D03*
Y413500D02*
D03*
Y286500D02*
D03*
Y159500D02*
D03*
D39*
X425000Y350000D02*
D03*
D40*
X1347500Y2887500D02*
Y3284644D01*
Y2887500D02*
X1385000Y2850000D01*
X1202500Y2887500D02*
Y3284644D01*
X1165000Y2850000D02*
X1202500Y2887500D01*
X1475000Y1825000D02*
Y1875000D01*
X1945000Y612374D02*
Y645000D01*
X1962574Y594800D02*
X2044800D01*
X1942500Y647500D02*
X1945000Y645000D01*
Y612374D02*
X1962574Y594800D01*
X2070000Y645000D02*
X2072500Y647500D01*
X2070000Y620000D02*
Y645000D01*
X2044800Y594800D02*
X2070000Y620000D01*
X1942500Y640000D02*
Y721675D01*
X1875000Y625000D02*
Y645000D01*
X1750000Y500000D02*
X1875000Y625000D01*
Y645000D02*
X1877500Y647500D01*
X2005000Y645000D02*
X2007500Y647500D01*
X2007300Y647700D02*
Y756371D01*
X1945000Y818671D02*
X2007300Y756371D01*
X1945000Y818671D02*
Y852500D01*
X1942500D02*
Y907426D01*
X1924927Y925000D02*
X1942500Y907426D01*
X1825000Y925000D02*
X1924927D01*
X1775000Y975000D02*
X1825000Y925000D01*
X2007300Y647700D02*
X2007500Y647500D01*
X1877500Y797500D02*
X1925000Y750000D01*
X1877500Y797500D02*
Y852500D01*
X1925000Y739176D02*
Y750000D01*
Y739176D02*
X1942500Y721675D01*
X1150000Y2850000D02*
X1165000D01*
X1385000Y2850000D02*
X1400000D01*
X1275000Y2850000D02*
Y3277143D01*
X1225000Y850000D02*
Y875000D01*
X1475000Y625000D02*
Y650000D01*
X1082500Y667500D02*
X1115000Y700000D01*
X1227500D01*
X1025000Y667500D02*
X1082500D01*
X1082500Y832500D02*
X1115000Y800000D01*
X1025000Y832500D02*
X1082500D01*
X1115000Y800000D02*
X1227500D01*
X1600000Y850000D02*
X1625000Y825000D01*
X1472500Y850000D02*
X1600000D01*
X1250000Y900000D02*
X1468750D01*
X1472500Y896250D01*
Y850000D02*
Y896250D01*
X1225000Y875000D02*
X1250000Y900000D01*
X1225000Y850000D02*
X1227500D01*
X1475000Y650000D02*
X1525000D01*
X1472500D02*
X1475000D01*
X1525000D02*
X1550000Y675000D01*
Y725000D01*
X1525000Y750000D02*
X1550000Y725000D01*
X1472500Y750000D02*
X1525000D01*
X1227500D02*
X1350000D01*
Y800000D02*
X1472500D01*
X1350000Y700000D02*
X1472500D01*
X1425000Y600000D02*
X1450000D01*
X1250000D02*
X1425000D01*
Y475000D02*
Y600000D01*
X1225000Y625000D02*
X1250000Y600000D01*
X1225000Y625000D02*
Y650000D01*
X1227500D01*
X1450000Y600000D02*
X1475000Y625000D01*
D41*
X1725000Y1300000D02*
X1880000D01*
X1725000Y1500000D02*
X1880000D01*
X805740Y3024050D02*
X837290Y2992500D01*
X907500D01*
X805740Y3024050D02*
Y3044260D01*
X800000Y3050000D02*
X805740Y3044260D01*
X907500Y3387500D02*
Y3407500D01*
X800000Y3050000D02*
Y3280000D01*
X907500Y3387500D01*
X1103750Y3423394D02*
X1347500D01*
X1275000Y2450000D02*
X1295000Y2430000D01*
X1402500D01*
X1407500Y2425000D01*
X1542300Y2324800D02*
X1557100Y2310000D01*
X1665000D01*
X1675000Y2300000D01*
X745000Y540500D02*
X798760Y594260D01*
X819260D02*
X825000Y600000D01*
X715000Y540500D02*
X745000D01*
X798760Y594260D02*
X819260D01*
X825000Y600000D02*
Y675000D01*
X1347500Y3419644D02*
Y3423394D01*
X1100000Y3427144D02*
X1103750Y3423394D01*
X1437500Y295000D02*
X1460000D01*
X1425000Y307500D02*
Y475000D01*
Y307500D02*
X1437500Y295000D01*
X1460000D02*
X1580000D01*
X1600000Y275000D01*
X1083118Y125000D02*
X1103118Y105000D01*
X1240000D01*
X1075000Y125000D02*
X1083118D01*
Y275000D02*
X1103118Y295000D01*
X1240000D01*
X1075000Y275000D02*
X1083118D01*
X142500Y2992500D02*
Y3407500D01*
D42*
X1750000Y275000D02*
Y350000D01*
X1675000Y500000D02*
X1750000D01*
X1500000Y1300000D02*
X1575000D01*
X1500000Y1500000D02*
X1575000D01*
X1025000Y2850000D02*
Y2925000D01*
Y2625000D02*
Y2700000D01*
X650000Y2625000D02*
Y2700000D01*
X825000Y2225000D02*
Y2300000D01*
Y2450000D02*
X825000Y2450000D01*
X900000D01*
X1500000Y1125000D02*
Y1200000D01*
X300000Y1775000D02*
X375000D01*
X1025000Y2225000D02*
Y2300000D01*
X1750000Y600000D02*
Y675000D01*
X1425000Y475000D02*
X1500000D01*
X300000Y2025000D02*
X375000D01*
X130000Y1075000D02*
Y1150000D01*
Y725000D02*
Y800000D01*
X480000Y725000D02*
Y800000D01*
X575000Y925000D02*
X650000D01*
X225000D02*
X300000D01*
X225000Y1275000D02*
X300000D01*
X675000Y1050000D02*
X800000D01*
X675000Y1200000D02*
X800000D01*
X525000Y2850000D02*
Y2925000D01*
X1025000Y2450000D02*
Y2525000D01*
X1150000Y2225000D02*
Y2300000D01*
Y2450000D02*
Y2525000D01*
X700000Y2450000D02*
Y2525000D01*
X400000Y2625000D02*
Y2700000D01*
X525000Y2625000D02*
Y2700000D01*
X670000Y725000D02*
Y800000D01*
X320000Y725000D02*
Y800000D01*
Y1075000D02*
Y1150000D01*
X1275000Y2225000D02*
Y2300000D01*
X600000Y1200000D02*
X675000D01*
X75000Y1775000D02*
X150000D01*
X600000Y1050000D02*
X675000D01*
X1600000Y125000D02*
X1675000D01*
X825000Y825000D02*
Y900000D01*
X850000Y475000D02*
X925000D01*
X1200000D02*
X1275000D01*
X1625000Y600000D02*
Y675000D01*
X1407500Y2250000D02*
Y2325000D01*
X1675000Y2450000D02*
Y2525000D01*
X575000Y2450000D02*
Y2525000D01*
X175000Y2450000D02*
Y2525000D01*
D43*
X1150000Y2625000D02*
Y2700000D01*
X1050683Y999772D02*
X1125000D01*
Y1125000D01*
X1050455Y999545D02*
X1050683Y999772D01*
X1500000Y975000D02*
X1625000D01*
X1500000Y975000D02*
X1500000Y975000D01*
X150000Y2025000D02*
Y2125000D01*
Y1900000D02*
Y2025000D01*
X75000Y1400000D02*
X150000D01*
X75000Y1525000D02*
X150000D01*
X1240000Y200000D02*
X1350000D01*
X692500Y3332500D02*
Y3407500D01*
X142500Y2992500D02*
X217500D01*
X1400000Y2625000D02*
Y2700000D01*
X1275000Y2625000D02*
Y2700000D01*
X692500Y2992500D02*
Y3067500D01*
X357500Y3332500D02*
Y3407500D01*
Y2992500D02*
Y3067500D01*
X300000Y1900000D02*
X375000D01*
X75000Y1650000D02*
X150000D01*
D44*
X1861500Y490500D02*
D03*
X925000Y3125000D02*
D03*
Y3275000D02*
D03*
X1075000Y275000D02*
D03*
Y125000D02*
D03*
X925000Y275000D02*
D03*
X1000000Y200000D02*
D03*
X925000Y125000D02*
D03*
X1000000Y3200000D02*
D03*
X1075000Y3125000D02*
D03*
Y3275000D02*
D03*
X925000Y2100000D02*
D03*
X1750000Y275000D02*
D03*
X1675000Y500000D02*
D03*
X2070000Y950000D02*
D03*
X1500000Y1300000D02*
D03*
Y1500000D02*
D03*
X1025000Y2625000D02*
D03*
X650000D02*
D03*
X800000Y3050000D02*
D03*
X1465000Y2925000D02*
D03*
Y3025000D02*
D03*
Y3125000D02*
D03*
Y3225000D02*
D03*
Y3425000D02*
D03*
X1025000Y2925000D02*
D03*
X900000Y2450000D02*
D03*
X825000Y2225000D02*
D03*
X687690Y2206090D02*
D03*
X1150000Y2625000D02*
D03*
X1050455Y999545D02*
D03*
X1071426Y1216814D02*
D03*
X1325000Y1125000D02*
D03*
Y1000000D02*
D03*
X1500000Y1200000D02*
D03*
X2070000Y760000D02*
D03*
X1025000Y2100000D02*
D03*
X85000Y540500D02*
D03*
Y413500D02*
D03*
X1575000Y2815000D02*
D03*
X1435393Y2007548D02*
D03*
X1368100Y1933578D02*
D03*
X375000Y1775000D02*
D03*
X525000Y1500000D02*
D03*
X524243Y1398917D02*
D03*
X417626Y1017626D02*
D03*
X1239294Y2109293D02*
D03*
X1348604Y1417785D02*
D03*
X1365400Y1319206D02*
D03*
X1332700Y1224703D02*
D03*
X765000Y413500D02*
D03*
Y286500D02*
D03*
Y159500D02*
D03*
X85000D02*
D03*
Y286500D02*
D03*
X895653Y1214053D02*
D03*
X1002700Y1289455D02*
D03*
X1140000Y1289600D02*
D03*
X807300Y1290000D02*
D03*
X691688Y1287700D02*
D03*
X570000Y1310000D02*
D03*
X625000Y1400000D02*
D03*
X1465000Y3325000D02*
D03*
X1675000Y2815000D02*
D03*
X1775000D02*
D03*
X1025000Y2225000D02*
D03*
X1988500Y363500D02*
D03*
X550000Y475000D02*
D03*
X300000D02*
D03*
Y225000D02*
D03*
X550000D02*
D03*
X425000D02*
D03*
Y475000D02*
D03*
X300000Y350000D02*
D03*
X550000D02*
D03*
X425000D02*
D03*
X1988500Y109500D02*
D03*
X1861500D02*
D03*
Y236500D02*
D03*
X1988500D02*
D03*
X1861500Y363500D02*
D03*
X1988500Y490500D02*
D03*
X1925000Y750000D02*
D03*
X1500000Y475000D02*
D03*
X150000Y2125000D02*
D03*
X375000Y2025000D02*
D03*
X130000Y1150000D02*
D03*
Y800000D02*
D03*
X480000D02*
D03*
X650000Y925000D02*
D03*
X300000D02*
D03*
Y1275000D02*
D03*
X75000Y1400000D02*
D03*
Y1525000D02*
D03*
X1350000Y200000D02*
D03*
X525000Y2925000D02*
D03*
X660000Y2110000D02*
D03*
X778557Y2127342D02*
D03*
X692500Y3332500D02*
D03*
X217500Y2992500D02*
D03*
X1100000Y3427144D02*
D03*
X1025000Y2525000D02*
D03*
X1150000Y2225000D02*
D03*
Y2525000D02*
D03*
X700000D02*
D03*
X1400000Y2625000D02*
D03*
X1275000Y2625000D02*
D03*
X400000D02*
D03*
X525000D02*
D03*
X1075000Y1550000D02*
D03*
X925000D02*
D03*
X775000D02*
D03*
Y1700000D02*
D03*
Y1850000D02*
D03*
X925000D02*
D03*
X1075000D02*
D03*
Y1700000D02*
D03*
X925000D02*
D03*
X670000Y800000D02*
D03*
X320000D02*
D03*
Y1150000D02*
D03*
X1350000Y700000D02*
D03*
Y800000D02*
D03*
X1275000Y2225000D02*
D03*
X600000Y1200000D02*
D03*
X825000Y600000D02*
D03*
X692500Y3067500D02*
D03*
X357500Y3332500D02*
D03*
Y3067500D02*
D03*
X375000Y1900000D02*
D03*
X75000Y1775000D02*
D03*
X600000Y1050000D02*
D03*
X1675000Y125000D02*
D03*
X825000Y900000D02*
D03*
X850000Y475000D02*
D03*
X1200000D02*
D03*
X1750000Y600000D02*
D03*
X1625000D02*
D03*
X1407500Y2250000D02*
D03*
X1675000Y2525000D02*
D03*
X575000D02*
D03*
X75000Y1650000D02*
D03*
X175000Y2525000D02*
D03*
X1475000Y1825000D02*
D03*
X1869395Y1628950D02*
D03*
X1962979Y1664193D02*
D03*
X2035361Y1733192D02*
D03*
X2075000Y1825000D02*
D03*
X2075000Y2725000D02*
D03*
X2075000Y2815000D02*
D03*
X1875000D02*
D03*
Y2725000D02*
D03*
X2075000Y2325000D02*
D03*
Y2425000D02*
D03*
Y2625000D02*
D03*
Y2525000D02*
D03*
X1875000D02*
D03*
Y2625000D02*
D03*
Y2425000D02*
D03*
Y2325000D02*
D03*
X2075000Y1925000D02*
D03*
Y2025000D02*
D03*
Y2225000D02*
D03*
Y2125000D02*
D03*
X1875000D02*
D03*
Y2225000D02*
D03*
Y2025000D02*
D03*
Y1925000D02*
D03*
X1575000Y1825000D02*
D03*
X1775000D02*
D03*
X1675000D02*
D03*
Y1625000D02*
D03*
X1775000D02*
D03*
X1575000D02*
D03*
X1475000D02*
D03*
X1625000Y975000D02*
D03*
X1700000Y1050000D02*
D03*
X1625000Y1125000D02*
D03*
X1775000D02*
D03*
Y975000D02*
D03*
%TF.MD5,c84b8c974f39f44a72667adc239a5707*%
M02*
