%TF.GenerationSoftware,Altium Limited,Altium Designer,22.11.1 (43)*%
G04 Layer_Physical_Order=5*
G04 Layer_Color=16440176*
%FSLAX45Y45*%
%MOMM*%
%TF.SameCoordinates,68354FB4-E10A-4FE8-B7D5-3B9F33A940C7*%
%TF.FilePolarity,Positive*%
%TF.FileFunction,Copper,L5,Inr,Signal*%
%TF.Part,Single*%
G01*
G75*
%TA.AperFunction,ViaPad*%
%ADD44C,0.70000*%
G36*
X1061949Y3474511D02*
X1067210Y3461811D01*
X1059562Y3454164D01*
X1052300Y3436632D01*
Y3417656D01*
X1059562Y3400124D01*
X1072980Y3386706D01*
X1090512Y3379444D01*
X1109488D01*
X1127020Y3386706D01*
X1140438Y3400124D01*
X1147700Y3417656D01*
Y3436632D01*
X1140438Y3454164D01*
X1132790Y3461811D01*
X1138051Y3474511D01*
X1500000D01*
Y2850000D01*
X2124512D01*
Y1317700D01*
X1912301D01*
Y1092300D01*
X2124512D01*
Y976230D01*
X2111812Y973704D01*
X2110438Y977020D01*
X2097020Y990438D01*
X2079488Y997700D01*
X2060512D01*
X2042980Y990438D01*
X2029562Y977020D01*
X2022300Y959488D01*
Y940512D01*
X2029562Y922980D01*
X2042980Y909562D01*
X2060512Y902300D01*
X2079488D01*
X2097020Y909562D01*
X2110438Y922980D01*
X2111812Y926296D01*
X2124512Y923770D01*
Y786230D01*
X2111812Y783704D01*
X2110438Y787020D01*
X2097020Y800438D01*
X2079488Y807700D01*
X2060512D01*
X2042980Y800438D01*
X2029562Y787020D01*
X2022300Y769488D01*
Y750512D01*
X2029562Y732980D01*
X2042980Y719562D01*
X2060512Y712300D01*
X2079488D01*
X2097020Y719562D01*
X2110438Y732980D01*
X2111812Y736296D01*
X2124512Y733770D01*
Y125000D01*
Y115200D01*
X2120687Y95973D01*
X2113186Y77864D01*
X2102295Y61564D01*
X2088435Y47704D01*
X2072136Y36814D01*
X2054027Y29313D01*
X2034801Y25488D01*
X2025000D01*
X125000Y25488D01*
X115199D01*
X95973Y29312D01*
X77863Y36814D01*
X61564Y47705D01*
X47704Y61565D01*
X36814Y77863D01*
X29312Y95974D01*
X25488Y115199D01*
X25488Y124999D01*
Y274867D01*
X37300Y277012D01*
X44562Y259480D01*
X57980Y246062D01*
X75512Y238800D01*
X94488D01*
X112020Y246062D01*
X125438Y259480D01*
X132700Y277012D01*
Y295988D01*
X125438Y313520D01*
X112020Y326938D01*
X94488Y334200D01*
X75512D01*
X57980Y326938D01*
X44562Y313520D01*
X37300Y295988D01*
X25488Y298134D01*
Y401867D01*
X37300Y404012D01*
X44562Y386480D01*
X57980Y373062D01*
X75512Y365800D01*
X94488D01*
X112020Y373062D01*
X125438Y386480D01*
X132700Y404012D01*
Y422988D01*
X125438Y440520D01*
X112020Y453938D01*
X94488Y461200D01*
X75512D01*
X57980Y453938D01*
X44562Y440520D01*
X37300Y422988D01*
X25488Y425134D01*
Y528867D01*
X37300Y531012D01*
X44562Y513481D01*
X57980Y500062D01*
X75512Y492800D01*
X94488D01*
X112020Y500062D01*
X125438Y513481D01*
X132700Y531012D01*
Y549988D01*
X125438Y567520D01*
X112020Y580938D01*
X94488Y588200D01*
X75512D01*
X57980Y580938D01*
X44562Y567520D01*
X37300Y549989D01*
X25488Y552134D01*
Y1364225D01*
X38188Y1369354D01*
X47980Y1359562D01*
X65512Y1352300D01*
X84488D01*
X102020Y1359562D01*
X115438Y1372980D01*
X122700Y1390512D01*
Y1409488D01*
X115438Y1427019D01*
X102020Y1440438D01*
X84488Y1447700D01*
X65512D01*
X47980Y1440438D01*
X38188Y1430646D01*
X25488Y1435774D01*
Y1489225D01*
X38188Y1494354D01*
X47980Y1484562D01*
X65512Y1477300D01*
X84488D01*
X102020Y1484562D01*
X115438Y1497980D01*
X122700Y1515512D01*
Y1534488D01*
X115438Y1552020D01*
X102020Y1565438D01*
X84488Y1572700D01*
X65512D01*
X47980Y1565438D01*
X38188Y1555646D01*
X25488Y1560775D01*
Y1614225D01*
X38188Y1619354D01*
X47980Y1609562D01*
X65512Y1602300D01*
X84488D01*
X102020Y1609562D01*
X115438Y1622980D01*
X122700Y1640512D01*
Y1659488D01*
X115438Y1677020D01*
X102020Y1690438D01*
X84488Y1697700D01*
X65512D01*
X47980Y1690438D01*
X38188Y1680646D01*
X25488Y1685775D01*
Y2526146D01*
X63029Y2533613D01*
X65349Y2534574D01*
X67811Y2535064D01*
X104033Y2550067D01*
X106120Y2551462D01*
X108440Y2552423D01*
X141039Y2574205D01*
X142814Y2575980D01*
X144902Y2577375D01*
X172625Y2605098D01*
X174019Y2607185D01*
X175795Y2608960D01*
X197577Y2641560D01*
X198538Y2643879D01*
X199933Y2645967D01*
X214936Y2682189D01*
X215426Y2684651D01*
X216387Y2686970D01*
X224036Y2725424D01*
Y2727935D01*
X224525Y2730397D01*
Y2769603D01*
X224036Y2772065D01*
Y2774576D01*
X216387Y2813029D01*
X215426Y2815349D01*
X214936Y2817811D01*
X199933Y2854033D01*
X198538Y2856121D01*
X197577Y2858440D01*
X175795Y2891039D01*
X174020Y2892814D01*
X172625Y2894902D01*
X144902Y2922625D01*
X142815Y2924019D01*
X141039Y2925795D01*
X108440Y2947577D01*
X106121Y2948538D01*
X104033Y2949933D01*
X67811Y2964936D01*
X65349Y2965426D01*
X63029Y2966387D01*
X25488Y2973854D01*
Y3384801D01*
X29313Y3404027D01*
X36813Y3422136D01*
X47705Y3438436D01*
X61565Y3452296D01*
X77863Y3463186D01*
X95973Y3470687D01*
X115200Y3474512D01*
X125000D01*
X1061949Y3474511D01*
D02*
G37*
G36*
X2125002Y1105000D02*
X1925001D01*
Y1305000D01*
X2125002D01*
Y1105000D01*
D02*
G37*
%LPC*%
G36*
X701988Y3380200D02*
X683012D01*
X665481Y3372938D01*
X652062Y3359520D01*
X644800Y3341988D01*
Y3323012D01*
X652062Y3305480D01*
X665481Y3292062D01*
X683012Y3284800D01*
X701988D01*
X719520Y3292062D01*
X732938Y3305480D01*
X740200Y3323012D01*
Y3341988D01*
X732938Y3359520D01*
X719520Y3372938D01*
X701988Y3380200D01*
D02*
G37*
G36*
Y3115200D02*
X683012D01*
X665481Y3107938D01*
X652062Y3094520D01*
X644800Y3076988D01*
Y3058012D01*
X652062Y3040480D01*
X665481Y3027062D01*
X683012Y3019800D01*
X701988D01*
X719520Y3027062D01*
X732938Y3040480D01*
X740200Y3058011D01*
X752299Y3056562D01*
X752300Y3040512D01*
X759562Y3022980D01*
X772980Y3009562D01*
X790512Y3002300D01*
X809488D01*
X827020Y3009562D01*
X840438Y3022980D01*
X847700Y3040512D01*
Y3059488D01*
X840438Y3077020D01*
X827020Y3090438D01*
X809488Y3097700D01*
X790512D01*
X772980Y3090438D01*
X759562Y3077020D01*
X752300Y3059489D01*
X740201Y3060938D01*
X740200Y3076988D01*
X732938Y3094520D01*
X719520Y3107938D01*
X701988Y3115200D01*
D02*
G37*
G36*
X226988Y3040200D02*
X208012D01*
X190480Y3032938D01*
X177062Y3019520D01*
X169800Y3001988D01*
Y2983012D01*
X177062Y2965480D01*
X190480Y2952062D01*
X208012Y2944800D01*
X226988D01*
X244520Y2952062D01*
X257938Y2965480D01*
X265200Y2983012D01*
Y3001988D01*
X257938Y3019520D01*
X244520Y3032938D01*
X226988Y3040200D01*
D02*
G37*
G36*
X1034488Y2972700D02*
X1015512D01*
X997980Y2965438D01*
X984562Y2952020D01*
X977300Y2934488D01*
Y2915512D01*
X984562Y2897980D01*
X997980Y2884562D01*
X1015512Y2877300D01*
X1034488D01*
X1052020Y2884562D01*
X1065438Y2897980D01*
X1072700Y2915512D01*
Y2934488D01*
X1065438Y2952020D01*
X1052020Y2965438D01*
X1034488Y2972700D01*
D02*
G37*
G36*
X534488D02*
X515512D01*
X497980Y2965438D01*
X484562Y2952020D01*
X477300Y2934488D01*
Y2915512D01*
X484562Y2897980D01*
X497980Y2884562D01*
X515512Y2877300D01*
X534488D01*
X552020Y2884562D01*
X565438Y2897980D01*
X572700Y2915512D01*
Y2934488D01*
X565438Y2952020D01*
X552020Y2965438D01*
X534488Y2972700D01*
D02*
G37*
G36*
X1409488Y2672700D02*
X1390512D01*
X1372980Y2665438D01*
X1359562Y2652020D01*
X1352300Y2634489D01*
Y2615512D01*
X1359562Y2597981D01*
X1372980Y2584562D01*
X1390512Y2577300D01*
X1409488D01*
X1427020Y2584562D01*
X1440438Y2597981D01*
X1447700Y2615512D01*
Y2634489D01*
X1440438Y2652020D01*
X1427020Y2665438D01*
X1409488Y2672700D01*
D02*
G37*
G36*
X1284488Y2672700D02*
X1265512D01*
X1247980Y2665438D01*
X1234562Y2652020D01*
X1227300Y2634488D01*
Y2615512D01*
X1234562Y2597980D01*
X1247980Y2584562D01*
X1265512Y2577300D01*
X1284488D01*
X1302019Y2584562D01*
X1315438Y2597980D01*
X1322700Y2615512D01*
Y2634488D01*
X1315438Y2652020D01*
X1302019Y2665438D01*
X1284488Y2672700D01*
D02*
G37*
G36*
X1159488D02*
X1140512D01*
X1122980Y2665438D01*
X1109562Y2652020D01*
X1102300Y2634488D01*
Y2615512D01*
X1109562Y2597980D01*
X1122980Y2584562D01*
X1140512Y2577300D01*
X1159488D01*
X1177020Y2584562D01*
X1190438Y2597980D01*
X1197700Y2615512D01*
Y2634488D01*
X1190438Y2652020D01*
X1177020Y2665438D01*
X1159488Y2672700D01*
D02*
G37*
G36*
X409488D02*
X390512D01*
X372980Y2665438D01*
X359562Y2652020D01*
X352300Y2634488D01*
Y2615512D01*
X359562Y2597980D01*
X372980Y2584562D01*
X390512Y2577300D01*
X409488D01*
X427020Y2584562D01*
X440438Y2597980D01*
X447700Y2615512D01*
Y2634488D01*
X440438Y2652020D01*
X427020Y2665438D01*
X409488Y2672700D01*
D02*
G37*
G36*
X1159488Y2272700D02*
X1140512D01*
X1122980Y2265438D01*
X1109562Y2252020D01*
X1102300Y2234488D01*
Y2215512D01*
X1109562Y2197980D01*
X1122980Y2184562D01*
X1140512Y2177300D01*
X1159488D01*
X1177020Y2184562D01*
X1190438Y2197980D01*
X1197700Y2215512D01*
Y2234488D01*
X1190438Y2252020D01*
X1177020Y2265438D01*
X1159488Y2272700D01*
D02*
G37*
G36*
X1034488D02*
X1015512D01*
X997980Y2265438D01*
X984562Y2252020D01*
X977300Y2234488D01*
Y2215512D01*
X984562Y2197980D01*
X997980Y2184562D01*
X1015512Y2177300D01*
X1034488D01*
X1052020Y2184562D01*
X1065438Y2197980D01*
X1072700Y2215512D01*
Y2234488D01*
X1065438Y2252020D01*
X1052020Y2265438D01*
X1034488Y2272700D01*
D02*
G37*
G36*
X834488D02*
X815512D01*
X797980Y2265438D01*
X784562Y2252020D01*
X777300Y2234488D01*
Y2215512D01*
X784562Y2197980D01*
X797980Y2184562D01*
X792930Y2173019D01*
X788045Y2175042D01*
X769069D01*
X751537Y2167780D01*
X738119Y2154362D01*
X730857Y2136830D01*
Y2117854D01*
X738119Y2100322D01*
X751537Y2086904D01*
X769069Y2079642D01*
X788045D01*
X805576Y2086904D01*
X818995Y2100322D01*
X826257Y2117854D01*
Y2136830D01*
X818995Y2154362D01*
X805577Y2167780D01*
X810627Y2179324D01*
X815512Y2177300D01*
X834488D01*
X852020Y2184562D01*
X865438Y2197980D01*
X872700Y2215512D01*
Y2234488D01*
X865438Y2252020D01*
X852020Y2265438D01*
X834488Y2272700D01*
D02*
G37*
G36*
X159488Y2172700D02*
X140512D01*
X122980Y2165438D01*
X109562Y2152020D01*
X102300Y2134488D01*
Y2115512D01*
X109562Y2097980D01*
X122980Y2084562D01*
X140512Y2077300D01*
X159488D01*
X177020Y2084562D01*
X190438Y2097980D01*
X197700Y2115512D01*
Y2134488D01*
X190438Y2152020D01*
X177020Y2165438D01*
X159488Y2172700D01*
D02*
G37*
G36*
X697178Y2253790D02*
X678202D01*
X660671Y2246528D01*
X647252Y2233110D01*
X639990Y2215578D01*
Y2196602D01*
X647252Y2179070D01*
X655922Y2170400D01*
X650662Y2157700D01*
X650512D01*
X632980Y2150438D01*
X619562Y2137020D01*
X612300Y2119488D01*
Y2100512D01*
X619562Y2082980D01*
X632980Y2069562D01*
X650512Y2062300D01*
X669488D01*
X687020Y2069562D01*
X700438Y2082980D01*
X707700Y2100512D01*
Y2119488D01*
X700438Y2137020D01*
X691768Y2145690D01*
X697029Y2158390D01*
X697178D01*
X714710Y2165652D01*
X728128Y2179070D01*
X735390Y2196602D01*
Y2215578D01*
X728128Y2233110D01*
X714710Y2246528D01*
X697178Y2253790D01*
D02*
G37*
G36*
X1248782Y2156993D02*
X1229806D01*
X1212274Y2149732D01*
X1198856Y2136313D01*
X1191594Y2118782D01*
Y2099805D01*
X1198856Y2082274D01*
X1212274Y2068855D01*
X1229806Y2061594D01*
X1248782D01*
X1266313Y2068855D01*
X1279732Y2082274D01*
X1286994Y2099805D01*
Y2118782D01*
X1279732Y2136313D01*
X1266313Y2149732D01*
X1248782Y2156993D01*
D02*
G37*
G36*
X1034488Y2147700D02*
X1015512D01*
X997980Y2140438D01*
X984562Y2127020D01*
X977300Y2109488D01*
Y2090512D01*
X984562Y2072980D01*
X997980Y2059562D01*
X1015512Y2052300D01*
X1034488D01*
X1052020Y2059562D01*
X1065438Y2072980D01*
X1072700Y2090512D01*
Y2109488D01*
X1065438Y2127020D01*
X1052020Y2140438D01*
X1034488Y2147700D01*
D02*
G37*
G36*
X1444881Y2055248D02*
X1425905D01*
X1408373Y2047986D01*
X1394955Y2034568D01*
X1387693Y2017036D01*
Y1998060D01*
X1391304Y1989343D01*
X1381584Y1979622D01*
X1377588Y1981277D01*
X1358612D01*
X1341080Y1974016D01*
X1327662Y1960597D01*
X1320400Y1943066D01*
Y1924089D01*
X1327662Y1906558D01*
X1341080Y1893139D01*
X1358612Y1885878D01*
X1377588D01*
X1395120Y1893139D01*
X1408538Y1906558D01*
X1415800Y1924089D01*
Y1943066D01*
X1412189Y1951783D01*
X1421910Y1961503D01*
X1425905Y1959848D01*
X1444881D01*
X1462413Y1967110D01*
X1475831Y1980528D01*
X1483093Y1998060D01*
Y2017036D01*
X1475831Y2034568D01*
X1462413Y2047986D01*
X1444881Y2055248D01*
D02*
G37*
G36*
X384488Y2072700D02*
X365512D01*
X347980Y2065438D01*
X334562Y2052020D01*
X327300Y2034488D01*
Y2015512D01*
X334562Y1997980D01*
X347980Y1984562D01*
X365512Y1977300D01*
X384488D01*
X402020Y1984562D01*
X415438Y1997980D01*
X422700Y2015512D01*
Y2034488D01*
X415438Y2052020D01*
X402020Y2065438D01*
X384488Y2072700D01*
D02*
G37*
G36*
Y1822700D02*
X365512D01*
X347980Y1815438D01*
X334562Y1802020D01*
X327300Y1784488D01*
Y1765512D01*
X334562Y1747980D01*
X347980Y1734562D01*
X365512Y1727300D01*
X384488D01*
X402020Y1734562D01*
X415438Y1747980D01*
X422700Y1765512D01*
Y1784488D01*
X415438Y1802020D01*
X402020Y1815438D01*
X384488Y1822700D01*
D02*
G37*
G36*
X534488Y1547700D02*
X515512D01*
X497980Y1540438D01*
X484562Y1527020D01*
X477300Y1509488D01*
Y1490512D01*
X484562Y1472980D01*
X497980Y1459562D01*
X505400Y1456489D01*
Y1442742D01*
X497223Y1439355D01*
X483805Y1425937D01*
X476543Y1408405D01*
Y1389429D01*
X483805Y1371897D01*
X497223Y1358479D01*
X514755Y1351217D01*
X525799D01*
X531059Y1338517D01*
X529562Y1337020D01*
X522300Y1319488D01*
Y1300512D01*
X529562Y1282980D01*
X542980Y1269562D01*
X560512Y1262300D01*
X579488D01*
X597020Y1269562D01*
X610438Y1282980D01*
X617700Y1300512D01*
Y1319488D01*
X610438Y1337020D01*
X604231Y1343226D01*
X611425Y1353993D01*
X615512Y1352300D01*
X634488D01*
X652020Y1359562D01*
X665438Y1372980D01*
X672700Y1390512D01*
Y1409488D01*
X665438Y1427020D01*
X652020Y1440438D01*
X634488Y1447700D01*
X615512D01*
X597980Y1440438D01*
X584562Y1427020D01*
X581270Y1419073D01*
X567524D01*
X564681Y1425937D01*
X551263Y1439355D01*
X543843Y1442429D01*
Y1456175D01*
X552020Y1459562D01*
X565438Y1472980D01*
X572700Y1490512D01*
Y1509488D01*
X565438Y1527020D01*
X552020Y1540438D01*
X534488Y1547700D01*
D02*
G37*
G36*
X1149488Y1337300D02*
X1130512D01*
X1112980Y1330038D01*
X1099562Y1316619D01*
X1092300Y1299088D01*
Y1280111D01*
X1095584Y1272184D01*
X1085863Y1262464D01*
X1080915Y1264514D01*
X1061938D01*
X1056877Y1262418D01*
X1047157Y1272138D01*
X1050400Y1279967D01*
Y1298943D01*
X1043138Y1316475D01*
X1029720Y1329893D01*
X1012188Y1337155D01*
X993212D01*
X975680Y1329893D01*
X962262Y1316475D01*
X955000Y1298943D01*
Y1279967D01*
X962262Y1262435D01*
X975680Y1249017D01*
X993212Y1241755D01*
X1012188D01*
X1017249Y1243851D01*
X1026969Y1234131D01*
X1023726Y1226302D01*
Y1207326D01*
X1030988Y1189794D01*
X1044407Y1176376D01*
X1061938Y1169114D01*
X1080915D01*
X1098446Y1176376D01*
X1111864Y1189794D01*
X1119126Y1207326D01*
Y1226302D01*
X1115843Y1234229D01*
X1125563Y1243950D01*
X1130512Y1241900D01*
X1149488D01*
X1167020Y1249162D01*
X1180438Y1262580D01*
X1187700Y1280111D01*
Y1299088D01*
X1180438Y1316619D01*
X1167020Y1330038D01*
X1149488Y1337300D01*
D02*
G37*
G36*
X816788Y1337700D02*
X797812D01*
X780280Y1330438D01*
X766862Y1317020D01*
X759600Y1299488D01*
Y1280512D01*
X766862Y1262980D01*
X780280Y1249562D01*
X797812Y1242300D01*
X816788D01*
X834320Y1249562D01*
X847738Y1262980D01*
X855000Y1280512D01*
Y1299488D01*
X847738Y1317020D01*
X834320Y1330438D01*
X816788Y1337700D01*
D02*
G37*
G36*
X701176Y1335400D02*
X682200D01*
X664668Y1328139D01*
X651250Y1314720D01*
X643988Y1297189D01*
Y1278212D01*
X651250Y1260681D01*
X664668Y1247262D01*
X682200Y1240001D01*
X701176D01*
X718708Y1247262D01*
X732126Y1260681D01*
X739388Y1278212D01*
Y1297189D01*
X732126Y1314720D01*
X718708Y1328139D01*
X701176Y1335400D01*
D02*
G37*
G36*
X309488Y1322700D02*
X290512D01*
X272980Y1315438D01*
X259562Y1302020D01*
X252300Y1284488D01*
Y1265512D01*
X259562Y1247980D01*
X272980Y1234562D01*
X290512Y1227300D01*
X309488D01*
X327020Y1234562D01*
X340438Y1247980D01*
X347700Y1265512D01*
Y1284488D01*
X340438Y1302020D01*
X327020Y1315438D01*
X309488Y1322700D01*
D02*
G37*
G36*
X905141Y1261753D02*
X886165D01*
X868633Y1254491D01*
X855215Y1241073D01*
X847953Y1223541D01*
Y1204565D01*
X855215Y1187033D01*
X868633Y1173615D01*
X886165Y1166353D01*
X905141D01*
X922673Y1173615D01*
X936091Y1187033D01*
X943353Y1204565D01*
Y1223541D01*
X936091Y1241073D01*
X922673Y1254491D01*
X905141Y1261753D01*
D02*
G37*
G36*
X609488Y1247700D02*
X590512D01*
X572980Y1240438D01*
X559562Y1227020D01*
X552300Y1209488D01*
Y1190512D01*
X559562Y1172980D01*
X572980Y1159562D01*
X590512Y1152300D01*
X609488D01*
X627020Y1159562D01*
X640438Y1172980D01*
X647700Y1190512D01*
Y1209488D01*
X640438Y1227020D01*
X627020Y1240438D01*
X609488Y1247700D01*
D02*
G37*
G36*
X139488Y1197700D02*
X120512D01*
X102980Y1190438D01*
X89562Y1177019D01*
X82300Y1159488D01*
Y1140512D01*
X89562Y1122980D01*
X102980Y1109562D01*
X120512Y1102300D01*
X139488D01*
X157020Y1109562D01*
X170438Y1122980D01*
X177700Y1140512D01*
Y1159488D01*
X170438Y1177019D01*
X157020Y1190438D01*
X139488Y1197700D01*
D02*
G37*
G36*
X1784488Y1172700D02*
X1765512D01*
X1747980Y1165438D01*
X1734562Y1152020D01*
X1727300Y1134488D01*
Y1115512D01*
X1733495Y1100556D01*
X1724444Y1091505D01*
X1709488Y1097700D01*
X1690512D01*
X1675556Y1091505D01*
X1666505Y1100557D01*
X1672700Y1115512D01*
Y1134488D01*
X1665438Y1152020D01*
X1652020Y1165438D01*
X1634488Y1172700D01*
X1615512D01*
X1597980Y1165438D01*
X1584562Y1152020D01*
X1577300Y1134488D01*
Y1115512D01*
X1584562Y1097980D01*
X1597980Y1084562D01*
X1615512Y1077300D01*
X1634488D01*
X1649443Y1083495D01*
X1658495Y1074443D01*
X1652300Y1059488D01*
Y1040512D01*
X1658495Y1025557D01*
X1649443Y1016505D01*
X1634488Y1022700D01*
X1615512D01*
X1597980Y1015438D01*
X1584562Y1002020D01*
X1577300Y984488D01*
Y965512D01*
X1584562Y947980D01*
X1597980Y934562D01*
X1615512Y927300D01*
X1634488D01*
X1652020Y934562D01*
X1665438Y947980D01*
X1672700Y965512D01*
Y984488D01*
X1666505Y999443D01*
X1675557Y1008495D01*
X1690512Y1002300D01*
X1709488D01*
X1724443Y1008495D01*
X1733495Y999444D01*
X1727300Y984488D01*
Y965512D01*
X1734562Y947980D01*
X1747980Y934562D01*
X1765512Y927300D01*
X1784488D01*
X1802020Y934562D01*
X1815438Y947980D01*
X1822700Y965512D01*
Y984488D01*
X1815438Y1002020D01*
X1802020Y1015438D01*
X1784488Y1022700D01*
X1765512D01*
X1750557Y1016505D01*
X1741505Y1025556D01*
X1747700Y1040512D01*
Y1059488D01*
X1741505Y1074444D01*
X1750556Y1083495D01*
X1765512Y1077300D01*
X1784488D01*
X1802020Y1084562D01*
X1815438Y1097980D01*
X1822700Y1115512D01*
Y1134488D01*
X1815438Y1152020D01*
X1802020Y1165438D01*
X1784488Y1172700D01*
D02*
G37*
G36*
X1358092Y1465485D02*
X1339116D01*
X1321584Y1458223D01*
X1308166Y1444805D01*
X1300904Y1427273D01*
Y1408297D01*
X1308166Y1390765D01*
X1321584Y1377347D01*
X1334759Y1371890D01*
X1336447Y1366182D01*
X1337065Y1358634D01*
X1336999Y1358262D01*
X1324962Y1346225D01*
X1317700Y1328694D01*
Y1309717D01*
X1324962Y1292186D01*
X1332045Y1285103D01*
X1326784Y1272403D01*
X1323212D01*
X1305680Y1265141D01*
X1292262Y1251723D01*
X1285000Y1234191D01*
Y1215215D01*
X1292262Y1197683D01*
X1305680Y1184265D01*
X1307963Y1183320D01*
Y1169573D01*
X1297980Y1165438D01*
X1284562Y1152020D01*
X1277300Y1134488D01*
Y1115512D01*
X1284562Y1097980D01*
X1297980Y1084562D01*
X1315512Y1077300D01*
X1334488D01*
X1352020Y1084562D01*
X1365438Y1097980D01*
X1372700Y1115512D01*
Y1134488D01*
X1365438Y1152020D01*
X1352020Y1165438D01*
X1349737Y1166383D01*
Y1180130D01*
X1359720Y1184265D01*
X1373138Y1197683D01*
X1380400Y1215215D01*
Y1234191D01*
X1373138Y1251723D01*
X1366055Y1258806D01*
X1371316Y1271506D01*
X1374888D01*
X1392420Y1278768D01*
X1405838Y1292186D01*
X1413100Y1309717D01*
Y1328694D01*
X1405838Y1346225D01*
X1392420Y1359644D01*
X1379245Y1365101D01*
X1377557Y1370809D01*
X1376939Y1378356D01*
X1377005Y1378729D01*
X1389042Y1390765D01*
X1396304Y1408297D01*
Y1427273D01*
X1389042Y1444805D01*
X1375624Y1458223D01*
X1358092Y1465485D01*
D02*
G37*
G36*
X427114Y1065326D02*
X408137D01*
X390606Y1058064D01*
X377187Y1044645D01*
X369926Y1027114D01*
Y1008137D01*
X377187Y990606D01*
X390606Y977188D01*
X408137Y969926D01*
X427114D01*
X444645Y977188D01*
X458064Y990606D01*
X465325Y1008137D01*
Y1027114D01*
X458064Y1044645D01*
X444645Y1058064D01*
X427114Y1065326D01*
D02*
G37*
G36*
X1334488Y1047700D02*
X1315512D01*
X1297980Y1040438D01*
X1284562Y1027020D01*
X1277300Y1009488D01*
Y990512D01*
X1284562Y972980D01*
X1297980Y959562D01*
X1315512Y952300D01*
X1334488D01*
X1352020Y959562D01*
X1365438Y972980D01*
X1372700Y990512D01*
Y1009488D01*
X1365438Y1027020D01*
X1352020Y1040438D01*
X1334488Y1047700D01*
D02*
G37*
G36*
X1059943Y1047245D02*
X1040967D01*
X1023435Y1039983D01*
X1010017Y1026564D01*
X1002755Y1009033D01*
Y990056D01*
X1010017Y972525D01*
X1023435Y959107D01*
X1040967Y951845D01*
X1059943D01*
X1077475Y959107D01*
X1090893Y972525D01*
X1098155Y990056D01*
Y1009033D01*
X1090893Y1026564D01*
X1077475Y1039983D01*
X1059943Y1047245D01*
D02*
G37*
G36*
X659488Y972700D02*
X640512D01*
X622980Y965438D01*
X609562Y952020D01*
X602300Y934488D01*
Y915512D01*
X609562Y897980D01*
X622980Y884562D01*
X640512Y877300D01*
X659488D01*
X677020Y884562D01*
X690438Y897980D01*
X697700Y915512D01*
Y934488D01*
X690438Y952020D01*
X677020Y965438D01*
X659488Y972700D01*
D02*
G37*
G36*
X309488D02*
X290512D01*
X272980Y965438D01*
X259562Y952020D01*
X252300Y934488D01*
Y915512D01*
X259562Y897980D01*
X272980Y884562D01*
X290512Y877300D01*
X309488D01*
X327020Y884562D01*
X340438Y897980D01*
X347700Y915512D01*
Y934488D01*
X340438Y952020D01*
X327020Y965438D01*
X309488Y972700D01*
D02*
G37*
G36*
X489488Y847700D02*
X470512D01*
X452980Y840438D01*
X439562Y827019D01*
X432300Y809488D01*
Y790511D01*
X439562Y772980D01*
X452980Y759562D01*
X470512Y752300D01*
X489488D01*
X507020Y759562D01*
X520438Y772980D01*
X527700Y790511D01*
Y809488D01*
X520438Y827019D01*
X507020Y840438D01*
X489488Y847700D01*
D02*
G37*
G36*
X139488D02*
X120512D01*
X102980Y840438D01*
X89562Y827019D01*
X82300Y809488D01*
Y790511D01*
X89562Y772980D01*
X102980Y759562D01*
X120512Y752300D01*
X139488D01*
X157020Y759562D01*
X170438Y772980D01*
X177700Y790511D01*
Y809488D01*
X170438Y827019D01*
X157020Y840438D01*
X139488Y847700D01*
D02*
G37*
G36*
X834488Y647700D02*
X815512D01*
X797980Y640438D01*
X784562Y627020D01*
X777300Y609488D01*
Y590512D01*
X784562Y572980D01*
X797980Y559562D01*
X815512Y552300D01*
X834488D01*
X852020Y559562D01*
X865438Y572980D01*
X872700Y590512D01*
Y609488D01*
X865438Y627020D01*
X852020Y640438D01*
X834488Y647700D01*
D02*
G37*
G36*
X1684488Y547700D02*
X1665512D01*
X1647980Y540438D01*
X1634562Y527020D01*
X1627300Y509488D01*
Y490512D01*
X1634562Y472980D01*
X1647980Y459562D01*
X1665512Y452300D01*
X1684488D01*
X1702020Y459562D01*
X1715438Y472980D01*
X1722700Y490512D01*
Y509488D01*
X1715438Y527020D01*
X1702020Y540438D01*
X1684488Y547700D01*
D02*
G37*
G36*
X1997988Y538200D02*
X1979012D01*
X1961480Y530938D01*
X1948062Y517520D01*
X1940800Y499988D01*
Y481012D01*
X1948062Y463480D01*
X1961480Y450062D01*
X1979012Y442800D01*
X1997988D01*
X2015520Y450062D01*
X2028938Y463480D01*
X2036200Y481012D01*
Y499988D01*
X2028938Y517520D01*
X2015520Y530938D01*
X1997988Y538200D01*
D02*
G37*
G36*
X1870988D02*
X1852012D01*
X1834480Y530938D01*
X1821062Y517520D01*
X1813800Y499988D01*
Y481012D01*
X1821062Y463480D01*
X1834480Y450062D01*
X1852012Y442800D01*
X1870988D01*
X1888520Y450062D01*
X1901938Y463480D01*
X1909200Y481012D01*
Y499988D01*
X1901938Y517520D01*
X1888520Y530938D01*
X1870988Y538200D01*
D02*
G37*
G36*
X1509488Y522700D02*
X1490512D01*
X1472980Y515438D01*
X1459562Y502020D01*
X1452300Y484488D01*
Y465512D01*
X1459562Y447980D01*
X1472980Y434562D01*
X1490512Y427300D01*
X1509488D01*
X1527020Y434562D01*
X1540438Y447980D01*
X1547700Y465512D01*
Y484488D01*
X1540438Y502020D01*
X1527020Y515438D01*
X1509488Y522700D01*
D02*
G37*
G36*
X774488Y461200D02*
X755512D01*
X737980Y453938D01*
X724562Y440520D01*
X717300Y422988D01*
Y404012D01*
X724562Y386480D01*
X737980Y373062D01*
X755512Y365800D01*
X774488D01*
X792020Y373062D01*
X805438Y386480D01*
X812700Y404012D01*
Y422988D01*
X805438Y440520D01*
X792020Y453938D01*
X774488Y461200D01*
D02*
G37*
G36*
X1997988Y411200D02*
X1979012D01*
X1961480Y403938D01*
X1948062Y390520D01*
X1940800Y372988D01*
Y354012D01*
X1948062Y336480D01*
X1961480Y323062D01*
X1979012Y315800D01*
X1997988D01*
X2015520Y323062D01*
X2028938Y336480D01*
X2036200Y354012D01*
Y372988D01*
X2028938Y390520D01*
X2015520Y403938D01*
X1997988Y411200D01*
D02*
G37*
G36*
X1870988D02*
X1852012D01*
X1834480Y403938D01*
X1821062Y390520D01*
X1813800Y372988D01*
Y354012D01*
X1821062Y336480D01*
X1834480Y323062D01*
X1852012Y315800D01*
X1870988D01*
X1888520Y323062D01*
X1901938Y336480D01*
X1909200Y354012D01*
Y372988D01*
X1901938Y390520D01*
X1888520Y403938D01*
X1870988Y411200D01*
D02*
G37*
G36*
X1084488Y322700D02*
X1065512D01*
X1047980Y315438D01*
X1034562Y302020D01*
X1027300Y284488D01*
Y265512D01*
X1033495Y250556D01*
X1024444Y241505D01*
X1009488Y247700D01*
X990512D01*
X975557Y241505D01*
X966505Y250557D01*
X972700Y265512D01*
Y284488D01*
X965438Y302020D01*
X952020Y315438D01*
X934488Y322700D01*
X915512D01*
X897980Y315438D01*
X884562Y302020D01*
X877300Y284488D01*
Y265512D01*
X884562Y247980D01*
X897980Y234562D01*
X915512Y227300D01*
X934488D01*
X949444Y233495D01*
X958495Y224444D01*
X952300Y209488D01*
Y190512D01*
X958495Y175557D01*
X949444Y166505D01*
X934488Y172700D01*
X915512D01*
X897980Y165438D01*
X884562Y152020D01*
X877300Y134488D01*
Y115512D01*
X884562Y97980D01*
X897980Y84562D01*
X915512Y77300D01*
X934488D01*
X952020Y84562D01*
X965438Y97980D01*
X972700Y115512D01*
Y134488D01*
X966505Y149443D01*
X975557Y158495D01*
X990512Y152300D01*
X1009488D01*
X1024444Y158495D01*
X1033495Y149444D01*
X1027300Y134488D01*
Y115512D01*
X1034562Y97980D01*
X1047980Y84562D01*
X1065512Y77300D01*
X1084488D01*
X1102020Y84562D01*
X1115438Y97980D01*
X1122700Y115512D01*
Y134488D01*
X1115438Y152020D01*
X1102020Y165438D01*
X1084488Y172700D01*
X1065512D01*
X1050556Y166505D01*
X1041505Y175556D01*
X1047700Y190512D01*
Y209488D01*
X1041505Y224444D01*
X1050556Y233495D01*
X1065512Y227300D01*
X1084488D01*
X1102020Y234562D01*
X1115438Y247980D01*
X1122700Y265512D01*
Y284488D01*
X1115438Y302020D01*
X1102020Y315438D01*
X1084488Y322700D01*
D02*
G37*
G36*
X774488Y334200D02*
X755512D01*
X737980Y326938D01*
X724562Y313520D01*
X717300Y295988D01*
Y277012D01*
X724562Y259480D01*
X737980Y246062D01*
X755512Y238800D01*
X774488D01*
X792020Y246062D01*
X805438Y259480D01*
X812700Y277012D01*
Y295988D01*
X805438Y313520D01*
X792020Y326938D01*
X774488Y334200D01*
D02*
G37*
G36*
X1997988Y284200D02*
X1979012D01*
X1961480Y276938D01*
X1948062Y263520D01*
X1940800Y245988D01*
Y227012D01*
X1948062Y209480D01*
X1961480Y196062D01*
X1979012Y188800D01*
X1997988D01*
X2015520Y196062D01*
X2028938Y209480D01*
X2036200Y227012D01*
Y245988D01*
X2028938Y263520D01*
X2015520Y276938D01*
X1997988Y284200D01*
D02*
G37*
G36*
X1870988D02*
X1852012D01*
X1834480Y276938D01*
X1821062Y263520D01*
X1813800Y245988D01*
Y227012D01*
X1821062Y209480D01*
X1834480Y196062D01*
X1852012Y188800D01*
X1870988D01*
X1888520Y196062D01*
X1901938Y209480D01*
X1909200Y227012D01*
Y245988D01*
X1901938Y263520D01*
X1888520Y276938D01*
X1870988Y284200D01*
D02*
G37*
G36*
X774488Y207200D02*
X755512D01*
X737980Y199938D01*
X724562Y186520D01*
X717300Y168988D01*
Y150012D01*
X724562Y132480D01*
X737980Y119062D01*
X755512Y111800D01*
X774488D01*
X792020Y119062D01*
X805438Y132480D01*
X812700Y150012D01*
Y168988D01*
X805438Y186520D01*
X792020Y199938D01*
X774488Y207200D01*
D02*
G37*
G36*
X1997988Y157200D02*
X1979012D01*
X1961480Y149938D01*
X1948062Y136520D01*
X1940800Y118988D01*
Y100012D01*
X1948062Y82480D01*
X1961480Y69062D01*
X1979012Y61800D01*
X1997988D01*
X2015520Y69062D01*
X2028938Y82480D01*
X2036200Y100012D01*
Y118988D01*
X2028938Y136520D01*
X2015520Y149938D01*
X1997988Y157200D01*
D02*
G37*
G36*
X2077562Y1268101D02*
X1972440D01*
D01*
X2040811D01*
X2038869Y1267962D01*
X2036928Y1267824D01*
X2033322Y1266853D01*
X2030132Y1265605D01*
X2027497Y1264218D01*
X2026249Y1263525D01*
X2025278Y1262831D01*
X2024308Y1262138D01*
X2023614Y1261583D01*
X2023059Y1261028D01*
X2022643Y1260612D01*
X2022366Y1260473D01*
X2022227Y1260335D01*
X2020841Y1258809D01*
X2019592Y1257284D01*
X2018622Y1255758D01*
X2017789Y1254233D01*
X2016403Y1251043D01*
X2015432Y1248131D01*
X2014877Y1245634D01*
X2014738Y1244525D01*
X2014600Y1243554D01*
X2014461Y1242861D01*
Y1226080D01*
X1982980D01*
Y1257561D01*
X1982702Y1259225D01*
X1982148Y1260473D01*
X1981316Y1261444D01*
X1980345Y1261999D01*
X1979374Y1262415D01*
X1978542Y1262554D01*
X1977987Y1262692D01*
X1977710D01*
X1975907Y1262415D01*
X1974659Y1261860D01*
X1973688Y1261028D01*
X1973133Y1260196D01*
X1972717Y1259225D01*
X1972578Y1258393D01*
X1972440Y1257838D01*
Y1215540D01*
Y1220671D01*
X1972717Y1219007D01*
X1973272Y1217759D01*
X1974104Y1216788D01*
X1975075Y1216233D01*
X1976046Y1215817D01*
X1976878Y1215679D01*
X1977432Y1215540D01*
X2019870D01*
X2021534Y1215817D01*
X2022782Y1216372D01*
X2023753Y1217204D01*
X2024308Y1218175D01*
X2024724Y1219007D01*
X2024862Y1219839D01*
X2025001Y1220394D01*
Y1241751D01*
X2025140Y1244109D01*
X2025694Y1246189D01*
X2026527Y1248131D01*
X2027359Y1249795D01*
X2028191Y1251043D01*
X2029023Y1252014D01*
X2029578Y1252707D01*
X2029716Y1252846D01*
X2031519Y1254371D01*
X2033322Y1255620D01*
X2035264Y1256452D01*
X2036928Y1257006D01*
X2038453Y1257284D01*
X2039702Y1257561D01*
X2040534D01*
X2040672D01*
X2040811D01*
X2051351D01*
X2053709Y1257422D01*
X2055789Y1256868D01*
X2057730Y1256174D01*
X2059395Y1255342D01*
X2060643Y1254371D01*
X2061614Y1253678D01*
X2062168Y1253123D01*
X2062446Y1252985D01*
X2063971Y1251182D01*
X2065081Y1249240D01*
X2065913Y1247437D01*
X2066468Y1245634D01*
X2066745Y1244109D01*
X2066884Y1242861D01*
X2067022Y1242029D01*
Y1220671D01*
X2067300Y1219007D01*
X2067854Y1217759D01*
X2068686Y1216788D01*
X2069657Y1216233D01*
X2070628Y1215817D01*
X2071460Y1215679D01*
X2072015Y1215540D01*
X2077562D01*
X2072292D01*
X2074095Y1215817D01*
X2075343Y1216372D01*
X2076314Y1217204D01*
X2076869Y1218175D01*
X2077285Y1219007D01*
X2077424Y1219839D01*
X2077562Y1220394D01*
Y1241751D01*
X2077424Y1243693D01*
X2077285Y1245634D01*
X2076314Y1249240D01*
X2075205Y1252430D01*
X2073679Y1255065D01*
X2072986Y1256313D01*
X2072292Y1257284D01*
X2071738Y1258255D01*
X2071183Y1258948D01*
X2070628Y1259503D01*
X2070212Y1259919D01*
X2070073Y1260196D01*
X2069935Y1260335D01*
X2068409Y1261722D01*
X2066884Y1262970D01*
X2065358Y1263941D01*
X2063833Y1264773D01*
X2060643Y1266160D01*
X2057730Y1267130D01*
X2055234Y1267685D01*
X2054125Y1267824D01*
X2053154Y1267962D01*
X2052460Y1268101D01*
X2077562D01*
D02*
G37*
G36*
X2053650Y1194460D02*
X1972440D01*
D01*
X2053650D01*
D02*
G37*
G36*
X1972440D02*
D01*
Y1152161D01*
Y1194460D01*
D02*
G37*
G36*
X2077562D02*
X2072292D01*
X2070489Y1194183D01*
X2069241Y1193628D01*
X2068270Y1192796D01*
X2067716Y1191825D01*
X2067300Y1190854D01*
X2067161Y1190022D01*
X2067022Y1189467D01*
Y1152439D01*
X1977710D01*
X1975907Y1152161D01*
X1974659Y1151607D01*
X1973688Y1150774D01*
X1973133Y1149804D01*
X1972717Y1148833D01*
X1972578Y1148001D01*
X1972440Y1147446D01*
Y1152161D01*
Y1147169D01*
X1972717Y1145366D01*
X1973272Y1144118D01*
X1974104Y1143147D01*
X1975075Y1142592D01*
X1976046Y1142176D01*
X1976878Y1142037D01*
X1977432Y1141899D01*
X2072431D01*
X2074095Y1142176D01*
X2075343Y1142731D01*
X2076314Y1143563D01*
X2076869Y1144534D01*
X2077285Y1145504D01*
X2077424Y1146337D01*
X2077562Y1146891D01*
Y1141899D01*
D01*
Y1189190D01*
X2077285Y1190993D01*
X2076730Y1192241D01*
X2075898Y1193212D01*
X2074927Y1193766D01*
X2073956Y1194183D01*
X2073124Y1194321D01*
X2072570Y1194460D01*
X2077562D01*
D02*
G37*
%LPD*%
D44*
X1861500Y490500D02*
D03*
X925000Y3125000D02*
D03*
Y3275000D02*
D03*
X1075000Y275000D02*
D03*
Y125000D02*
D03*
X925000Y275000D02*
D03*
X1000000Y200000D02*
D03*
X925000Y125000D02*
D03*
X1000000Y3200000D02*
D03*
X1075000Y3125000D02*
D03*
Y3275000D02*
D03*
X925000Y2100000D02*
D03*
X1750000Y275000D02*
D03*
X1675000Y500000D02*
D03*
X2070000Y950000D02*
D03*
X1500000Y1300000D02*
D03*
Y1500000D02*
D03*
X1025000Y2625000D02*
D03*
X650000D02*
D03*
X800000Y3050000D02*
D03*
X1465000Y2925000D02*
D03*
Y3025000D02*
D03*
Y3125000D02*
D03*
Y3225000D02*
D03*
Y3425000D02*
D03*
X1025000Y2925000D02*
D03*
X900000Y2450000D02*
D03*
X825000Y2225000D02*
D03*
X687690Y2206090D02*
D03*
X1150000Y2625000D02*
D03*
X1050455Y999545D02*
D03*
X1071426Y1216814D02*
D03*
X1325000Y1125000D02*
D03*
Y1000000D02*
D03*
X1500000Y1200000D02*
D03*
X2070000Y760000D02*
D03*
X1025000Y2100000D02*
D03*
X85000Y540500D02*
D03*
Y413500D02*
D03*
X1575000Y2815000D02*
D03*
X1435393Y2007548D02*
D03*
X1368100Y1933578D02*
D03*
X375000Y1775000D02*
D03*
X525000Y1500000D02*
D03*
X524243Y1398917D02*
D03*
X417626Y1017626D02*
D03*
X1239294Y2109293D02*
D03*
X1348604Y1417785D02*
D03*
X1365400Y1319206D02*
D03*
X1332700Y1224703D02*
D03*
X765000Y413500D02*
D03*
Y286500D02*
D03*
Y159500D02*
D03*
X85000D02*
D03*
Y286500D02*
D03*
X895653Y1214053D02*
D03*
X1002700Y1289455D02*
D03*
X1140000Y1289600D02*
D03*
X807300Y1290000D02*
D03*
X691688Y1287700D02*
D03*
X570000Y1310000D02*
D03*
X625000Y1400000D02*
D03*
X1465000Y3325000D02*
D03*
X1675000Y2815000D02*
D03*
X1775000D02*
D03*
X1025000Y2225000D02*
D03*
X1988500Y363500D02*
D03*
X550000Y475000D02*
D03*
X300000D02*
D03*
Y225000D02*
D03*
X550000D02*
D03*
X425000D02*
D03*
Y475000D02*
D03*
X300000Y350000D02*
D03*
X550000D02*
D03*
X425000D02*
D03*
X1988500Y109500D02*
D03*
X1861500D02*
D03*
Y236500D02*
D03*
X1988500D02*
D03*
X1861500Y363500D02*
D03*
X1988500Y490500D02*
D03*
X1925000Y750000D02*
D03*
X1500000Y475000D02*
D03*
X150000Y2125000D02*
D03*
X375000Y2025000D02*
D03*
X130000Y1150000D02*
D03*
Y800000D02*
D03*
X480000D02*
D03*
X650000Y925000D02*
D03*
X300000D02*
D03*
Y1275000D02*
D03*
X75000Y1400000D02*
D03*
Y1525000D02*
D03*
X1350000Y200000D02*
D03*
X525000Y2925000D02*
D03*
X660000Y2110000D02*
D03*
X778557Y2127342D02*
D03*
X692500Y3332500D02*
D03*
X217500Y2992500D02*
D03*
X1100000Y3427144D02*
D03*
X1025000Y2525000D02*
D03*
X1150000Y2225000D02*
D03*
Y2525000D02*
D03*
X700000D02*
D03*
X1400000Y2625000D02*
D03*
X1275000Y2625000D02*
D03*
X400000D02*
D03*
X525000D02*
D03*
X1075000Y1550000D02*
D03*
X925000D02*
D03*
X775000D02*
D03*
Y1700000D02*
D03*
Y1850000D02*
D03*
X925000D02*
D03*
X1075000D02*
D03*
Y1700000D02*
D03*
X925000D02*
D03*
X670000Y800000D02*
D03*
X320000D02*
D03*
Y1150000D02*
D03*
X1350000Y700000D02*
D03*
Y800000D02*
D03*
X1275000Y2225000D02*
D03*
X600000Y1200000D02*
D03*
X825000Y600000D02*
D03*
X692500Y3067500D02*
D03*
X357500Y3332500D02*
D03*
Y3067500D02*
D03*
X375000Y1900000D02*
D03*
X75000Y1775000D02*
D03*
X600000Y1050000D02*
D03*
X1675000Y125000D02*
D03*
X825000Y900000D02*
D03*
X850000Y475000D02*
D03*
X1200000D02*
D03*
X1750000Y600000D02*
D03*
X1625000D02*
D03*
X1407500Y2250000D02*
D03*
X1675000Y2525000D02*
D03*
X575000D02*
D03*
X75000Y1650000D02*
D03*
X175000Y2525000D02*
D03*
X1475000Y1825000D02*
D03*
X1869395Y1628950D02*
D03*
X1962979Y1664193D02*
D03*
X2035361Y1733192D02*
D03*
X2075000Y1825000D02*
D03*
X2075000Y2725000D02*
D03*
X2075000Y2815000D02*
D03*
X1875000D02*
D03*
Y2725000D02*
D03*
X2075000Y2325000D02*
D03*
Y2425000D02*
D03*
Y2625000D02*
D03*
Y2525000D02*
D03*
X1875000D02*
D03*
Y2625000D02*
D03*
Y2425000D02*
D03*
Y2325000D02*
D03*
X2075000Y1925000D02*
D03*
Y2025000D02*
D03*
Y2225000D02*
D03*
Y2125000D02*
D03*
X1875000D02*
D03*
Y2225000D02*
D03*
Y2025000D02*
D03*
Y1925000D02*
D03*
X1575000Y1825000D02*
D03*
X1775000D02*
D03*
X1675000D02*
D03*
Y1625000D02*
D03*
X1775000D02*
D03*
X1575000D02*
D03*
X1475000D02*
D03*
X1625000Y975000D02*
D03*
X1700000Y1050000D02*
D03*
X1625000Y1125000D02*
D03*
X1775000D02*
D03*
Y975000D02*
D03*
%TF.MD5,39a6134dbd160a117927e9a0240f6b09*%
M02*
