%TF.GenerationSoftware,Altium Limited,Altium Designer,22.11.1 (43)*%
G04 Layer_Physical_Order=6*
G04 Layer_Color=16711680*
%FSLAX45Y45*%
%MOMM*%
%TF.SameCoordinates,9689AE11-03B8-4921-899C-892E986EC91F*%
%TF.FilePolarity,Positive*%
%TF.FileFunction,Copper,L6,Bot,Signal*%
%TF.Part,Single*%
G01*
G75*
%TA.AperFunction,Conductor*%
%ADD10C,0.20000*%
%TA.AperFunction,ViaPad*%
%ADD44C,0.70000*%
%TA.AperFunction,SMDPad,CuDef*%
%ADD45R,4.20000X3.20000*%
%ADD46R,1.00000X1.00000*%
%TA.AperFunction,BGAPad,CuDef*%
%ADD47C,1.00000*%
G36*
X113171Y843787D02*
X122469Y834180D01*
X104169Y823617D01*
X104194Y823761D01*
X104099Y824006D01*
X103885Y824354D01*
X103550Y824804D01*
X102522Y826009D01*
X100082Y828583D01*
X99029Y829645D01*
X113171Y843787D01*
D02*
G37*
G36*
X434363Y768504D02*
X436421Y770767D01*
X438258Y773220D01*
X439874Y775861D01*
X441269Y778692D01*
X442444Y781712D01*
X443397Y784921D01*
X444129Y788319D01*
X444641Y791907D01*
X444932Y795684D01*
X445002Y799650D01*
X479650Y765001D01*
X475684Y764931D01*
X471907Y764641D01*
X468320Y764129D01*
X464921Y763396D01*
X461712Y762443D01*
X458692Y761269D01*
X455861Y759874D01*
X453220Y758257D01*
X450768Y756420D01*
X448505Y754362D01*
X434363Y768504D01*
D02*
G37*
G36*
X354239Y914038D02*
X351203Y913896D01*
X348176Y913469D01*
X345160Y912759D01*
X342152Y911763D01*
X339155Y910484D01*
X336167Y908920D01*
X333189Y907072D01*
X330220Y904940D01*
X327261Y902523D01*
X324312Y899822D01*
X325659Y948804D01*
X328416Y945998D01*
X331208Y943488D01*
X334036Y941273D01*
X336899Y939354D01*
X339796Y937729D01*
X342730Y936400D01*
X345698Y935367D01*
X348701Y934629D01*
X351739Y934186D01*
X354813Y934038D01*
X354239Y914038D01*
D02*
G37*
G36*
X605230Y895355D02*
X607472Y897744D01*
X609440Y900155D01*
X611134Y902586D01*
X612555Y905039D01*
X613702Y907513D01*
X614575Y910009D01*
X615174Y912525D01*
X615500Y915063D01*
X615552Y917621D01*
X615330Y920202D01*
X643829Y890548D01*
X641276Y890868D01*
X638747Y890910D01*
X636242Y890673D01*
X633760Y890157D01*
X631303Y889363D01*
X628869Y888290D01*
X626459Y886939D01*
X624073Y885309D01*
X621710Y883400D01*
X619372Y881213D01*
X605230Y895355D01*
D02*
G37*
G36*
X1346533Y1075795D02*
X1344483Y1077692D01*
X1342205Y1079510D01*
X1339699Y1081251D01*
X1336964Y1082912D01*
X1334002Y1084496D01*
X1327393Y1087428D01*
X1323747Y1088777D01*
X1315770Y1091239D01*
X1358570Y1115097D01*
X1357688Y1111598D01*
X1357142Y1108224D01*
X1356934Y1104975D01*
X1357062Y1101850D01*
X1357527Y1098849D01*
X1358329Y1095972D01*
X1359467Y1093220D01*
X1360942Y1090592D01*
X1362753Y1088089D01*
X1364902Y1085710D01*
X1346533Y1075795D01*
D02*
G37*
G36*
X2038505Y805637D02*
X2040768Y803580D01*
X2043220Y801742D01*
X2045861Y800126D01*
X2048692Y798731D01*
X2051712Y797556D01*
X2054921Y796603D01*
X2058319Y795871D01*
X2061907Y795359D01*
X2065684Y795068D01*
X2069650Y794998D01*
X2035002Y760350D01*
X2034932Y764316D01*
X2034641Y768093D01*
X2034129Y771680D01*
X2033397Y775079D01*
X2032443Y778288D01*
X2031269Y781308D01*
X2029874Y784139D01*
X2028258Y786780D01*
X2026420Y789232D01*
X2024362Y791495D01*
X2038505Y805637D01*
D02*
G37*
G36*
X2024362Y918505D02*
X2026420Y920768D01*
X2028258Y923220D01*
X2029874Y925861D01*
X2031269Y928692D01*
X2032443Y931712D01*
X2033397Y934921D01*
X2034129Y938319D01*
X2034641Y941907D01*
X2034932Y945684D01*
X2035002Y949650D01*
X2069650Y915001D01*
X2065684Y914932D01*
X2061907Y914641D01*
X2058319Y914129D01*
X2054921Y913397D01*
X2051712Y912443D01*
X2048692Y911269D01*
X2045861Y909874D01*
X2043220Y908258D01*
X2040768Y906420D01*
X2038505Y904362D01*
X2024362Y918505D01*
D02*
G37*
G36*
X92928Y1356213D02*
X82621Y1365840D01*
X101827Y1377520D01*
X101721Y1377260D01*
X101756Y1376899D01*
X101931Y1376436D01*
X102245Y1375872D01*
X102700Y1375206D01*
X103294Y1374439D01*
X104902Y1372600D01*
X107070Y1370355D01*
X92928Y1356213D01*
D02*
G37*
G36*
X106495Y1479363D02*
X104232Y1481420D01*
X101780Y1483258D01*
X99139Y1484874D01*
X96308Y1486269D01*
X93288Y1487444D01*
X90079Y1488397D01*
X86681Y1489129D01*
X83093Y1489641D01*
X79316Y1489932D01*
X75350Y1490002D01*
X109999Y1524650D01*
X110068Y1520684D01*
X110359Y1516907D01*
X110871Y1513320D01*
X111603Y1509921D01*
X112557Y1506712D01*
X113731Y1503692D01*
X115126Y1500861D01*
X116742Y1498220D01*
X118580Y1495768D01*
X120638Y1493505D01*
X106495Y1479363D01*
D02*
G37*
G36*
X354541Y1265000D02*
X351486Y1264855D01*
X348453Y1264420D01*
X345442Y1263695D01*
X342454Y1262680D01*
X339488Y1261375D01*
X336544Y1259780D01*
X333623Y1257895D01*
X330725Y1255720D01*
X327849Y1253255D01*
X324995Y1250500D01*
Y1299500D01*
X327849Y1296745D01*
X330725Y1294280D01*
X333623Y1292105D01*
X336544Y1290220D01*
X339488Y1288625D01*
X342454Y1287320D01*
X345442Y1286305D01*
X348453Y1285580D01*
X351486Y1285145D01*
X354541Y1285000D01*
Y1265000D01*
D02*
G37*
G36*
X775805Y1335637D02*
X778068Y1333580D01*
X780520Y1331742D01*
X783161Y1330126D01*
X785992Y1328731D01*
X789012Y1327556D01*
X792221Y1326603D01*
X795619Y1325871D01*
X799207Y1325359D01*
X802984Y1325068D01*
X806950Y1324998D01*
X772301Y1290350D01*
X772232Y1294316D01*
X771941Y1298093D01*
X771429Y1301680D01*
X770697Y1305079D01*
X769743Y1308288D01*
X768569Y1311308D01*
X767174Y1314139D01*
X765558Y1316780D01*
X763720Y1319232D01*
X761662Y1321495D01*
X775805Y1335637D01*
D02*
G37*
G36*
X106495Y1604363D02*
X104232Y1606420D01*
X101780Y1608258D01*
X99139Y1609874D01*
X96308Y1611269D01*
X93288Y1612444D01*
X90079Y1613397D01*
X86681Y1614129D01*
X83093Y1614641D01*
X79316Y1614932D01*
X75350Y1615002D01*
X109999Y1649650D01*
X110068Y1645684D01*
X110359Y1641907D01*
X110871Y1638320D01*
X111603Y1634921D01*
X112557Y1631712D01*
X113731Y1628692D01*
X115126Y1625861D01*
X116742Y1623220D01*
X118580Y1620768D01*
X120638Y1618505D01*
X106495Y1604363D01*
D02*
G37*
G36*
X1197662Y2610738D02*
X1194736Y2610693D01*
X1189625Y2610329D01*
X1187440Y2610010D01*
X1185502Y2609601D01*
X1183811Y2609101D01*
X1182366Y2608510D01*
X1181169Y2607827D01*
X1180219Y2607054D01*
X1179516Y2606190D01*
X1183188Y2636117D01*
X1183657Y2635095D01*
X1184343Y2634181D01*
X1185247Y2633374D01*
X1186368Y2632674D01*
X1187707Y2632083D01*
X1189263Y2631598D01*
X1191037Y2631222D01*
X1193028Y2630953D01*
X1195236Y2630792D01*
X1197662Y2630738D01*
Y2610738D01*
D02*
G37*
G36*
X246154Y2945488D02*
X243943Y2947507D01*
X241528Y2949347D01*
X238909Y2951008D01*
X236086Y2952488D01*
X233059Y2953789D01*
X229828Y2954911D01*
X226394Y2955852D01*
X222756Y2956614D01*
X218914Y2957196D01*
X214868Y2957599D01*
X252341Y2989170D01*
X252095Y2985316D01*
X252108Y2981633D01*
X252380Y2978123D01*
X252912Y2974785D01*
X253704Y2971618D01*
X254756Y2968624D01*
X256067Y2965802D01*
X257638Y2963152D01*
X259468Y2960674D01*
X261559Y2958368D01*
X246154Y2945488D01*
D02*
G37*
G36*
X2125000Y1130001D02*
X1925000D01*
Y1330001D01*
X2125000D01*
Y1130001D01*
D02*
G37*
%LPC*%
G36*
X2077561Y1293103D02*
X1972438D01*
D01*
X2040809D01*
X2038729Y1292964D01*
X2036926Y1292825D01*
X2033321Y1291854D01*
X2030131Y1290745D01*
X2027357Y1289358D01*
X2026248Y1288526D01*
X2025277Y1287833D01*
X2024306Y1287278D01*
X2023613Y1286723D01*
X2023058Y1286168D01*
X2022503Y1285752D01*
X2022365Y1285614D01*
X2022226Y1285475D01*
X2020839Y1284088D01*
X2019591Y1282563D01*
X2018620Y1281037D01*
X2017788Y1279373D01*
X2016401Y1276322D01*
X2015430Y1273271D01*
X2014876Y1270774D01*
X2014737Y1269526D01*
X2014598Y1268694D01*
X2014460Y1267862D01*
Y1251497D01*
X2010992Y1252191D01*
X2007664Y1253162D01*
X2004613Y1254548D01*
X2001839Y1255935D01*
X1999482Y1257183D01*
X1998650Y1257738D01*
X1997817Y1258293D01*
X1997124Y1258709D01*
X1996708Y1259125D01*
X1996431Y1259264D01*
X1996292Y1259402D01*
X1994350Y1261067D01*
X1992547Y1262731D01*
X1990883Y1264534D01*
X1989358Y1266337D01*
X1988110Y1268001D01*
X1987000Y1269804D01*
X1986029Y1271329D01*
X1985059Y1272993D01*
X1984365Y1274380D01*
X1983810Y1275767D01*
X1983256Y1276877D01*
X1982840Y1277986D01*
X1982562Y1278818D01*
X1982424Y1279373D01*
X1982285Y1279789D01*
Y1279928D01*
X1981869Y1280760D01*
X1981314Y1281453D01*
X1980482Y1281869D01*
X1979789Y1282285D01*
X1978956Y1282424D01*
X1978263Y1282563D01*
X1977847D01*
X1977708D01*
X1975905Y1282285D01*
X1974657Y1281730D01*
X1973686Y1280898D01*
X1973132Y1279928D01*
X1972716Y1278957D01*
X1972577Y1278125D01*
X1972438Y1277570D01*
Y1280344D01*
Y1277570D01*
Y1276599D01*
X1972577Y1275906D01*
X1972993Y1274242D01*
X1973270Y1273548D01*
X1973548Y1272993D01*
X1973686Y1272577D01*
Y1272439D01*
X1974519Y1270497D01*
X1975628Y1268417D01*
X1977847Y1264672D01*
X1980343Y1261344D01*
X1982701Y1258293D01*
X1983949Y1257045D01*
X1985059Y1255797D01*
X1986029Y1254826D01*
X1986861Y1253994D01*
X1987555Y1253300D01*
X1988110Y1252746D01*
X1988387Y1252468D01*
X1988526Y1252329D01*
X1991022Y1250249D01*
X1993796Y1248446D01*
X1996431Y1246921D01*
X1999066Y1245534D01*
X2001701Y1244424D01*
X2004336Y1243454D01*
X2006832Y1242622D01*
X2009190Y1242067D01*
X2011408Y1241512D01*
X2013489Y1241235D01*
X2015292Y1240957D01*
X2016817Y1240680D01*
X2018065D01*
X2019036Y1240541D01*
X2051488D01*
X2053430Y1240680D01*
X2055371Y1240819D01*
X2058977Y1241789D01*
X2062167Y1242899D01*
X2064940Y1244424D01*
X2066050Y1245118D01*
X2067021Y1245811D01*
X2067992Y1246366D01*
X2068685Y1246921D01*
X2069240Y1247476D01*
X2069656Y1247892D01*
X2069933Y1248030D01*
X2070072Y1248169D01*
X2071320Y1249694D01*
X2072568Y1251220D01*
X2073539Y1252746D01*
X2074371Y1254271D01*
X2075758Y1257461D01*
X2076590Y1260373D01*
X2077145Y1262869D01*
X2077283Y1263979D01*
X2077422Y1264950D01*
X2077561Y1265643D01*
Y1266753D01*
X2077422Y1268833D01*
X2077283Y1270636D01*
X2076313Y1274242D01*
X2075203Y1277431D01*
X2073678Y1280205D01*
X2072984Y1281314D01*
X2072291Y1282285D01*
X2071736Y1283256D01*
X2071181Y1283949D01*
X2070627Y1284504D01*
X2070210Y1285059D01*
X2070072Y1285198D01*
X2069933Y1285336D01*
X2068408Y1286723D01*
X2066882Y1287971D01*
X2065357Y1288942D01*
X2063831Y1289774D01*
X2060641Y1291161D01*
X2057729Y1292132D01*
X2055233Y1292687D01*
X2054123Y1292825D01*
X2053152Y1292964D01*
X2052459Y1293103D01*
X2077561D01*
D02*
G37*
G36*
Y1219461D02*
X2072291D01*
X2070488Y1219184D01*
X2069240Y1218629D01*
X2068269Y1217797D01*
X2067714Y1216826D01*
X2067298Y1215856D01*
X2067159Y1215023D01*
X2067021Y1214469D01*
Y1177440D01*
X1977708D01*
X1975905Y1177163D01*
X1974657Y1176608D01*
X1973686Y1175776D01*
X1973132Y1174805D01*
X1972716Y1173834D01*
X1972577Y1173002D01*
X1972438Y1172447D01*
Y1219461D01*
X2053649D01*
X1972438D01*
Y1166900D01*
Y1172170D01*
X1972716Y1170367D01*
X1973270Y1169119D01*
X1974102Y1168148D01*
X1975073Y1167594D01*
X1976044Y1167177D01*
X1976876Y1167039D01*
X1977431Y1166900D01*
X2072429D01*
X2074094Y1167177D01*
X2075342Y1167732D01*
X2076313Y1168564D01*
X2076867Y1169535D01*
X2077283Y1170506D01*
X2077422Y1171338D01*
X2077561Y1171893D01*
Y1214191D01*
X2077283Y1215994D01*
X2076729Y1217242D01*
X2075897Y1218213D01*
X2074926Y1218768D01*
X2073955Y1219184D01*
X2073123Y1219323D01*
X2072568Y1219461D01*
X2077561D01*
D02*
G37*
%LPD*%
G36*
X2053707Y1282424D02*
X2055787Y1281869D01*
X2057729Y1281176D01*
X2059393Y1280344D01*
X2060641Y1279373D01*
X2061612Y1278679D01*
X2062167Y1278125D01*
X2062444Y1277986D01*
X2063970Y1276183D01*
X2065079Y1274242D01*
X2065911Y1272439D01*
X2066466Y1270636D01*
X2066743Y1269110D01*
X2066882Y1267862D01*
X2067021Y1267030D01*
Y1266753D01*
X2066882Y1264395D01*
X2066327Y1262176D01*
X2065634Y1260234D01*
X2064663Y1258709D01*
X2063831Y1257322D01*
X2063138Y1256351D01*
X2062583Y1255797D01*
X2062444Y1255519D01*
X2060641Y1253994D01*
X2058838Y1253023D01*
X2056897Y1252191D01*
X2055233Y1251636D01*
X2053707Y1251359D01*
X2052459Y1251220D01*
X2051627Y1251081D01*
X2051488D01*
X2051349D01*
X2025000D01*
Y1266753D01*
X2025138Y1269110D01*
X2025693Y1271190D01*
X2026386Y1273132D01*
X2027218Y1274796D01*
X2028189Y1276044D01*
X2028883Y1277015D01*
X2029437Y1277709D01*
X2029576Y1277847D01*
X2031379Y1279373D01*
X2033321Y1280621D01*
X2035123Y1281453D01*
X2036926Y1282008D01*
X2038452Y1282285D01*
X2039700Y1282563D01*
X2040532D01*
X2040671D01*
X2040809D01*
X2051349D01*
X2053707Y1282424D01*
D02*
G37*
D10*
X1543984Y857700D02*
X1977700D01*
X2070000Y950000D01*
X1382700Y1018984D02*
X1543984Y857700D01*
X1217300Y2601100D02*
Y2601100D01*
X1150000Y2625000D02*
X1154262Y2620738D01*
X1197662D02*
X1217300Y2601100D01*
Y2601100D02*
X1251100Y2567300D01*
X1154262Y2620738D02*
X1197662D01*
X1251100Y2567300D02*
X1286455D01*
X1378034Y2571716D02*
X1507700Y2442050D01*
X1378034Y2571716D02*
Y2589504D01*
X1400000Y2611470D01*
X1540400Y2194155D02*
Y2405844D01*
X1507700Y2438544D02*
X1540400Y2405844D01*
X1265000Y1918755D02*
X1540400Y2194155D01*
X1507700Y2438544D02*
Y2442050D01*
X1275000Y2625000D02*
X1507700Y2392300D01*
Y2207700D02*
Y2392300D01*
X1232300Y1932300D02*
X1507700Y2207700D01*
X1199600Y1945844D02*
X1475000Y2221244D01*
X1286455Y2567300D02*
X1475000Y2378755D01*
Y2221244D02*
Y2378755D01*
X1400000Y2611470D02*
Y2625000D01*
X1325000Y1111470D02*
Y1125000D01*
Y1111470D02*
X1382700Y1053770D01*
Y1018984D02*
Y1053770D01*
X1325000Y1000000D02*
X1334567Y990433D01*
X1530440Y825000D02*
X2005000D01*
X1334567Y990433D02*
X1365007D01*
X1530440Y825000D01*
X2005000D02*
X2070000Y760000D01*
X320000Y2305000D02*
X682700Y1942300D01*
X217500Y2988284D02*
X320000Y2885784D01*
Y2305000D02*
Y2885784D01*
X682700Y1414600D02*
X807300Y1290000D01*
X682700Y1414600D02*
Y1942300D01*
X39600Y1112555D02*
Y1187444D01*
Y1112555D02*
X65000Y1087155D01*
Y783399D02*
X106100Y742300D01*
X65000Y783399D02*
Y1087155D01*
X39600Y1187444D02*
X99999Y1247844D01*
Y1363284D01*
X75000Y1388283D02*
X99999Y1363284D01*
X75000Y1388283D02*
Y1400000D01*
X106100Y742300D02*
X422300D01*
X106100Y836716D02*
X130000Y812815D01*
X72300Y1126100D02*
Y1173900D01*
X106100Y1207700D01*
X130000Y800000D02*
Y812815D01*
X72300Y1126100D02*
X106100Y1092300D01*
Y836716D02*
Y1092300D01*
Y1207700D02*
X120984D01*
X132699Y1219416D02*
Y1467300D01*
X120984Y1207700D02*
X132699Y1219416D01*
X121064Y1478936D02*
X132699Y1467300D01*
X121064Y1478936D02*
Y1478937D01*
X75000Y1525000D02*
X121064Y1478937D01*
X130000Y1150000D02*
Y1163530D01*
X165399Y1198929D01*
Y1559601D01*
X75000Y1650000D02*
X165399Y1559601D01*
X422300Y742300D02*
X480000Y800000D01*
X1199600Y1067089D02*
Y1945844D01*
X872911Y740400D02*
X1199600Y1067089D01*
X1232300Y1053545D02*
Y1932300D01*
X886455Y707700D02*
X1232300Y1053545D01*
X900000Y675000D02*
X1265000Y1040000D01*
Y1918755D01*
X217500Y2988284D02*
Y2992500D01*
X300000Y1275000D02*
X375000D01*
X425000Y1091852D02*
Y1225000D01*
X375000Y1275000D02*
X425000Y1225000D01*
Y1091852D02*
X579601Y937250D01*
X612301Y888284D02*
X649017Y925000D01*
X650000D01*
X612301Y770075D02*
Y888284D01*
Y770075D02*
X641976Y740400D01*
X579601Y756531D02*
Y937250D01*
Y756531D02*
X628432Y707700D01*
X546901Y742986D02*
Y888284D01*
X535185Y900000D02*
X546901Y888284D01*
X412307Y900000D02*
X535185D01*
X388269Y924038D02*
X412307Y900000D01*
X300000Y925000D02*
X300962Y924038D01*
X388269D01*
X546901Y742986D02*
X614887Y675000D01*
X900000D01*
X628432Y707700D02*
X886455D01*
X641976Y740400D02*
X872911D01*
D44*
X1861500Y490500D02*
D03*
X925000Y3125000D02*
D03*
Y3275000D02*
D03*
X1075000Y275000D02*
D03*
Y125000D02*
D03*
X925000Y275000D02*
D03*
X1000000Y200000D02*
D03*
X925000Y125000D02*
D03*
X1000000Y3200000D02*
D03*
X1075000Y3125000D02*
D03*
Y3275000D02*
D03*
X925000Y2100000D02*
D03*
X1750000Y275000D02*
D03*
X1675000Y500000D02*
D03*
X2070000Y950000D02*
D03*
X1500000Y1300000D02*
D03*
Y1500000D02*
D03*
X1025000Y2625000D02*
D03*
X650000D02*
D03*
X800000Y3050000D02*
D03*
X1465000Y2925000D02*
D03*
Y3025000D02*
D03*
Y3125000D02*
D03*
Y3225000D02*
D03*
Y3425000D02*
D03*
X1025000Y2925000D02*
D03*
X900000Y2450000D02*
D03*
X825000Y2225000D02*
D03*
X687690Y2206090D02*
D03*
X1150000Y2625000D02*
D03*
X1050455Y999545D02*
D03*
X1071426Y1216814D02*
D03*
X1325000Y1125000D02*
D03*
Y1000000D02*
D03*
X1500000Y1200000D02*
D03*
X2070000Y760000D02*
D03*
X1025000Y2100000D02*
D03*
X85000Y540500D02*
D03*
Y413500D02*
D03*
X1575000Y2815000D02*
D03*
X1435393Y2007548D02*
D03*
X1368100Y1933578D02*
D03*
X375000Y1775000D02*
D03*
X525000Y1500000D02*
D03*
X524243Y1398917D02*
D03*
X417626Y1017626D02*
D03*
X1239294Y2109293D02*
D03*
X1348604Y1417785D02*
D03*
X1365400Y1319206D02*
D03*
X1332700Y1224703D02*
D03*
X765000Y413500D02*
D03*
Y286500D02*
D03*
Y159500D02*
D03*
X85000D02*
D03*
Y286500D02*
D03*
X895653Y1214053D02*
D03*
X1002700Y1289455D02*
D03*
X1140000Y1289600D02*
D03*
X807300Y1290000D02*
D03*
X691688Y1287700D02*
D03*
X570000Y1310000D02*
D03*
X625000Y1400000D02*
D03*
X1465000Y3325000D02*
D03*
X1675000Y2815000D02*
D03*
X1775000D02*
D03*
X1025000Y2225000D02*
D03*
X1988500Y363500D02*
D03*
X550000Y475000D02*
D03*
X300000D02*
D03*
Y225000D02*
D03*
X550000D02*
D03*
X425000D02*
D03*
Y475000D02*
D03*
X300000Y350000D02*
D03*
X550000D02*
D03*
X425000D02*
D03*
X1988500Y109500D02*
D03*
X1861500D02*
D03*
Y236500D02*
D03*
X1988500D02*
D03*
X1861500Y363500D02*
D03*
X1988500Y490500D02*
D03*
X1925000Y750000D02*
D03*
X1500000Y475000D02*
D03*
X150000Y2125000D02*
D03*
X375000Y2025000D02*
D03*
X130000Y1150000D02*
D03*
Y800000D02*
D03*
X480000D02*
D03*
X650000Y925000D02*
D03*
X300000D02*
D03*
Y1275000D02*
D03*
X75000Y1400000D02*
D03*
Y1525000D02*
D03*
X1350000Y200000D02*
D03*
X525000Y2925000D02*
D03*
X660000Y2110000D02*
D03*
X778557Y2127342D02*
D03*
X692500Y3332500D02*
D03*
X217500Y2992500D02*
D03*
X1100000Y3427144D02*
D03*
X1025000Y2525000D02*
D03*
X1150000Y2225000D02*
D03*
Y2525000D02*
D03*
X700000D02*
D03*
X1400000Y2625000D02*
D03*
X1275000Y2625000D02*
D03*
X400000D02*
D03*
X525000D02*
D03*
X1075000Y1550000D02*
D03*
X925000D02*
D03*
X775000D02*
D03*
Y1700000D02*
D03*
Y1850000D02*
D03*
X925000D02*
D03*
X1075000D02*
D03*
Y1700000D02*
D03*
X925000D02*
D03*
X670000Y800000D02*
D03*
X320000D02*
D03*
Y1150000D02*
D03*
X1350000Y700000D02*
D03*
Y800000D02*
D03*
X1275000Y2225000D02*
D03*
X600000Y1200000D02*
D03*
X825000Y600000D02*
D03*
X692500Y3067500D02*
D03*
X357500Y3332500D02*
D03*
Y3067500D02*
D03*
X375000Y1900000D02*
D03*
X75000Y1775000D02*
D03*
X600000Y1050000D02*
D03*
X1675000Y125000D02*
D03*
X825000Y900000D02*
D03*
X850000Y475000D02*
D03*
X1200000D02*
D03*
X1750000Y600000D02*
D03*
X1625000D02*
D03*
X1407500Y2250000D02*
D03*
X1675000Y2525000D02*
D03*
X575000D02*
D03*
X75000Y1650000D02*
D03*
X175000Y2525000D02*
D03*
X1475000Y1825000D02*
D03*
X1869395Y1628950D02*
D03*
X1962979Y1664193D02*
D03*
X2035361Y1733192D02*
D03*
X2075000Y1825000D02*
D03*
X2075000Y2725000D02*
D03*
X2075000Y2815000D02*
D03*
X1875000D02*
D03*
Y2725000D02*
D03*
X2075000Y2325000D02*
D03*
Y2425000D02*
D03*
Y2625000D02*
D03*
Y2525000D02*
D03*
X1875000D02*
D03*
Y2625000D02*
D03*
Y2425000D02*
D03*
Y2325000D02*
D03*
X2075000Y1925000D02*
D03*
Y2025000D02*
D03*
Y2225000D02*
D03*
Y2125000D02*
D03*
X1875000D02*
D03*
Y2225000D02*
D03*
Y2025000D02*
D03*
Y1925000D02*
D03*
X1575000Y1825000D02*
D03*
X1775000D02*
D03*
X1675000D02*
D03*
Y1625000D02*
D03*
X1775000D02*
D03*
X1575000D02*
D03*
X1475000D02*
D03*
X1625000Y975000D02*
D03*
X1700000Y1050000D02*
D03*
X1625000Y1125000D02*
D03*
X1775000D02*
D03*
Y975000D02*
D03*
D45*
X1075000Y3165000D02*
D03*
Y235000D02*
D03*
D46*
X1988500Y490500D02*
D03*
D47*
X1861500D02*
D03*
X1988500Y363500D02*
D03*
X1861500D02*
D03*
X1988500Y236500D02*
D03*
X1861500D02*
D03*
X1988500Y109500D02*
D03*
X1861500D02*
D03*
%TF.MD5,91477ad21ce37a40b693bd93b3729b45*%
M02*
