%TF.GenerationSoftware,Altium Limited,Altium Designer,22.11.1 (43)*%
G04 Layer_Physical_Order=6*
G04 Layer_Color=16711680*
%FSLAX45Y45*%
%MOMM*%
%TF.SameCoordinates,68354FB4-E10A-4FE8-B7D5-3B9F33A940C7*%
%TF.FilePolarity,Positive*%
%TF.FileFunction,Copper,L6,Bot,Signal*%
%TF.Part,Single*%
G01*
G75*
%TA.AperFunction,Conductor*%
%ADD10C,0.20000*%
%TA.AperFunction,ViaPad*%
%ADD44C,0.70000*%
%TA.AperFunction,SMDPad,CuDef*%
%ADD45R,4.20000X3.20000*%
%ADD46R,1.00000X1.00000*%
%TA.AperFunction,BGAPad,CuDef*%
%ADD47C,1.00000*%
G36*
X2125000Y1130001D02*
X1924999D01*
Y1330001D01*
X2125000D01*
Y1130001D01*
D02*
G37*
%LPC*%
G36*
X2052459Y1293102D02*
X2040809D01*
X2038729Y1292964D01*
X2036926Y1292825D01*
X2033320Y1291854D01*
X2030131Y1290745D01*
X2027357Y1289358D01*
X2026247Y1288526D01*
X2025277Y1287832D01*
X2024306Y1287278D01*
X2023612Y1286723D01*
X2023058Y1286168D01*
X2022503Y1285752D01*
X2022364Y1285613D01*
X2022226Y1285475D01*
X2020839Y1284088D01*
X2019591Y1282562D01*
X2018620Y1281037D01*
X2017788Y1279373D01*
X2016401Y1276322D01*
X2015430Y1273271D01*
X2014875Y1270774D01*
X2014737Y1269526D01*
X2014598Y1268694D01*
X2014459Y1267862D01*
Y1251497D01*
X2010992Y1252191D01*
X2007664Y1253161D01*
X2004613Y1254548D01*
X2001839Y1255935D01*
X1999481Y1257183D01*
X1998649Y1257738D01*
X1997817Y1258293D01*
X1997124Y1258709D01*
X1996708Y1259125D01*
X1996430Y1259263D01*
X1996292Y1259402D01*
X1994350Y1261066D01*
X1992547Y1262731D01*
X1990883Y1264533D01*
X1989357Y1266336D01*
X1988109Y1268001D01*
X1987000Y1269803D01*
X1986029Y1271329D01*
X1985058Y1272993D01*
X1984365Y1274380D01*
X1983810Y1275767D01*
X1983255Y1276876D01*
X1982839Y1277986D01*
X1982562Y1278818D01*
X1982423Y1279373D01*
X1982285Y1279789D01*
Y1279927D01*
X1981869Y1280759D01*
X1981314Y1281453D01*
X1980482Y1281869D01*
X1979788Y1282285D01*
X1978956Y1282424D01*
X1978263Y1282562D01*
X1977847D01*
X1977708D01*
X1975905Y1282285D01*
X1974657Y1281730D01*
X1973686Y1280898D01*
X1973131Y1279927D01*
X1972715Y1278957D01*
X1972577Y1278124D01*
X1972438Y1277570D01*
Y1280343D01*
Y1277570D01*
Y1276599D01*
X1972577Y1275905D01*
X1972993Y1274241D01*
X1973270Y1273548D01*
X1973547Y1272993D01*
X1973686Y1272577D01*
Y1272438D01*
X1974518Y1270497D01*
X1975628Y1268417D01*
X1977847Y1264672D01*
X1980343Y1261344D01*
X1982701Y1258293D01*
X1983949Y1257044D01*
X1985058Y1255796D01*
X1986029Y1254826D01*
X1986861Y1253993D01*
X1987555Y1253300D01*
X1988109Y1252745D01*
X1988387Y1252468D01*
X1988525Y1252329D01*
X1991022Y1250249D01*
X1993795Y1248446D01*
X1996430Y1246921D01*
X1999065Y1245534D01*
X2001700Y1244424D01*
X2004335Y1243453D01*
X2006832Y1242621D01*
X2009189Y1242067D01*
X2011408Y1241512D01*
X2013488Y1241235D01*
X2015291Y1240957D01*
X2016817Y1240680D01*
X2018065D01*
X2019036Y1240541D01*
X1972438D01*
X2077560D01*
D01*
X2051488D01*
X2053429Y1240680D01*
X2055371Y1240818D01*
X2058977Y1241789D01*
X2062167Y1242899D01*
X2064940Y1244424D01*
X2066050Y1245118D01*
X2067021Y1245811D01*
X2067991Y1246366D01*
X2068685Y1246921D01*
X2069239Y1247475D01*
X2069656Y1247891D01*
X2069933Y1248030D01*
X2070072Y1248169D01*
X2071320Y1249694D01*
X2072568Y1251220D01*
X2073539Y1252745D01*
X2074371Y1254271D01*
X2075758Y1257461D01*
X2076590Y1260373D01*
X2077144Y1262869D01*
X2077283Y1263979D01*
X2077422Y1264949D01*
X2077560Y1265643D01*
Y1266752D01*
X2077422Y1268833D01*
X2077283Y1270636D01*
X2076312Y1274241D01*
X2075203Y1277431D01*
X2073677Y1280205D01*
X2072984Y1281314D01*
X2072290Y1282285D01*
X2071736Y1283256D01*
X2071181Y1283949D01*
X2070626Y1284504D01*
X2070210Y1285059D01*
X2070072Y1285197D01*
X2069933Y1285336D01*
X2068407Y1286723D01*
X2066882Y1287971D01*
X2065356Y1288942D01*
X2063831Y1289774D01*
X2060641Y1291161D01*
X2057729Y1292132D01*
X2055232Y1292686D01*
X2054123Y1292825D01*
X2053152Y1292964D01*
X2052459Y1293102D01*
D02*
G37*
G36*
X2072568Y1219461D02*
X2072290D01*
X2070488Y1219184D01*
X2069239Y1218629D01*
X2068269Y1217797D01*
X2067714Y1216826D01*
X2067298Y1215855D01*
X2067159Y1215023D01*
X2067021Y1214468D01*
Y1177440D01*
X1977708D01*
X1975905Y1177162D01*
X1974657Y1176608D01*
X1973686Y1175776D01*
X1973131Y1174805D01*
X1972715Y1173834D01*
X1972577Y1173002D01*
X1972438Y1172447D01*
Y1177162D01*
Y1172170D01*
X1972715Y1170367D01*
X1973270Y1169119D01*
X1974102Y1168148D01*
X1975073Y1167593D01*
X1976044Y1167177D01*
X1976876Y1167039D01*
X1977431Y1166900D01*
X1972438D01*
X2077560D01*
Y1214191D01*
X2077283Y1215994D01*
X2076728Y1217242D01*
X2075896Y1218213D01*
X2074925Y1218768D01*
X2073955Y1219184D01*
X2073123Y1219322D01*
X2072568Y1219461D01*
D02*
G37*
%LPD*%
G36*
X2053707Y1282424D02*
X2055787Y1281869D01*
X2057729Y1281175D01*
X2059393Y1280343D01*
X2060641Y1279373D01*
X2061612Y1278679D01*
X2062167Y1278124D01*
X2062444Y1277986D01*
X2063969Y1276183D01*
X2065079Y1274241D01*
X2065911Y1272438D01*
X2066466Y1270636D01*
X2066743Y1269110D01*
X2066882Y1267862D01*
X2067021Y1267030D01*
Y1266752D01*
X2066882Y1264395D01*
X2066327Y1262176D01*
X2065634Y1260234D01*
X2064663Y1258709D01*
X2063831Y1257322D01*
X2063137Y1256351D01*
X2062583Y1255796D01*
X2062444Y1255519D01*
X2060641Y1253993D01*
X2058838Y1253023D01*
X2056897Y1252191D01*
X2055232Y1251636D01*
X2053707Y1251358D01*
X2052459Y1251220D01*
X2051627Y1251081D01*
X2051488D01*
X2051349D01*
X2024999D01*
Y1266752D01*
X2025138Y1269110D01*
X2025693Y1271190D01*
X2026386Y1273132D01*
X2027218Y1274796D01*
X2028189Y1276044D01*
X2028882Y1277015D01*
X2029437Y1277708D01*
X2029576Y1277847D01*
X2031379Y1279373D01*
X2033320Y1280621D01*
X2035123Y1281453D01*
X2036926Y1282008D01*
X2038452Y1282285D01*
X2039700Y1282562D01*
X2040532D01*
X2040671D01*
X2040809D01*
X2051349D01*
X2053707Y1282424D01*
D02*
G37*
G36*
X2077560Y1166900D02*
X2072429D01*
X2074093Y1167177D01*
X2075342Y1167732D01*
X2076312Y1168564D01*
X2076867Y1169535D01*
X2077283Y1170506D01*
X2077422Y1171338D01*
X2077560Y1171893D01*
Y1166900D01*
D02*
G37*
D10*
X1543984Y857700D02*
X1977700D01*
X2070000Y950000D01*
X1382700Y1018984D02*
X1543984Y857700D01*
X1217300Y2601100D02*
Y2601100D01*
X1150000Y2625000D02*
X1154262Y2620738D01*
X1197662D02*
X1217300Y2601100D01*
Y2601100D02*
X1251100Y2567300D01*
X1154262Y2620738D02*
X1197662D01*
X1251100Y2567300D02*
X1286455D01*
X1378034Y2571716D02*
X1507700Y2442050D01*
X1378034Y2571716D02*
Y2589504D01*
X1400000Y2611470D01*
X1540400Y2194155D02*
Y2405844D01*
X1507700Y2438544D02*
X1540400Y2405844D01*
X1265000Y1918755D02*
X1540400Y2194155D01*
X1507700Y2438544D02*
Y2442050D01*
X1275000Y2625000D02*
X1507700Y2392300D01*
Y2207700D02*
Y2392300D01*
X1232300Y1932300D02*
X1507700Y2207700D01*
X1199600Y1945844D02*
X1475000Y2221244D01*
X1286455Y2567300D02*
X1475000Y2378755D01*
Y2221244D02*
Y2378755D01*
X1400000Y2611470D02*
Y2625000D01*
X1325000Y1111470D02*
Y1125000D01*
Y1111470D02*
X1382700Y1053770D01*
Y1018984D02*
Y1053770D01*
X1325000Y1000000D02*
X1334567Y990433D01*
X1530440Y825000D02*
X2005000D01*
X1334567Y990433D02*
X1365007D01*
X1530440Y825000D01*
X2005000D02*
X2070000Y760000D01*
X320000Y2305000D02*
X682700Y1942300D01*
X217500Y2988284D02*
X320000Y2885784D01*
Y2305000D02*
Y2885784D01*
X682700Y1414600D02*
X807300Y1290000D01*
X682700Y1414600D02*
Y1942300D01*
X39600Y1112555D02*
Y1187444D01*
Y1112555D02*
X65000Y1087155D01*
Y783399D02*
X106100Y742300D01*
X65000Y783399D02*
Y1087155D01*
X39600Y1187444D02*
X99999Y1247844D01*
Y1363284D01*
X75000Y1388283D02*
X99999Y1363284D01*
X75000Y1388283D02*
Y1400000D01*
X106100Y742300D02*
X422300D01*
X106100Y836716D02*
X130000Y812815D01*
X72300Y1126100D02*
Y1173900D01*
X106100Y1207700D01*
X130000Y800000D02*
Y812815D01*
X72300Y1126100D02*
X106100Y1092300D01*
Y836716D02*
Y1092300D01*
Y1207700D02*
X120984D01*
X132699Y1219416D02*
Y1467300D01*
X120984Y1207700D02*
X132699Y1219416D01*
X121064Y1478936D02*
X132699Y1467300D01*
X121064Y1478936D02*
Y1478937D01*
X75000Y1525000D02*
X121064Y1478937D01*
X130000Y1150000D02*
Y1163530D01*
X165399Y1198929D01*
Y1559601D01*
X75000Y1650000D02*
X165399Y1559601D01*
X422300Y742300D02*
X480000Y800000D01*
X1199600Y1067089D02*
Y1945844D01*
X872911Y740400D02*
X1199600Y1067089D01*
X1232300Y1053545D02*
Y1932300D01*
X886455Y707700D02*
X1232300Y1053545D01*
X900000Y675000D02*
X1265000Y1040000D01*
Y1918755D01*
X217500Y2988284D02*
Y2992500D01*
X300000Y1275000D02*
X375000D01*
X425000Y1091852D02*
Y1225000D01*
X375000Y1275000D02*
X425000Y1225000D01*
Y1091852D02*
X579601Y937250D01*
X612301Y888284D02*
X649017Y925000D01*
X650000D01*
X612301Y770075D02*
Y888284D01*
Y770075D02*
X641976Y740400D01*
X579601Y756531D02*
Y937250D01*
Y756531D02*
X628432Y707700D01*
X546901Y742986D02*
Y888284D01*
X535185Y900000D02*
X546901Y888284D01*
X412307Y900000D02*
X535185D01*
X388269Y924038D02*
X412307Y900000D01*
X300000Y925000D02*
X300962Y924038D01*
X388269D01*
X546901Y742986D02*
X614887Y675000D01*
X900000D01*
X628432Y707700D02*
X886455D01*
X641976Y740400D02*
X872911D01*
D44*
X1861500Y490500D02*
D03*
X925000Y3125000D02*
D03*
Y3275000D02*
D03*
X1075000Y275000D02*
D03*
Y125000D02*
D03*
X925000Y275000D02*
D03*
X1000000Y200000D02*
D03*
X925000Y125000D02*
D03*
X1000000Y3200000D02*
D03*
X1075000Y3125000D02*
D03*
Y3275000D02*
D03*
X925000Y2100000D02*
D03*
X1750000Y275000D02*
D03*
X1675000Y500000D02*
D03*
X2070000Y950000D02*
D03*
X1500000Y1300000D02*
D03*
Y1500000D02*
D03*
X1025000Y2625000D02*
D03*
X650000D02*
D03*
X800000Y3050000D02*
D03*
X1465000Y2925000D02*
D03*
Y3025000D02*
D03*
Y3125000D02*
D03*
Y3225000D02*
D03*
Y3425000D02*
D03*
X1025000Y2925000D02*
D03*
X900000Y2450000D02*
D03*
X825000Y2225000D02*
D03*
X687690Y2206090D02*
D03*
X1150000Y2625000D02*
D03*
X1050455Y999545D02*
D03*
X1071426Y1216814D02*
D03*
X1325000Y1125000D02*
D03*
Y1000000D02*
D03*
X1500000Y1200000D02*
D03*
X2070000Y760000D02*
D03*
X1025000Y2100000D02*
D03*
X85000Y540500D02*
D03*
Y413500D02*
D03*
X1575000Y2815000D02*
D03*
X1435393Y2007548D02*
D03*
X1368100Y1933578D02*
D03*
X375000Y1775000D02*
D03*
X525000Y1500000D02*
D03*
X524243Y1398917D02*
D03*
X417626Y1017626D02*
D03*
X1239294Y2109293D02*
D03*
X1348604Y1417785D02*
D03*
X1365400Y1319206D02*
D03*
X1332700Y1224703D02*
D03*
X765000Y413500D02*
D03*
Y286500D02*
D03*
Y159500D02*
D03*
X85000D02*
D03*
Y286500D02*
D03*
X895653Y1214053D02*
D03*
X1002700Y1289455D02*
D03*
X1140000Y1289600D02*
D03*
X807300Y1290000D02*
D03*
X691688Y1287700D02*
D03*
X570000Y1310000D02*
D03*
X625000Y1400000D02*
D03*
X1465000Y3325000D02*
D03*
X1675000Y2815000D02*
D03*
X1775000D02*
D03*
X1025000Y2225000D02*
D03*
X1988500Y363500D02*
D03*
X550000Y475000D02*
D03*
X300000D02*
D03*
Y225000D02*
D03*
X550000D02*
D03*
X425000D02*
D03*
Y475000D02*
D03*
X300000Y350000D02*
D03*
X550000D02*
D03*
X425000D02*
D03*
X1988500Y109500D02*
D03*
X1861500D02*
D03*
Y236500D02*
D03*
X1988500D02*
D03*
X1861500Y363500D02*
D03*
X1988500Y490500D02*
D03*
X1925000Y750000D02*
D03*
X1500000Y475000D02*
D03*
X150000Y2125000D02*
D03*
X375000Y2025000D02*
D03*
X130000Y1150000D02*
D03*
Y800000D02*
D03*
X480000D02*
D03*
X650000Y925000D02*
D03*
X300000D02*
D03*
Y1275000D02*
D03*
X75000Y1400000D02*
D03*
Y1525000D02*
D03*
X1350000Y200000D02*
D03*
X525000Y2925000D02*
D03*
X660000Y2110000D02*
D03*
X778557Y2127342D02*
D03*
X692500Y3332500D02*
D03*
X217500Y2992500D02*
D03*
X1100000Y3427144D02*
D03*
X1025000Y2525000D02*
D03*
X1150000Y2225000D02*
D03*
Y2525000D02*
D03*
X700000D02*
D03*
X1400000Y2625000D02*
D03*
X1275000Y2625000D02*
D03*
X400000D02*
D03*
X525000D02*
D03*
X1075000Y1550000D02*
D03*
X925000D02*
D03*
X775000D02*
D03*
Y1700000D02*
D03*
Y1850000D02*
D03*
X925000D02*
D03*
X1075000D02*
D03*
Y1700000D02*
D03*
X925000D02*
D03*
X670000Y800000D02*
D03*
X320000D02*
D03*
Y1150000D02*
D03*
X1350000Y700000D02*
D03*
Y800000D02*
D03*
X1275000Y2225000D02*
D03*
X600000Y1200000D02*
D03*
X825000Y600000D02*
D03*
X692500Y3067500D02*
D03*
X357500Y3332500D02*
D03*
Y3067500D02*
D03*
X375000Y1900000D02*
D03*
X75000Y1775000D02*
D03*
X600000Y1050000D02*
D03*
X1675000Y125000D02*
D03*
X825000Y900000D02*
D03*
X850000Y475000D02*
D03*
X1200000D02*
D03*
X1750000Y600000D02*
D03*
X1625000D02*
D03*
X1407500Y2250000D02*
D03*
X1675000Y2525000D02*
D03*
X575000D02*
D03*
X75000Y1650000D02*
D03*
X175000Y2525000D02*
D03*
X1475000Y1825000D02*
D03*
X1869395Y1628950D02*
D03*
X1962979Y1664193D02*
D03*
X2035361Y1733192D02*
D03*
X2075000Y1825000D02*
D03*
X2075000Y2725000D02*
D03*
X2075000Y2815000D02*
D03*
X1875000D02*
D03*
Y2725000D02*
D03*
X2075000Y2325000D02*
D03*
Y2425000D02*
D03*
Y2625000D02*
D03*
Y2525000D02*
D03*
X1875000D02*
D03*
Y2625000D02*
D03*
Y2425000D02*
D03*
Y2325000D02*
D03*
X2075000Y1925000D02*
D03*
Y2025000D02*
D03*
Y2225000D02*
D03*
Y2125000D02*
D03*
X1875000D02*
D03*
Y2225000D02*
D03*
Y2025000D02*
D03*
Y1925000D02*
D03*
X1575000Y1825000D02*
D03*
X1775000D02*
D03*
X1675000D02*
D03*
Y1625000D02*
D03*
X1775000D02*
D03*
X1575000D02*
D03*
X1475000D02*
D03*
X1625000Y975000D02*
D03*
X1700000Y1050000D02*
D03*
X1625000Y1125000D02*
D03*
X1775000D02*
D03*
Y975000D02*
D03*
D45*
X1075000Y3165000D02*
D03*
Y235000D02*
D03*
D46*
X1988500Y490500D02*
D03*
D47*
X1861500D02*
D03*
X1988500Y363500D02*
D03*
X1861500D02*
D03*
X1988500Y236500D02*
D03*
X1861500D02*
D03*
X1988500Y109500D02*
D03*
X1861500D02*
D03*
%TF.MD5,16e5df56907a5b5282a512edc8532628*%
M02*
